<?xml version="1.0" encoding="UTF-8" standalone="no"?>
<svg
   xmlns:dc="http://purl.org/dc/elements/1.1/"
   xmlns:cc="http://creativecommons.org/ns#"
   xmlns:rdf="http://www.w3.org/1999/02/22-rdf-syntax-ns#"
   xmlns:svg="http://www.w3.org/2000/svg"
   xmlns="http://www.w3.org/2000/svg"
   xmlns:xlink="http://www.w3.org/1999/xlink"
   xmlns:sodipodi="http://sodipodi.sourceforge.net/DTD/sodipodi-0.dtd"
   xmlns:inkscape="http://www.inkscape.org/namespaces/inkscape"
   sodipodi:docname="vish_logo.svg"
   inkscape:version="1.0 (4035a4fb49, 2020-05-01)"
   id="svg8"
   version="1.1"
   viewBox="0 0 210 297"
   height="297mm"
   width="210mm">
  <defs
     id="defs2">
    <linearGradient
       inkscape:collect="always"
       id="linearGradient861">
      <stop
         style="stop-color:#ffe247;stop-opacity:1"
         offset="0"
         id="stop857" />
      <stop
         style="stop-color:#ff5f5f;stop-opacity:1"
         offset="1"
         id="stop859" />
    </linearGradient>
    <linearGradient
       gradientTransform="matrix(0.56298667,0,0,0.56298667,2006.9131,-33.902963)"
       gradientUnits="userSpaceOnUse"
       y2="1798.5022"
       x2="-3225.0901"
       y1="-291.70618"
       x1="-3195.1943"
       id="linearGradient1528"
       xlink:href="#linearGradient861"
       inkscape:collect="always" />
    <linearGradient
       inkscape:collect="always"
       xlink:href="#linearGradient861"
       id="linearGradient1528-2"
       x1="-3195.1943"
       y1="-291.70618"
       x2="-3225.0901"
       y2="1798.5022"
       gradientUnits="userSpaceOnUse"
       gradientTransform="matrix(0.23147436,0,0,0.23147436,-516.94944,2341.6921)" />
    <linearGradient
       gradientTransform="matrix(1.2587441,0,0,1.2587441,-1796.6587,933.6568)"
       inkscape:collect="always"
       xlink:href="#linearGradient861"
       id="linearGradient1486-0"
       x1="1703.5947"
       y1="935.09949"
       x2="1689.5876"
       y2="1657.3147"
       gradientUnits="userSpaceOnUse" />
    <linearGradient
       gradientTransform="matrix(1.2947487,0,0,1.2947487,-2141.2831,-161.85947)"
       inkscape:collect="always"
       xlink:href="#linearGradient861"
       id="linearGradient1486-5"
       x1="1703.5947"
       y1="935.09949"
       x2="1689.5876"
       y2="1657.3147"
       gradientUnits="userSpaceOnUse" />
  </defs>
  <sodipodi:namedview
     inkscape:window-maximized="1"
     inkscape:window-y="301"
     inkscape:window-x="1912"
     inkscape:window-height="705"
     inkscape:window-width="1366"
     inkscape:pagecheckerboard="false"
     showborder="false"
     showgrid="false"
     inkscape:document-rotation="0"
     inkscape:current-layer="layer1"
     inkscape:document-units="mm"
     inkscape:cy="3989.0829"
     inkscape:cx="-16335.334"
     inkscape:zoom="0.01"
     inkscape:pageshadow="2"
     inkscape:pageopacity="0"
     borderopacity="1.0"
     bordercolor="#666666"
     pagecolor="#ffffff"
     id="base"
     showguides="true"
     inkscape:guide-bbox="true" />
  <metadata
     id="metadata5">
    <rdf:RDF>
      <cc:Work
         rdf:about="">
        <dc:format>image/svg+xml</dc:format>
        <dc:type
           rdf:resource="http://purl.org/dc/dcmitype/StillImage" />
        <dc:title></dc:title>
      </cc:Work>
    </rdf:RDF>
  </metadata>
  <g
     id="layer1"
     inkscape:groupmode="layer"
     inkscape:label="Layer 1">
    <g
       style="opacity:0.998"
       transform="matrix(0.26513935,0,0,0.26513935,4.209339,0.01219326)"
       id="g1318" />
    <path
       transform="scale(0.26458333)"
       id="path1123"
       d=""
       style="opacity:0.998;fill:#0dff00;fill-opacity:1;stroke:#0dff00;stroke-width:30.5432;stroke-linecap:round;stroke-linejoin:round;stroke-miterlimit:4;stroke-dasharray:none;stroke-opacity:1" />
    <circle
       r="591.13599"
       cy="393.974"
       cx="207.09325"
       id="path1520"
       style="opacity:0.996;fill:url(#linearGradient1528);fill-opacity:1;stroke:none;stroke-width:0.840455;stroke-linecap:round;stroke-linejoin:miter;stroke-miterlimit:4;stroke-dasharray:none;stroke-opacity:1"
       inkscape:export-xdpi="90"
       inkscape:export-ydpi="90" />
    <path
       id="path865-7-1-0-8"
       style="opacity:0.99600002;fill:#ffffff;fill-opacity:1;stroke:none;stroke-width:2.7073;stroke-linecap:round;stroke-linejoin:round;stroke-miterlimit:4;stroke-dasharray:none;stroke-opacity:1"
       d="m 365.46828,61.181827 a 140.49873,140.49873 0 0 0 -121.4451,70.249263 140.49873,140.49873 0 0 0 -17.2382,91.2947 l -0.8695,-0.50211 a 365.29672,365.29672 0 0 1 -46.2166,227.17351 365.29672,365.29672 0 0 1 -76.4581,92.83402 219.17816,219.17803 0 0 1 -65.083795,-70.63709 219.17816,219.17803 0 0 1 -28.9265003,-95.7411 l -0.1911,0.11048 a 50.579544,50.579577 89.851899 0 0 -6.7353,-23.25111 50.579544,50.579577 89.851899 0 0 -69.0927997,-18.51333 50.579544,50.579577 89.851899 0 0 -18.5136,69.09278 50.579544,50.579577 89.851899 0 0 16.7689,17.45861 l -0.3171,0.18292 A 219.17816,219.17803 0 0 1 -0.39961526,493.85472 219.17816,219.17803 0 0 1 27.330385,630.15879 l 0.5217,-0.30136 a 84.29929,84.299233 0.26232836 0 0 -0.042,0.28289 84.299233,84.299233 0 0 0 -0.014,0.0962 84.29929,84.299233 0.26232836 0 0 -0.024,0.16918 84.299233,84.299233 0 0 0 -0.011,0.0495 84.29929,84.299233 0.26232836 0 0 -0.082,0.58247 84.299233,84.299233 0 0 0 0,0.009 84.29929,84.299233 0.26232836 0 0 -0.033,0.24642 84.299233,84.299233 0 0 0 -0.03,0.23201 84.29929,84.299233 0.26232836 0 0 -0.012,0.0921 84.299233,84.299233 0 0 0 -0.011,0.0645 84.29929,84.299233 0.26232836 0 0 -0.063,0.50005 84.299233,84.299233 0 0 0 -0.024,0.20369 84.29929,84.299233 0.26232836 0 0 -0.011,0.0929 84.299233,84.299233 0 0 0 -0.011,0.0495 84.29929,84.299233 0.26232836 0 0 -0.1625,1.47559 84.299233,84.299233 0 0 0 0,0.009 84.29929,84.299233 0.26232836 0 0 -0.024,0.24754 84.299233,84.299233 0 0 0 -0.022,0.23353 84.29929,84.299233 0.26232836 0 0 -0.011,0.0941 84.299233,84.299233 0 0 0 -0.011,0.0596 84.29929,84.299233 0.26232836 0 0 -0.046,0.50882 84.299233,84.299233 0 0 0 -0.017,0.19023 84.29929,84.299233 0.26232836 0 0 -0.011,0.10347 84.299233,84.299233 0 0 0 -0.011,0.0495 84.29929,84.299233 0.26232836 0 0 -0.2326,3.87448 84.299233,84.299233 0 0 0 0,0.0501 84.29929,84.299233 0.26232836 0 0 -0.011,0.20139 84.299233,84.299233 0 0 0 -0.011,0.18876 84.29929,84.299233 0.26232836 0 0 0,0.10725 84.299233,84.299233 0 0 0 0,0.0501 84.29929,84.299233 0.26232836 0 0 -0.014,0.56523 84.299233,84.299233 0 0 0 0,0.12712 84.29929,84.299233 0.26232836 0 0 -0.013,0.80018 84.29929,84.299233 0.26232836 0 0 -0.011,1.14415 84.299233,84.299233 0 0 0 0,0.19992 84.29929,84.299233 0.26232836 0 0 0,0.1318 84.299233,84.299233 0 0 0 2e-4,0.0681 84.29929,84.299233 0.26232836 0 0 0.011,0.79465 84.299233,84.299233 0 0 0 0,0.0501 84.29929,84.299233 0.26232836 0 0 0.011,0.57898 84.299233,84.299233 0 0 0 0,0.0742 84.29929,84.299233 0.26232836 0 0 0.013,0.5059 84.299233,84.299233 0 0 0 0,0.14261 84.29929,84.299233 0.26232836 0 0 0.011,0.18882 84.299233,84.299233 0 0 0 3e-4,0.009 84.29929,84.299233 0.26232836 0 0 0.1534,2.96875 84.299233,84.299233 0 0 0 0,0.008 84.29929,84.299233 0.26232836 0 0 0.018,0.2481 84.299233,84.299233 0 0 0 0.011,0.12595 84.29929,84.299233 0.26232836 0 0 0.089,1.10328 84.299233,84.299233 0 0 0 0.011,0.0434 84.29929,84.299233 0.26232836 0 0 0.049,0.54214 84.299233,84.299233 0 0 0 0.011,0.0841 84.29929,84.299233 0.26232836 0 0 0.251,2.30121 84.299233,84.299233 0 0 0 0.011,0.0372 84.29929,84.299233 0.26232836 0 0 0.069,0.54654 84.299233,84.299233 0 0 0 0.011,0.083 84.29929,84.299233 0.26232836 0 0 0.023,0.18235 84.299233,84.299233 0 0 0 0.011,0.0495 84.29929,84.299233 0.26232836 0 0 0.1635,1.15913 84.299233,84.299233 0 0 0 0.014,0.095 84.29929,84.299233 0.26232836 0 0 0.219,1.38731 84.299233,84.299233 0 0 0 0.011,0.0655 84.29929,84.299233 0.26232836 0 0 0.1351,0.78469 84.299233,84.299233 0 0 0 0.011,0.049 84.29929,84.299233 0.26232836 0 0 0.1013,0.56259 84.299233,84.299233 0 0 0 0.021,0.11081 84.29929,84.299233 0.26232836 0 0 0.029,0.15899 84.299233,84.299233 0 0 0 0.011,0.0489 84.29929,84.299233 0.26232836 0 0 0.1608,0.83058 84.299233,84.299233 0 0 0 0.043,0.21979 84.29929,84.299233 0.26232836 0 0 0.023,0.11693 84.299233,84.299233 0 0 0 0.011,0.0175 84.29929,84.299233 0.26232836 0 0 0.057,0.27502 84.299233,84.299233 0 0 0 0.023,0.11277 84.29929,84.299233 0.26232836 0 0 0.031,0.15026 84.299233,84.299233 0 0 0 0.014,0.0657 84.29929,84.299233 0.26232836 0 0 0.1134,0.52898 84.299233,84.299233 0 0 0 0.013,0.0616 84.29929,84.299233 0.26232836 0 0 0.1833,0.8204 84.299233,84.299233 0 0 0 0.014,0.0645 84.29929,84.299233 0.26232836 0 0 0.1912,0.81307 84.299233,84.299233 0 0 0 0.011,0.0462 84.29929,84.299233 0.26232836 0 0 0.2046,0.83204 84.299233,84.299233 0 0 0 0.013,0.0535 84.29929,84.299233 0.26232836 0 0 0.052,0.20634 84.299233,84.299233 0 0 0 0.032,0.12858 84.29929,84.299233 0.26232836 0 0 0.037,0.14469 84.299233,84.299233 0 0 0 0.012,0.0484 84.29929,84.299233 0.26232836 0 0 0.4586,1.69628 84.299233,84.299233 0 0 0 0.024,0.0879 84.29929,84.299233 0.26232836 0 0 0.2184,0.75873 84.299233,84.299233 0 0 0 0.014,0.0478 84.29929,84.299233 0.26232836 0 0 0.429,1.41569 84.299233,84.299233 0 0 0 0.018,0.0582 84.29929,84.299233 0.26232836 0 0 0.4288,1.32922 84.299233,84.299233 0 0 0 0.016,0.0473 84.29929,84.299233 0.26232836 0 0 0.271,0.80136 84.299233,84.299233 0 0 0 0.017,0.0473 84.29929,84.299233 0.26232836 0 0 0.1798,0.51698 84.299233,84.299233 0 0 0 0.017,0.0473 84.29929,84.299233 0.26232836 0 0 0.818,2.22289 84.299233,84.299233 0 0 0 0.02,0.0512 84.29929,84.299233 0.26232836 0 0 0.6293,1.58728 84.299233,84.299233 0 0 0 0.019,0.0462 84.29929,84.299233 0.26232836 0 0 0.3241,0.78148 84.299233,84.299233 0 0 0 0.02,0.0462 84.29929,84.299233 0.26232836 0 0 0.1149,0.27182 84.299233,84.299233 0 0 0 0.011,0.0163 84.29929,84.299233 0.26232836 0 0 0.2104,0.49008 84.299233,84.299233 0 0 0 0.02,0.0456 84.29929,84.299233 0.26232836 0 0 0.3407,0.77444 84.299233,84.299233 0 0 0 0.02,0.0456 84.29929,84.299233 0.26232836 0 0 0.3486,0.77072 84.299233,84.299233 0 0 0 0.021,0.0456 84.29929,84.299233 0.26232836 0 0 0.1225,0.26511 84.299233,84.299233 0 0 0 0.011,0.0237 84.29929,84.299233 0.26232836 0 0 0.493,1.04361 84.299233,84.299233 0 0 0 0.03,0.0625 84.29929,84.299233 0.26232836 0 0 0.7506,1.51798 84.299233,84.299233 0 0 0 0.063,0.12538 84.29929,84.299233 0.26232836 0 0 0.6343,1.22167 84.299233,84.299233 0 0 0 0.062,0.1166 84.29929,84.299233 0.26232836 0 0 0.067,0.12593 84.299233,84.299233 0 0 0 0.023,0.0439 84.29929,84.299233 0.26232836 0 0 0.4118,0.76077 84.299233,84.299233 0 0 0 0.048,0.0889 84.29929,84.299233 0.26232836 0 0 0.2442,0.44189 84.299233,84.299233 0 0 0 0.024,0.0434 84.29929,84.299233 0.26232836 0 0 0.5506,0.97177 84.299233,84.299233 0 0 0 0.024,0.0434 84.29929,84.299233 0.26232836 0 0 0.031,0.0541 84.29929,84.299233 0.26232836 0 0 0.098,0.16833 84.299233,84.299233 0 0 0 0.031,0.0546 84.29929,84.299233 0.26232836 0 0 0.021,0.0355 84.299233,84.299233 0 0 0 0.1193,0.20404 84.29929,84.299233 0.26232836 0 0 0.1447,0.24573 84.299233,84.299233 0 0 0 0.011,0.0169 84.29929,84.299233 0.26232836 0 0 0.029,0.0484 84.299233,84.299233 0 0 0 0.1209,0.20336 84.29929,84.299233 0.26232836 0 0 0.7606,1.25264 84.299233,84.299233 0 0 0 0.02,0.0327 84.29929,84.299233 0.26232836 0 0 0.027,0.0439 84.299233,84.299233 0 0 0 0.1251,0.20048 84.29929,84.299233 0.26232836 0 0 0.3515,0.5582 84.299233,84.299233 0 0 0 0.1271,0.19935 84.29929,84.299233 0.26232836 0 0 0.3227,0.5009 84.29929,84.299233 0.26232836 0 0 0.033,0.0517 84.299233,84.299233 0 0 0 0.1291,0.1979 84.29929,84.299233 0.26232836 0 0 1.1355,1.68951 84.299233,84.299233 0 0 0 0.046,0.0661 84.29929,84.299233 0.26232836 0 0 0.021,0.0304 84.299233,84.299233 0 0 0 0.1351,0.19434 84.29929,84.299233 0.26232836 0 0 1.7478,2.41932 84.29929,84.299233 0.26232836 0 0 0.037,0.0489 84.299233,84.299233 0 0 0 0.1422,0.18878 84.29929,84.299233 0.26232836 0 0 0.037,0.0495 84.299233,84.299233 0 0 0 0.1429,0.1882 84.29929,84.299233 0.26232836 0 0 0.038,0.0495 84.299233,84.299233 0 0 0 0.1435,0.18758 84.29929,84.299233 0.26232836 0 0 0.3165,0.41008 84.299233,84.299233 0 0 0 0.073,0.094 84.29929,84.299233 0.26232836 0 0 0.013,0.018 84.299233,84.299233 0 0 0 0.1455,0.18618 84.29929,84.299233 0.26232836 0 0 1.2992,1.61707 84.299233,84.299233 0 0 0 0.014,0.0175 84.29929,84.299233 0.26232836 0 0 0.034,0.0428 84.299233,84.299233 0 0 0 0.1512,0.18207 84.29929,84.299233 0.26232836 0 0 0.5272,0.6292 84.299233,84.299233 0 0 0 0.086,0.10146 84.29929,84.299233 0.26232836 0 0 0,0.006 84.299233,84.299233 0 0 0 0.1536,0.17999 84.29929,84.299233 0.26232836 0 0 0.9302,1.07029 84.299233,84.299233 0 0 0 0.07,0.0791 84.29929,84.299233 0.26232836 0 0 0.9455,1.04862 84.299233,84.299233 0 0 0 0.046,0.0501 84.29929,84.299233 0.26232836 0 0 0.03,0.0333 84.299233,84.299233 0 0 0 0.1605,0.17363 84.29929,84.299233 0.26232836 0 0 0.9548,1.01619 84.299233,84.299233 0 0 0 0.1023,0.10637 84.29929,84.299233 0.26232836 0 0 0.011,0.01 84.299233,84.299233 0 0 0 0.1638,0.17036 84.29929,84.299233 0.26232836 0 0 0.6056,0.62165 84.299233,84.299233 0 0 0 0.039,0.0405 84.29929,84.299233 0.26232836 0 0 0.023,0.0242 84.299233,84.299233 0 0 0 0.1662,0.168 84.29929,84.299233 0.26232836 0 0 1.9012,1.85673 84.299233,84.299233 0 0 0 0.026,0.0248 84.29929,84.299233 0.26232836 0 0 0.4259,0.39983 84.299233,84.299233 0 0 0 0.011,0.007 84.29929,84.299233 0.26232836 0 0 1.5093,1.37273 84.299233,84.299233 0 0 0 0.055,0.049 84.29929,84.299233 0.26232836 0 0 0.1341,0.11834 84.299233,84.299233 0 0 0 0.09,0.0798 84.29929,84.299233 0.26232836 0 0 0.1456,0.12775 84.299233,84.299233 0 0 0 0.071,0.0623 84.29929,84.299233 0.26232836 0 0 0.036,0.0315 84.299233,84.299233 0 0 0 0.1786,0.15522 84.29929,84.299233 0.26232836 0 0 0.8152,0.69877 84.299233,84.299233 0 0 0 0.1288,0.1087 84.29929,84.299233 0.26232836 0 0 0.011,0.01 84.299233,84.299233 0 0 0 0.1813,0.152 84.29929,84.299233 0.26232836 0 0 0.3977,0.33115 84.299233,84.299233 0 0 0 0.1012,0.0836 84.29929,84.299233 0.26232836 0 0 0.011,0.007 84.299233,84.299233 0 0 0 0.1825,0.1502 84.29929,84.299233 0.26232836 0 0 1.3678,1.09744 84.299233,84.299233 0 0 0 0.042,0.0333 84.29929,84.299233 0.26232836 0 0 0.037,0.0287 84.299233,84.299233 0 0 0 0.1868,0.14553 84.29929,84.299233 0.26232836 0 0 0.2148,0.16692 84.299233,84.299233 0 0 0 0.031,0.0243 84.29929,84.299233 0.26232836 0 0 0.039,0.0304 84.299233,84.299233 0 0 0 0.1873,0.14407 84.29929,84.299233 0.26232836 0 0 0.2279,0.17446 84.299233,84.299233 0 0 0 0.012,0.009 84.29929,84.299233 0.26232836 0 0 0.047,0.0355 84.299233,84.299233 0 0 0 0.1886,0.14295 84.29929,84.299233 0.26232836 0 0 0.2882,0.21714 84.299233,84.299233 0 0 0 0.1893,0.14142 84.29929,84.299233 0.26232836 0 0 0.2898,0.21512 84.299233,84.299233 0 0 0 0.1904,0.14029 84.29929,84.299233 0.26232836 0 0 1.9093,1.36164 84.299233,84.299233 0 0 0 0.054,0.0377 84.29929,84.299233 0.26232836 0 0 0.1447,0.0997 84.299233,84.299233 0 0 0 0.1057,0.0728 84.29929,84.299233 0.26232836 0 0 0.1827,0.12481 84.299233,84.299233 0 0 0 0.049,0.0338 84.29929,84.299233 0.26232836 0 0 0.042,0.0293 84.299233,84.299233 0 0 0 0.1958,0.13269 84.29929,84.299233 0.26232836 0 0 0.4787,0.32146 84.299233,84.299233 0 0 0 0.022,0.0147 84.29929,84.299233 0.26232836 0 0 0.2016,0.13388 84.299233,84.299233 0 0 0 0.053,0.0355 84.29929,84.299233 0.26232836 0 0 0.04,0.0265 84.299233,84.299233 0 0 0 0.1975,0.12977 84.29929,84.299233 0.26232836 0 0 0.051,0.0344 84.299233,84.299233 0 0 0 0.1983,0.1292 84.29929,84.299233 0.26232836 0 0 1.3113,0.83615 84.299233,84.299233 0 0 0 0.201,0.12504 84.29929,84.299233 0.26232836 0 0 0.052,0.0327 84.299233,84.299233 0 0 0 0.2013,0.12424 84.29929,84.299233 0.26232836 0 0 0.5627,0.34366 84.299233,84.299233 0 0 0 0.2027,0.12217 84.29929,84.299233 0.26232836 0 0 0.4376,0.26128 84.299233,84.299233 0 0 0 0.1035,0.0616 84.29929,84.299233 0.26232836 0 0 0.024,0.0147 84.299233,84.299233 0 0 0 0.204,0.1198 84.29929,84.299233 0.26232836 0 0 0.57,0.3317 84.299233,84.299233 0 0 0 0.043,0.0248 84.29929,84.299233 0.26232836 0 0 0.4753,0.27153 84.299233,84.299233 0 0 0 0.043,0.0248 84.29929,84.299233 0.26232836 0 0 0.5034,0.28262 84.299233,84.299233 0 0 0 0.1308,0.0728 84.29929,84.299233 0.26232836 0 0 0.1205,0.067 84.299233,84.299233 0 0 0 0.1254,0.069 84.29929,84.299233 0.26232836 0 0 0.1586,0.0871 84.299233,84.299233 0 0 0 0.016,0.009 84.29929,84.299233 0.26232836 0 0 1.0205,0.5497 84.299233,84.299233 0 0 0 0.1068,0.0563 84.29929,84.299233 0.26232836 0 0 0.1345,0.0711 84.299233,84.299233 0 0 0 0.043,0.0231 84.29929,84.299233 0.26232836 0 0 0.2599,0.13584 84.299233,84.299233 0 0 0 0.017,0.009 84.29929,84.299233 0.26232836 0 0 0.4747,0.2449 84.299233,84.299233 0 0 0 0.044,0.023 84.29929,84.299233 0.26232836 0 0 0.7941,0.40069 84.299233,84.299233 0 0 0 0.051,0.0259 84.29929,84.299233 0.26232836 0 0 0.202,0.0999 84.299233,84.299233 0 0 0 0.09,0.0439 84.29929,84.299233 0.26232836 0 0 0.1534,0.0754 84.299233,84.299233 0 0 0 0.046,0.0219 84.29929,84.299233 0.26232836 0 0 0.2292,0.1117 84.299233,84.299233 0 0 0 0.1768,0.0856 84.29929,84.299233 0.26232836 0 0 0.1213,0.0585 84.299233,84.299233 0 0 0 0.027,0.0129 84.29929,84.299233 0.26232836 0 0 1.034,0.48776 84.299233,84.299233 0 0 0 0.079,0.0366 84.29929,84.299233 0.26232836 0 0 2.4064,1.06703 84.29929,84.299233 0.26232836 0 0 0.5028,0.21186 84.299233,84.299233 0 0 0 0.047,0.0191 84.29929,84.299233 0.26232836 0 0 1.361,0.55325 84.299233,84.299233 0 0 0 0.1068,0.0416 84.29929,84.299233 0.26232836 0 0 0.1473,0.0581 84.299233,84.299233 0 0 0 0.047,0.018 84.29929,84.299233 0.26232836 0 0 2.2148,0.83237 84.299233,84.299233 0 0 0 0.096,0.0344 84.29929,84.299233 0.26232836 0 0 0.1608,0.0576 84.299233,84.299233 0 0 0 0.047,0.0169 84.29929,84.299233 0.26232836 0 0 1.1107,0.38604 84.299233,84.299233 0 0 0 0.076,0.0259 84.29929,84.299233 0.26232836 0 0 0.5033,0.16867 84.299233,84.299233 0 0 0 0.021,0.008 84.29929,84.299233 0.26232836 0 0 0.5186,0.17013 84.299233,84.299233 0 0 0 0.1068,0.0344 84.29929,84.299233 0.26232836 0 0 0.4641,0.1484 84.299233,84.299233 0 0 0 0.181,0.0571 84.29929,84.299233 0.26232836 0 0 0.1101,0.0344 84.299233,84.299233 0 0 0 0.09,0.0281 84.29929,84.299233 0.26232836 0 0 0.2121,0.0657 84.299233,84.299233 0 0 0 0.011,0 84.29929,84.299233 0.26232836 0 0 0.2378,0.0728 84.299233,84.299233 0 0 0 0.1278,0.0388 84.29929,84.299233 0.26232836 0 0 1.3128,0.38666 84.299233,84.299233 0 0 0 0.1408,0.0399 84.29929,84.299233 0.26232836 0 0 0.1379,0.0394 84.299233,84.299233 0 0 0 0.048,0.0135 84.29929,84.299233 0.26232836 0 0 0.5272,0.14671 84.299233,84.299233 0 0 0 0.048,0.0129 84.29929,84.299233 0.26232836 0 0 1.3952,0.36915 84.299233,84.299233 0 0 0 0.048,0.0123 84.29929,84.299233 0.26232836 0 0 0.2675,0.0678 84.299233,84.299233 0 0 0 0.1187,0.0293 84.29929,84.299233 0.26232836 0 0 0.1779,0.0445 84.299233,84.299233 0 0 0 0.054,0.0136 84.29929,84.299233 0.26232836 0 0 1.0831,0.25982 84.299233,84.299233 0 0 0 0.166,0.0383 84.29929,84.299233 0.26232836 0 0 0.1155,0.0265 84.299233,84.299233 0 0 0 0.048,0.0112 84.29929,84.299233 0.26232836 0 0 2.0315,0.43806 84.299233,84.299233 0 0 0 0.05,0.01 84.29929,84.299233 0.26232836 0 0 0.5144,0.10258 84.299233,84.299233 0 0 0 0.1321,0.0259 84.29929,84.299233 0.26232836 0 0 0.1902,0.0366 84.299233,84.299233 0 0 0 0.016,0 84.29929,84.299233 0.26232836 0 0 0.5672,0.10636 84.299233,84.299233 0 0 0 0.04,0.008 84.29929,84.299233 0.26232836 0 0 0.2123,0.0388 84.299233,84.299233 0 0 0 0.049,0.009 84.29929,84.299233 0.26232836 0 0 1.7305,0.29399 84.299233,84.299233 0 0 0 0.1304,0.0202 84.29929,84.299233 0.26232836 0 0 0.455,0.0704 84.299233,84.299233 0 0 0 0.1943,0.0293 84.29929,84.299233 0.26232836 0 0 0.1176,0.018 84.299233,84.299233 0 0 0 0.024,0.006 84.29929,84.299233 0.26232836 0 0 0.2461,0.036 84.299233,84.299233 0 0 0 0.2711,0.0388 84.29929,84.299233 0.26232836 0 0 0.031,0.006 84.299233,84.299233 0 0 0 0.1605,0.0225 84.29929,84.299233 0.26232836 0 0 0.1285,0.018 84.299233,84.299233 0 0 0 0.049,0.007 84.29929,84.299233 0.26232836 0 0 0.586495,0.0783 84.299233,84.299233 0 0 0 0.017,0 84.29929,84.299233 0.26232836 0 0 0.5502,0.0695 84.299233,84.299233 0 0 0 0.061,0.008 84.29929,84.299233 0.26232836 0 0 0.8425,0.0988 84.299233,84.299233 0 0 0 0.082,0.009 84.29929,84.299233 0.26232836 0 0 1.4168,0.14526 84.299233,84.299233 0 0 0 0.012,0 84.29929,84.299233 0.26232836 0 0 0.5537,0.0501 84.299233,84.299233 0 0 0 0.069,0.006 84.29929,84.299233 0.26232836 0 0 0.8384,0.0683 84.299233,84.299233 0 0 0 0.091,0.007 84.29929,84.299233 0.26232836 0 0 0.8133,0.0573 84.299233,84.299233 0 0 0 0.032,0 84.29929,84.299233 0.26232836 0 0 0.5496,0.0338 84.299233,84.299233 0 0 0 0.1035,0.006 84.29929,84.299233 0.26232836 0 0 0.8025,0.0423 84.299233,84.299233 0 0 0 0.048,0 84.29929,84.299233 0.26232836 0 0 1.4038,0.0541 84.299233,84.299233 0 0 0 0.05,0 84.29929,84.299233 0.26232836 0 0 0.5677,0.0152 84.299233,84.299233 0 0 0 0.1201,0 84.29929,84.299233 0.26232836 0 0 1.3523,0.0186 84.299233,84.299233 0 0 0 0.1481,0 84.29929,84.299233 0.26232836 0 0 0.1506,0 84.299233,84.299233 0 0 0 0.049,0 84.29929,84.299233 0.26232836 0 0 0.4487,0 84.299233,84.299233 0 0 0 0.1488,0 84.29929,84.299233 0.26232836 0 0 0.5973,-0.006 84.299233,84.299233 0 0 0 0.2986,-0.006 84.29929,84.299233 0.26232836 0 0 0.2984,-0.006 84.299233,84.299233 0 0 0 0.2804,-0.007 84.29929,84.299233 0.26232836 0 0 0.8638,-0.0242 84.299233,84.299233 0 0 0 0.044,0 84.299233,84.299233 0 0 0 0.5468,-0.0203 84.29929,84.299233 0.26232836 0 0 0.05,0 84.299233,84.299233 0 0 0 0.06,-0.006 84.29929,84.299233 0.26232836 0 0 1.133,-0.0546 84.299233,84.299233 0 0 0 0.2756,-0.0158 84.29929,84.299233 0.26232836 0 0 1.2147,-0.0799 84.299233,84.299233 0 0 0 0.2724,-0.0202 84.29929,84.299233 0.26232836 0 0 0.6207,-0.0501 84.299233,84.299233 0 0 0 0.2858,-0.0248 84.29929,84.299233 0.26232836 0 0 0.3093,-0.0276 84.299233,84.299233 0 0 0 0.2676,-0.0248 84.29929,84.299233 0.26232836 0 0 0.1219,-0.0112 84.299233,84.299233 0 0 0 0.4543,-0.0445 84.29929,84.299233 0.26232836 0 0 0.048,-0.006 84.299233,84.299233 0 0 0 0.2473,-0.0254 84.29929,84.299233 0.26232836 0 0 0.049,-0.006 84.299233,84.299233 0 0 0 0.021,0 84.29929,84.299233 0.26232836 0 0 0.2758,-0.0293 84.299233,84.299233 0 0 0 0.2721,-0.0298 84.29929,84.299233 0.26232836 0 0 0.618,-0.0716 84.299233,84.299233 0 0 0 0.2842,-0.0344 84.29929,84.299233 0.26232836 0 0 0.8513,-0.10903 84.299233,84.299233 0 0 0 0.2961,-0.0399 84.29929,84.299233 0.26232836 0 0 0.2028,-0.0281 84.299233,84.299233 0 0 0 0.124,-0.0175 84.29929,84.299233 0.26232836 0 0 0.314,-0.0451 84.299233,84.299233 0 0 0 0.259,-0.0383 84.29929,84.299233 0.26232836 0 0 0.1371,-0.0202 84.299233,84.299233 0 0 0 0.1949,-0.0293 84.29929,84.299233 0.26232836 0 0 0.2458,-0.0377 84.299233,84.299233 0 0 0 0.011,0 84.29929,84.299233 0.26232836 0 0 0.043,-0.007 84.299233,84.299233 0 0 0 0.2677,-0.0423 84.29929,84.299233 0.26232836 0 0 0.8623,-0.14175 84.299233,84.299233 0 0 0 0.049,-0.009 84.29929,84.299233 0.26232836 0 0 1.1269,-0.19959 84.299233,84.299233 0 0 0 0.032,-0.007 84.29929,84.299233 0.26232836 0 0 0.061,-0.0112 84.299233,84.299233 0 0 0 0.1999,-0.0372 84.29929,84.299233 0.26232836 0 0 0.049,-0.01 84.299233,84.299233 0 0 0 0.5825,-0.11192 84.29929,84.299233 0.26232836 0 0 0.297,-0.0588 84.299233,84.299233 0 0 0 0.2612,-0.0524 84.29929,84.299233 0.26232836 0 0 0.1012,-0.0208 84.299233,84.299233 0 0 0 0.1739,-0.0355 84.29929,84.299233 0.26232836 0 0 0.3414,-0.0713 84.299233,84.299233 0 0 0 0.2431,-0.0513 84.29929,84.299233 0.26232836 0 0 0.049,-0.0111 84.299233,84.299233 0 0 0 0.046,-0.01 84.29929,84.299233 0.26232836 0 0 0.8294,-0.1827 84.299233,84.299233 0 0 0 0.2549,-0.0579 84.29929,84.299233 0.26232836 0 0 0.163,-0.0377 84.299233,84.299233 0 0 0 0.1541,-0.0355 84.29929,84.299233 0.26232836 0 0 0.8817,-0.21016 84.299233,84.299233 0 0 0 0.1999,-0.049 84.29929,84.299233 0.26232836 0 0 0.041,-0.01 84.299233,84.299233 0 0 0 0.048,-0.0118 84.29929,84.299233 0.26232836 0 0 0.1351,-0.0338 84.299233,84.299233 0 0 0 0.1502,-0.0377 84.29929,84.299233 0.26232836 0 0 0.4297,-0.10959 84.299233,84.299233 0 0 0 0.1534,-0.0394 84.29929,84.299233 0.26232836 0 0 0.5777,-0.15195 84.299233,84.299233 0 0 0 0.2815,-0.0753 84.29929,84.299233 0.26232836 0 0 0.011,0 84.299233,84.299233 0 0 0 0.2534,-0.069 84.29929,84.299233 0.26232836 0 0 0.8493,-0.23731 84.299233,84.299233 0 0 0 0.014,-0.006 84.29929,84.299233 0.26232836 0 0 0.1434,-0.041 84.299233,84.299233 0 0 0 0.1772,-0.0512 84.29929,84.299233 0.26232836 0 0 0.2866,-0.0836 84.299233,84.299233 0 0 0 0.2386,-0.0702 84.29929,84.299233 0.26232836 0 0 0.048,-0.014 84.299233,84.299233 0 0 0 0.2381,-0.0713 84.29929,84.299233 0.26232836 0 0 0.048,-0.0141 84.299233,84.299233 0 0 0 0.2622,-0.0794 84.29929,84.299233 0.26232836 0 0 0.078,-0.0243 84.299233,84.299233 0 0 0 0.4759,-0.14699 84.29929,84.299233 0.26232836 0 0 0.1425,-0.0451 84.299233,84.299233 0 0 0 0.1827,-0.0575 84.29929,84.299233 0.26232836 0 0 0.237,-0.0754 84.299233,84.299233 0 0 0 0.011,-0.006 84.29929,84.299233 0.26232836 0 0 0.037,-0.0118 84.299233,84.299233 0 0 0 0.2677,-0.0866 84.29929,84.299233 0.26232836 0 0 0.2529,-0.0824 84.299233,84.299233 0 0 0 0.3311,-0.10925 84.29929,84.299233 0.26232836 0 0 0.2832,-0.0947 84.299233,84.299233 0 0 0 0.2588,-0.0873 84.29929,84.299233 0.26232836 0 0 0.1046,-0.0355 84.299233,84.299233 0 0 0 0.155,-0.053 84.29929,84.299233 0.26232836 0 0 0.048,-0.0164 84.29929,84.299233 0.26232836 0 0 0.8423,-0.29517 84.299233,84.299233 0 0 0 0.2396,-0.0857 84.29929,84.299233 0.26232836 0 0 0.1436,-0.0519 84.299233,84.299233 0 0 0 0.1315,-0.0473 84.29929,84.299233 0.26232836 0 0 0.8872,-0.3285 84.299233,84.299233 0 0 0 0.2327,-0.0877 84.29929,84.299233 0.26232836 0 0 0.047,-0.018 84.299233,84.299233 0 0 0 0.2324,-0.0889 84.29929,84.299233 0.26232836 0 0 0.047,-0.018 84.299233,84.299233 0 0 0 0.086,-0.0333 84.29929,84.299233 0.26232836 0 0 0.1928,-0.0745 84.299233,84.299233 0 0 0 0.2316,-0.09 84.29929,84.299233 0.26232836 0 0 0.1112,-0.0439 84.299233,84.299233 0 0 0 0.1888,-0.0745 84.29929,84.299233 0.26232836 0 0 0.098,-0.0388 84.299233,84.299233 0 0 0 0.2041,-0.0813 84.29929,84.299233 0.26232836 0 0 0.277,-0.11164 84.299233,84.299233 0 0 0 0.257,-0.10458 84.29929,84.299233 0.26232836 0 0 0.02,-0.008 84.299233,84.299233 0 0 0 0.2402,-0.0988 84.29929,84.299233 0.26232836 0 0 0.036,-0.0147 84.299233,84.299233 0 0 0 0.2577,-0.10692 84.29929,84.299233 0.26232836 0 0 0.2473,-0.1038 84.299233,84.299233 0 0 0 0.3168,-0.13388 84.29929,84.299233 0.26232836 0 0 0.027,-0.0118 84.299233,84.299233 0 0 0 0.2406,-0.10281 84.29929,84.299233 0.26232836 0 0 0.012,-0.006 84.299233,84.299233 0 0 0 0.2452,-0.1058 84.29929,84.299233 0.26232836 0 0 0.029,-0.0123 84.299233,84.299233 0 0 0 0.2726,-0.11891 84.299233,84.299233 0 0 0 0.2275,-0.10002 84.29929,84.299233 0.26232836 0 0 0.046,-0.0202 84.299233,84.299233 0 0 0 0.08,-0.036 84.29929,84.299233 0.26232836 0 0 0.7367,-0.33111 84.299233,84.299233 0 0 0 0.5012,-0.22997 84.29929,84.299233 0.26232836 0 0 0.1394,-0.0652 84.299233,84.299233 0 0 0 0.1727,-0.0804 84.29929,84.299233 0.26232836 0 0 0.2704,-0.12712 84.299233,84.299233 0 0 0 0.259,-0.12302 84.29929,84.299233 0.26232836 0 0 0.011,-0.006 84.299233,84.299233 0 0 0 0.2693,-0.12891 84.29929,84.299233 0.26232836 0 0 0.1313,-0.0634 84.299233,84.299233 0 0 0 0.1377,-0.0666 84.29929,84.299233 0.26232836 0 0 0.8037,-0.39572 84.299233,84.299233 0 0 0 0.2558,-0.12768 84.29929,84.299233 0.26232836 0 0 0.011,-0.006 84.299233,84.299233 0 0 0 0.2218,-0.11193 84.29929,84.299233 0.26232836 0 0 0.045,-0.0231 84.299233,84.299233 0 0 0 0.2262,-0.11513 84.29929,84.299233 0.26232836 0 0 0.1458,-0.0751 84.299233,84.299233 0 0 0 0.3978,-0.20577 84.29929,84.299233 0.26232836 0 0 0.1211,-0.0629 84.299233,84.299233 0 0 0 0.1261,-0.0661 84.29929,84.299233 0.26232836 0 0 0.2643,-0.13945 84.299233,84.299233 0 0 0 0.044,-0.0237 84.29929,84.299233 0.26232836 0 0 0.1895,-0.1008 84.299233,84.299233 0 0 0 0.03,-0.0158 84.29929,84.299233 0.26232836 0 0 0.044,-0.0237 84.299233,84.299233 0 0 0 0.082,-0.0445 84.29929,84.299233 0.26232836 0 0 0.4428,-0.23903 84.299233,84.299233 0 0 0 0.2244,-0.12274 84.29929,84.299233 0.26232836 0 0 0.1338,-0.0731 84.299233,84.299233 0 0 0 0.1484,-0.0818 84.29929,84.299233 0.26232836 0 0 0.2346,-0.1304 84.299233,84.299233 0 0 0 0.043,-0.0241 84.29929,84.299233 0.26232836 0 0 0.1942,-0.10837 84.299233,84.299233 0 0 0 0.022,-0.0129 84.29929,84.299233 0.26232836 0 0 0.045,-0.0248 84.299233,84.299233 0 0 0 0.2163,-0.12216 84.29929,84.299233 0.26232836 0 0 0.616,-0.35216 84.29929,84.299233 0.26232836 0 0 0.2048,-0.11868 84.299233,84.299233 0 0 0 0.1933,-0.11276 84.29929,84.299233 0.26232836 0 0 0.065,-0.0377 84.299233,84.299233 0 0 0 0.053,-0.0315 84.29929,84.299233 0.26232836 0 0 0.2197,-0.12944 84.299233,84.299233 0 0 0 0.1131,-0.067 84.29929,84.299233 0.26232836 0 0 0.3844,-0.22943 84.299233,84.299233 0 0 0 0.2107,-0.12683 84.29929,84.299233 0.26232836 0 0 0.056,-0.0338 84.299233,84.299233 0 0 0 0.2443,-0.14874 84.29929,84.299233 0.26232836 0 0 0.1745,-0.1067 84.299233,84.299233 0 0 0 0.1334,-0.0818 84.29929,84.299233 0.26232836 0 0 0.2115,-0.13068 84.299233,84.299233 0 0 0 0.2431,-0.15139 84.29929,84.299233 0.26232836 0 0 0.2531,-0.15869 84.299233,84.299233 0 0 0 0.2525,-0.15956 84.29929,84.299233 0.26232836 0 0 0.5034,-0.3218 84.299233,84.299233 0 0 0 0.2506,-0.16219 84.29929,84.299233 0.26232836 0 0 0.2762,-0.18033 84.299233,84.299233 0 0 0 0.025,-0.0163 84.29929,84.299233 0.26232836 0 0 0.237,-0.15578 84.299233,84.299233 0 0 0 0.054,-0.036 84.29929,84.299233 0.26232836 0 0 0.2018,-0.13388 84.299233,84.299233 0 0 0 0.2533,-0.16951 84.29929,84.299233 0.26232836 0 0 0.1216,-0.0818 84.299233,84.299233 0 0 0 0.074,-0.0501 84.29929,84.299233 0.26232836 0 0 0.2587,-0.17538 84.299233,84.299233 0 0 0 0.039,-0.027 84.29929,84.299233 0.26232836 0 0 0.2219,-0.15167 84.299233,84.299233 0 0 0 0.7099,-0.49244 84.29929,84.299233 0.26232836 0 0 0.4881,-0.34461 84.299233,84.299233 0 0 0 0.2429,-0.17357 84.29929,84.299233 0.26232836 0 0 0.2425,-0.17452 84.299233,84.299233 0 0 0 0.1905,-0.13794 84.29929,84.299233 0.26232836 0 0 0.051,-0.0372 84.299233,84.299233 0 0 0 0.05,-0.0366 84.29929,84.299233 0.26232836 0 0 0.1909,-0.13967 84.299233,84.299233 0 0 0 0.05,-0.0366 84.29929,84.299233 0.26232836 0 0 0.1953,-0.14379 84.299233,84.299233 0 0 0 0.2849,-0.21129 84.29929,84.299233 0.26232836 0 0 0.9344,-0.70671 84.299233,84.299233 0 0 0 0.019,-0.014 84.29929,84.299233 0.26232836 0 0 0.2192,-0.1689 84.299233,84.299233 0 0 0 0.2043,-0.15836 84.29929,84.299233 0.26232836 0 0 0.2557,-0.19964 84.299233,84.299233 0 0 0 0.2145,-0.16896 84.29929,84.299233 0.26232836 0 0 0.4676,-0.3714 84.299233,84.299233 0 0 0 0.1956,-0.15724 84.29929,84.299233 0.26232836 0 0 0.037,-0.0298 84.299233,84.299233 0 0 0 0.232,-0.18792 84.29929,84.299233 0.26232836 0 0 0.2315,-0.18854 84.299233,84.299233 0 0 0 0.048,-0.0394 84.29929,84.299233 0.26232836 0 0 0.1969,-0.16164 84.299233,84.299233 0 0 0 0.1168,-0.0967 84.29929,84.299233 0.26232836 0 0 0.099,-0.0821 84.299233,84.299233 0 0 0 0.2772,-0.23117 84.29929,84.299233 0.26232836 0 0 0.2246,-0.18883 84.299233,84.299233 0 0 0 0.1845,-0.15605 84.29929,84.299233 0.26232836 0 0 0.6801,-0.58337 84.299233,84.299233 0 0 0 0.1567,-0.13591 84.29929,84.299233 0.26232836 0 0 0.1023,-0.0889 84.299233,84.299233 0 0 0 0.1915,-0.16804 84.29929,84.299233 0.26232836 0 0 0.2464,-0.21743 84.299233,84.299233 0 0 0 0.2007,-0.17858 84.29929,84.299233 0.26232836 0 0 0.2224,-0.19902 84.299233,84.299233 0 0 0 0.047,-0.0416 84.29929,84.299233 0.26232836 0 0 0.3968,-0.35946 84.299233,84.299233 0 0 0 0.1486,-0.13563 84.29929,84.299233 0.26232836 0 0 0.072,-0.0657 84.299233,84.299233 0 0 0 0.2084,-0.19197 84.29929,84.299233 0.26232836 0 0 0.011,-0.0111 84.299233,84.299233 0 0 0 0.1648,-0.15285 84.29929,84.299233 0.26232836 0 0 0.054,-0.0501 84.299233,84.299233 0 0 0 0.2184,-0.20403 84.29929,84.299233 0.26232836 0 0 0.2174,-0.20458 84.299233,84.299233 0 0 0 0.2168,-0.20543 84.29929,84.299233 0.26232836 0 0 1.2854,-1.24854 84.299233,84.299233 0 0 0 0.1236,-0.12302 84.29929,84.299233 0.26232836 0 0 0.088,-0.0877 84.299233,84.299233 0 0 0 0.043,-0.0439 84.29929,84.299233 0.26232836 0 0 0.1672,-0.16777 84.299233,84.299233 0 0 0 0.043,-0.0439 84.29929,84.299233 0.26232836 0 0 0.1809,-0.18291 84.299233,84.299233 0 0 0 0.1949,-0.19846 84.29929,84.299233 0.26232836 0 0 0.2087,-0.21365 84.299233,84.299233 0 0 0 0.2077,-0.21449 84.29929,84.299233 0.26232836 0 0 0.2503,-0.25982 84.299233,84.299233 0 0 0 0.206,-0.21596 84.29929,84.299233 0.26232836 0 0 0.1629,-0.17189 84.299233,84.299233 0 0 0 0.042,-0.0451 84.29929,84.299233 0.26232836 0 0 0.1622,-0.17245 84.299233,84.299233 0 0 0 0.042,-0.0451 84.29929,84.299233 0.26232836 0 0 0.5672,-0.6114 84.299233,84.299233 0 0 0 0.1309,-0.14261 84.29929,84.299233 0.26232836 0 0 0.071,-0.0774 84.299233,84.299233 0 0 0 0.041,-0.0462 84.29929,84.299233 0.26232836 0 0 0.159,-0.17508 84.299233,84.299233 0 0 0 0.1228,-0.13592 84.29929,84.299233 0.26232836 0 0 0.078,-0.0859 84.299233,84.299233 0 0 0 0.1992,-0.22237 84.29929,84.299233 0.26232836 0 0 0.2057,-0.23122 84.299233,84.299233 0 0 0 0.1906,-0.21568 84.29929,84.299233 0.26232836 0 0 0.1971,-0.22446 84.299233,84.299233 0 0 0 0.1693,-0.19457 84.29929,84.299233 0.26232836 0 0 0.027,-0.0304 84.299233,84.299233 0 0 0 0.1702,-0.19637 84.29929,84.299233 0.26232836 0 0 0.026,-0.0293 84.299233,84.299233 0 0 0 0.041,-0.0473 84.29929,84.299233 0.26232836 0 0 0.154,-0.17976 84.299233,84.299233 0 0 0 0.1057,-0.12329 84.29929,84.299233 0.26232836 0 0 0.1286,-0.1511 84.299233,84.299233 0 0 0 0.1929,-0.22796 84.29929,84.299233 0.26232836 0 0 0.1522,-0.18122 84.299233,84.299233 0 0 0 0.039,-0.0478 84.29929,84.299233 0.26232836 0 0 0.3816,-0.45968 84.299233,84.299233 0 0 0 0.085,-0.10291 84.29929,84.299233 0.26232836 0 0 0.066,-0.0798 84.299233,84.299233 0 0 0 0.039,-0.0479 84.29929,84.299233 0.26232836 0 0 0.3374,-0.41525 84.299233,84.299233 0 0 0 0.1002,-0.12392 84.29929,84.299233 0.26232836 0 0 0.088,-0.1087 84.299233,84.299233 0 0 0 0.1225,-0.15347 84.29929,84.299233 0.26232836 0 0 0.063,-0.0801 84.299233,84.299233 0 0 0 0.095,-0.11866 84.29929,84.299233 0.26232836 0 0 0.091,-0.11515 84.299233,84.299233 0 0 0 0.1424,-0.18088 84.29929,84.299233 0.26232836 0 0 0.042,-0.0541 84.299233,84.299233 0 0 0 0.038,-0.0489 84.29929,84.299233 0.26232836 0 0 0.031,-0.0405 84.299233,84.299233 0 0 0 0.4115,-0.53011 84.29929,84.299233 0.26232836 0 0 0.069,-0.0886 84.299233,84.299233 0 0 0 0.038,-0.049 84.29929,84.299233 0.26232836 0 0 0.1437,-0.18821 84.299233,84.299233 0 0 0 0.1629,-0.21422 84.29929,84.299233 0.26232836 0 0 0.018,-0.0237 84.299233,84.299233 0 0 0 0.1012,-0.13506 84.29929,84.299233 0.26232836 0 0 0.078,-0.10347 84.299233,84.299233 0 0 0 0.2159,-0.28876 84.29929,84.299233 0.26232836 0 0 0.1409,-0.19 84.299233,84.299233 0 0 0 0.037,-0.0501 84.29929,84.299233 0.26232836 0 0 0.1402,-0.19052 84.299233,84.299233 0 0 0 0.037,-0.0501 84.29929,84.299233 0.26232836 0 0 0.4898,-0.67508 84.299233,84.299233 0 0 0 0.1219,-0.17042 84.29929,84.299233 0.26232836 0 0 0.051,-0.0724 84.299233,84.299233 0 0 0 0.1728,-0.24345 84.29929,84.299233 0.26232836 0 0 0.1721,-0.24405 84.299233,84.299233 0 0 0 0.091,-0.13033 84.29929,84.299233 0.26232836 0 0 0.08,-0.11456 84.299233,84.299233 0 0 0 0.109,-0.15669 84.29929,84.299233 0.26232836 0 0 0.077,-0.11135 84.299233,84.299233 0 0 0 0.072,-0.10459 84.29929,84.299233 0.26232836 0 0 0.081,-0.11833 84.299233,84.299233 0 0 0 0.034,-0.0513 84.29929,84.299233 0.26232836 0 0 0.4682,-0.69033 84.299233,84.299233 0 0 0 0.034,-0.0512 84.29929,84.299233 0.26232836 0 0 0.1312,-0.19699 84.299233,84.299233 0 0 0 0.082,-0.1242 84.29929,84.299233 0.26232836 0 0 0.082,-0.12453 84.299233,84.299233 0 0 0 0.1981,-0.30159 84.29929,84.299233 0.26232836 0 0 0.1294,-0.19812 84.299233,84.299233 0 0 0 0.085,-0.13095 84.29929,84.299233 0.26232836 0 0 0.1068,-0.16568 84.299233,84.299233 0 0 0 0.2707,-0.42264 84.29929,84.299233 0.26232836 0 0 0.526,-0.83761 84.299233,84.299233 0 0 0 0.033,-0.0557 84.29929,84.299233 0.26232836 0 0 0.096,-0.15403 84.299233,84.299233 0 0 0 0.032,-0.0524 84.29929,84.299233 0.26232836 0 0 0.2788,-0.45709 84.299233,84.299233 0 0 0 0.032,-0.053 84.29929,84.299233 0.26232836 0 0 0.2756,-0.45883 84.299233,84.299233 0 0 0 0.081,-0.13674 84.29929,84.299233 0.26232836 0 0 0.099,-0.1666 84.299233,84.299233 0 0 0 0.014,-0.0254 84.29929,84.299233 0.26232836 0 0 0.109,-0.18528 84.299233,84.299233 0 0 0 0.031,-0.0535 84.29929,84.299233 0.26232836 0 0 0.1195,-0.20459 84.299233,84.299233 0 0 0 0.033,-0.0576 84.29929,84.299233 0.26232836 0 0 0.1164,-0.20077 84.299233,84.299233 0 0 0 0.1991,-0.34663 84.29929,84.299233 0.26232836 0 0 0.011,-0.01 84.299233,84.299233 0 0 0 0.2716,-0.47926 84.29929,84.299233 0.26232836 0 0 0.022,-0.0405 84.299233,84.299233 0 0 0 0.1213,-0.21686 84.29929,84.299233 0.26232836 0 0 0.1371,-0.24726 84.299233,84.299233 0 0 0 0.011,-0.0197 84.29929,84.299233 0.26232836 0 0 0.021,-0.0383 84.299233,84.299233 0 0 0 0.263,-0.47989 84.29929,84.299233 0.26232836 0 0 0.023,-0.0439 84.299233,84.299233 0 0 0 0.1185,-0.21861 84.29929,84.299233 0.26232836 0 0 0.023,-0.0439 84.299233,84.299233 0 0 0 0.1174,-0.21922 84.29929,84.299233 0.26232836 0 0 0.114,-0.21422 84.299233,84.299233 0 0 0 0.037,-0.069 84.29929,84.299233 0.26232836 0 0 0.076,-0.14261 84.299233,84.299233 0 0 0 0.055,-0.10169 84.29929,84.299233 0.26232836 0 0 0.023,-0.0445 84.299233,84.299233 0 0 0 0.1344,-0.25773 84.29929,84.299233 0.26232836 0 0 0.011,-0.007 84.299233,84.299233 0 0 0 0.011,-0.018 84.29929,84.299233 0.26232836 0 0 0.1279,-0.24726 84.299233,84.299233 0 0 0 0.1172,-0.22796 84.29929,84.299233 0.26232836 0 0 0.019,-0.0377 84.299233,84.299233 0 0 0 0.1128,-0.22148 84.29929,84.299233 0.26232836 0 0 0.1117,-0.22098 84.299233,84.299233 0 0 0 0.023,-0.0456 84.29929,84.299233 0.26232836 0 0 0.022,-0.0451 84.299233,84.299233 0 0 0 0.1303,-0.26066 84.29929,84.299233 0.26232836 0 0 0.011,-0.007 84.299233,84.299233 0 0 0 0.1276,-0.25778 84.29929,84.299233 0.26232836 0 0 0.011,-0.01 84.299233,84.299233 0 0 0 0.1318,-0.26804 84.29929,84.299233 0.26232836 0 0 0.3893,-0.80687 84.299233,84.299233 0 0 0 0.1068,-0.22447 84.29929,84.299233 0.26232836 0 0 0.021,-0.0456 84.299233,84.299233 0 0 0 0.2318,-0.49572 84.29929,84.299233 0.26232836 0 0 0.2704,-0.58832 84.299233,84.299233 0 0 0 0.024,-0.0541 84.29929,84.299233 0.26232836 0 0 0.099,-0.21828 84.299233,84.299233 0 0 0 0.1012,-0.22654 84.29929,84.299233 0.26232836 0 0 0.049,-0.11164 84.299233,84.299233 0 0 0 0.071,-0.1613 84.29929,84.299233 0.26232836 0 0 0.02,-0.0462 84.299233,84.299233 0 0 0 0.1001,-0.22739 84.29929,84.299233 0.26232836 0 0 0.02,-0.0462 84.299233,84.299233 0 0 0 0.1699,-0.39133 84.29929,84.299233 0.26232836 0 0 0.068,-0.15668 84.299233,84.299233 0 0 0 0.1129,-0.26388 84.29929,84.299233 0.26232836 0 0 0.011,-0.0111 84.299233,84.299233 0 0 0 0.2122,-0.5041 84.29929,84.299233 0.26232836 0 0 0.019,-0.0462 84.299233,84.299233 0 0 0 0.209,-0.50596 84.29929,84.299233 0.26232836 0 0 0.059,-0.14581 84.299233,84.299233 0 0 0 0.072,-0.17739 84.29929,84.299233 0.26232836 0 0 0.1113,-0.27705 84.299233,84.299233 0 0 0 0.1024,-0.25808 84.29929,84.299233 0.26232836 0 0 0.011,-0.0191 84.299233,84.299233 0 0 0 0.091,-0.23117 84.29929,84.299233 0.26232836 0 0 0.019,-0.0467 84.299233,84.299233 0 0 0 0.09,-0.23151 84.29929,84.299233 0.26232836 0 0 0.018,-0.0467 84.299233,84.299233 0 0 0 0.089,-0.23172 84.29929,84.299233 0.26232836 0 0 0.018,-0.0473 84.299233,84.299233 0 0 0 0.09,-0.23702 84.29929,84.299233 0.26232836 0 0 0.016,-0.0416 84.299233,84.299233 0 0 0 0.1012,-0.26742 84.29929,84.299233 0.26232836 0 0 0,-0.0118 84.299233,84.299233 0 0 0 0.093,-0.24838 84.29929,84.299233 0.26232836 0 0 0.012,-0.0315 84.299233,84.299233 0 0 0 0.087,-0.23291 84.29929,84.299233 0.26232836 0 0 0.018,-0.0473 84.299233,84.299233 0 0 0 0.1928,-0.53044 84.29929,84.299233 0.26232836 0 0 0.011,-0.0309 84.299233,84.299233 0 0 0 0.1934,-0.54413 84.29929,84.299233 0.26232836 0 0 0.011,-0.0186 84.299233,84.299233 0 0 0 0.082,-0.23442 84.29929,84.299233 0.26232836 0 0 0.017,-0.0473 84.299233,84.299233 0 0 0 0.081,-0.23611 84.29929,84.299233 0.26232836 0 0 0.069,-0.20105 84.299233,84.299233 0 0 0 0.036,-0.10436 84.29929,84.299233 0.26232836 0 0 0.011,-0.0237 84.299233,84.299233 0 0 0 0.08,-0.23556 84.29929,84.299233 0.26232836 0 0 0.016,-0.0473 84.299233,84.299233 0 0 0 0.089,-0.26742 84.29929,84.299233 0.26232836 0 0 0.011,-0.0164 84.299233,84.299233 0 0 0 0.1703,-0.51992 84.29929,84.299233 0.26232836 0 0 0.016,-0.0478 84.299233,84.299233 0 0 0 0.077,-0.23645 84.29929,84.299233 0.26232836 0 0 0.015,-0.0478 84.299233,84.299233 0 0 0 0.1722,-0.54418 84.29929,84.299233 0.26232836 0 0 0.097,-0.31065 84.299233,84.299233 0 0 0 0.073,-0.23764 84.29929,84.299233 0.26232836 0 0 0.014,-0.0478 84.299233,84.299233 0 0 0 0.072,-0.23791 84.29929,84.299233 0.26232836 0 0 0.014,-0.0478 84.299233,84.299233 0 0 0 0.071,-0.23821 84.29929,84.299233 0.26232836 0 0 0.014,-0.0484 84.299233,84.299233 0 0 0 0.014,-0.0495 84.29929,84.299233 0.26232836 0 0 0.153,-0.52341 84.299233,84.299233 0 0 0 0.069,-0.23877 84.29929,84.299233 0.26232836 0 0 0.013,-0.0484 84.299233,84.299233 0 0 0 0.1484,-0.52662 84.29929,84.299233 0.26232836 0 0 0.013,-0.0484 84.299233,84.299233 0 0 0 0.012,-0.0462 84.29929,84.299233 0.26232836 0 0 0.1448,-0.52982 84.299233,84.299233 0 0 0 0.065,-0.23995 84.29929,84.299233 0.26232836 0 0 0.013,-0.0484 84.299233,84.299233 0 0 0 0.063,-0.24022 84.29929,84.299233 0.26232836 0 0 0.013,-0.0484 84.299233,84.299233 0 0 0 0.069,-0.26247 84.29929,84.299233 0.26232836 0 0 0.011,-0.0265 84.299233,84.299233 0 0 0 0.2075,-0.81977 84.29929,84.299233 0.26232836 0 0 0.012,-0.049 84.299233,84.299233 0 0 0 0.011,-0.0416 84.29929,84.299233 0.26232836 0 0 0.049,-0.19991 84.299233,84.299233 0 0 0 0.078,-0.32147 84.29929,84.299233 0.26232836 0 0 0.011,-0.0175 84.299233,84.299233 0 0 0 0.012,-0.053 84.29929,84.299233 0.26232836 0 0 0.057,-0.23764 84.299233,84.299233 0 0 0 0.059,-0.25222 84.29929,84.299233 0.26232836 0 0 0.011,-0.0383 84.299233,84.299233 0 0 0 0.1873,-0.82472 84.29929,84.299233 0.26232836 0 0 0.011,-0.049 84.299233,84.299233 0 0 0 0.1163,-0.53456 84.29929,84.299233 0.26232836 0 0 0.011,-0.0489 84.299233,84.299233 0 0 0 0.1726,-0.82799 84.29929,84.299233 0.26232836 0 0 0.059,-0.29281 84.299233,84.299233 0 0 0 0.058,-0.29287 84.29929,84.299233 0.26232836 0 0 0.011,-0.0495 84.299233,84.299233 0 0 0 0.057,-0.29224 84.299233,84.299233 0 0 0 0.047,-0.24405 84.29929,84.299233 0.26232836 0 0 0.03,-0.16282 84.299233,84.299233 0 0 0 0.03,-0.16366 84.29929,84.299233 0.26232836 0 0 0,-0.0169 84.299233,84.299233 0 0 0 0.098,-0.53833 84.29929,84.299233 0.26232836 0 0 0.027,-0.15459 84.299233,84.299233 0 0 0 0.03,-0.17595 84.29929,84.299233 0.26232836 0 0 0,-0.0129 84.299233,84.299233 0 0 0 0.041,-0.2458 84.29929,84.299233 0.26232836 0 0 0.011,-0.049 84.299233,84.299233 0 0 0 0.041,-0.24489 84.29929,84.299233 0.26232836 0 0 0.011,-0.0495 84.299233,84.299233 0 0 0 0,-0.0112 84.29929,84.299233 0.26232836 0 0 0.047,-0.28353 84.299233,84.299233 0 0 0 0.041,-0.25863 84.29929,84.299233 0.26232836 0 0 0.011,-0.036 84.299233,84.299233 0 0 0 0.066,-0.41791 84.29929,84.299233 0.26232836 0 0 0.026,-0.17243 84.299233,84.299233 0 0 0 0.016,-0.10025 84.29929,84.299233 0.26232836 0 0 0.021,-0.14559 84.299233,84.299233 0 0 0 0.086,-0.59091 84.29929,84.299233 0.26232836 0 0 0.011,-0.0495 84.299233,84.299233 0 0 0 0.058,-0.42027 84.29929,84.299233 0.26232836 0 0 0.1001,-0.76397 84.299233,84.299233 0 0 0 0.033,-0.26827 84.29929,84.299233 0.26232836 0 0 0.017,-0.14029 84.299233,84.299233 0 0 0 0.017,-0.13445 84.29929,84.299233 0.26232836 0 0 0.011,-0.0495 84.299233,84.299233 0 0 0 0.062,-0.54361 84.29929,84.299233 0.26232836 0 0 0.011,-0.0501 84.299233,84.299233 0 0 0 0.059,-0.5439 84.29929,84.299233 0.26232836 0 0 0.011,-0.0501 84.299233,84.299233 0 0 0 0.043,-0.42899 84.29929,84.299233 0.26232836 0 0 0.017,-0.16513 84.299233,84.299233 0 0 0 0.027,-0.27592 84.29929,84.299233 0.26232836 0 0 0.029,-0.31882 84.299233,84.299233 0 0 0 0.023,-0.26887 84.29929,84.299233 0.26232836 0 0 0.012,-0.14351 84.299233,84.299233 0 0 0 0.011,-0.1327 84.29929,84.299233 0.26232836 0 0 0.011,-0.0501 84.299233,84.299233 0 0 0 0.043,-0.54536 84.29929,84.299233 0.26232836 0 0 0,-0.0501 84.299233,84.299233 0 0 0 0.04,-0.55415 84.29929,84.299233 0.26232836 0 0 0.011,-0.16714 84.299233,84.299233 0 0 0 0.011,-0.12245 84.29929,84.299233 0.26232836 0 0 0.011,-0.0501 84.299233,84.299233 0 0 0 0.033,-0.54621 84.29929,84.299233 0.26232836 0 0 0.011,-0.0501 84.299233,84.299233 0 0 0 0.03,-0.55179 84.29929,84.299233 0.26232836 0 0 0,-0.0445 84.299233,84.299233 0 0 0 0.014,-0.28611 84.29929,84.299233 0.26232836 0 0 0,-0.0124 84.299233,84.299233 0 0 0 0.024,-0.54655 84.29929,84.299233 0.26232836 0 0 0,-0.0501 84.299233,84.299233 0 0 0 0,-0.0111 l 0.3189,0.18416 a 365.29672,365.29672 0 0 1 48.2103,-159.56831 365.29672,365.29672 0 0 1 173.6293,-153.61177 l -0.6598,-0.38082 a 140.49873,140.49873 0 0 0 70.4451,-60.55759 140.49873,140.49873 0 0 0 -51.4262,-191.924963 140.49873,140.49873 0 0 0 -70.4795,-18.82312 z"
       inkscape:export-xdpi="90"
       inkscape:export-ydpi="90" />
    <circle
       style="opacity:0.998;fill:url(#linearGradient1528-2);fill-opacity:1.0;stroke:none;stroke-width:0.345557;stroke-linecap:round;stroke-linejoin:miter;stroke-miterlimit:4;stroke-dasharray:none;stroke-opacity:1"
       id="path1520-6"
       cx="-1256.9519"
       cy="2517.6155"
       r="243.04808"
       inkscape:export-filename="C:\Users\Tiago\Desktop\Projetos\Vish\logo\logo_02.png"
       inkscape:export-xdpi="90"
       inkscape:export-ydpi="90" />
    <path
       d="m -1191.8176,2380.7906 a 57.766651,57.766651 0 0 0 -49.9327,28.8834 57.766651,57.766651 0 0 0 -7.0875,37.5361 l -0.3575,-0.2064 a 150.1933,150.1933 0 0 1 -19.0022,93.4034 150.1933,150.1933 0 0 1 -31.436,38.169 90.11603,90.115977 0 0 1 -26.7596,-29.0426 90.11603,90.115977 0 0 1 -11.8932,-39.3644 l -0.079,0.046 a 20.795994,20.796007 89.851899 0 0 -2.7693,-9.5598 20.795994,20.796007 89.851899 0 0 -28.4077,-7.6119 20.795994,20.796007 89.851899 0 0 -7.612,28.4079 20.795994,20.796007 89.851899 0 0 6.8946,7.1782 l -0.1304,0.076 a 90.11603,90.115977 0 0 1 28.1439,29.982 90.11603,90.115977 0 0 1 11.4013,56.042 l 0.2145,-0.1242 a 34.66001,34.659987 0.26232836 0 0 -0.017,0.117 34.659987,34.659987 0 0 0 -0.01,0.04 34.66001,34.659987 0.26232836 0 0 -0.01,0.07 34.659987,34.659987 0 0 0 0,0.02 34.66001,34.659987 0.26232836 0 0 -0.034,0.2396 34.66001,34.659987 0.26232836 0 0 -0.014,0.1013 34.659987,34.659987 0 0 0 -0.013,0.096 34.66001,34.659987 0.26232836 0 0 0,0.039 34.659987,34.659987 0 0 0 0,0.027 34.66001,34.659987 0.26232836 0 0 -0.026,0.2056 34.659987,34.659987 0 0 0 -0.01,0.084 34.66001,34.659987 0.26232836 0 0 0,0.039 34.659987,34.659987 0 0 0 0,0.02 34.66001,34.659987 0.26232836 0 0 -0.067,0.6067 34.66001,34.659987 0.26232836 0 0 -0.01,0.1014 34.659987,34.659987 0 0 0 -0.01,0.096 34.66001,34.659987 0.26232836 0 0 0,0.039 34.659987,34.659987 0 0 0 0,0.024 34.66001,34.659987 0.26232836 0 0 -0.019,0.2092 34.659987,34.659987 0 0 0 -0.01,0.078 34.66001,34.659987 0.26232836 0 0 0,0.043 34.659987,34.659987 0 0 0 0,0.02 34.66001,34.659987 0.26232836 0 0 -0.096,1.5929 34.659987,34.659987 0 0 0 0,0.02 34.66001,34.659987 0.26232836 0 0 0,0.083 34.659987,34.659987 0 0 0 0,0.077 34.66001,34.659987 0.26232836 0 0 0,0.044 34.659987,34.659987 0 0 0 0,0.02 34.66001,34.659987 0.26232836 0 0 -0.01,0.2324 34.659987,34.659987 0 0 0 0,0.053 34.66001,34.659987 0.26232836 0 0 -0.01,0.3289 34.66001,34.659987 0.26232836 0 0 0,0.4705 34.659987,34.659987 0 0 0 0,0.081 34.66001,34.659987 0.26232836 0 0 0,0.054 34.659987,34.659987 0 0 0 0,0.028 34.66001,34.659987 0.26232836 0 0 0,0.3268 34.659987,34.659987 0 0 0 0,0.02 34.66001,34.659987 0.26232836 0 0 0,0.2381 34.659987,34.659987 0 0 0 0,0.03 34.66001,34.659987 0.26232836 0 0 0.01,0.208 34.659987,34.659987 0 0 0 0,0.059 34.66001,34.659987 0.26232836 0 0 0,0.077 34.66001,34.659987 0.26232836 0 0 0.063,1.2207 34.66001,34.659987 0.26232836 0 0 0.01,0.1028 34.659987,34.659987 0 0 0 0,0.051 34.66001,34.659987 0.26232836 0 0 0.037,0.4536 34.659987,34.659987 0 0 0 0,0.019 34.66001,34.659987 0.26232836 0 0 0.02,0.2228 34.659987,34.659987 0 0 0 0,0.034 34.66001,34.659987 0.26232836 0 0 0.1032,0.9461 34.659987,34.659987 0 0 0 0,0.016 34.66001,34.659987 0.26232836 0 0 0.028,0.2246 34.659987,34.659987 0 0 0 0,0.034 34.66001,34.659987 0.26232836 0 0 0.01,0.076 34.659987,34.659987 0 0 0 0,0.02 34.66001,34.659987 0.26232836 0 0 0.067,0.4767 34.659987,34.659987 0 0 0 0.01,0.038 34.66001,34.659987 0.26232836 0 0 0.09,0.5705 34.659987,34.659987 0 0 0 0,0.027 34.66001,34.659987 0.26232836 0 0 0.056,0.3226 34.659987,34.659987 0 0 0 0,0.02 34.66001,34.659987 0.26232836 0 0 0.042,0.2312 34.659987,34.659987 0 0 0 0.01,0.046 34.66001,34.659987 0.26232836 0 0 0.011,0.066 34.659987,34.659987 0 0 0 0,0.02 34.66001,34.659987 0.26232836 0 0 0.066,0.3414 34.659987,34.659987 0 0 0 0.018,0.09 34.66001,34.659987 0.26232836 0 0 0.01,0.049 34.659987,34.659987 0 0 0 0,0.014 34.66001,34.659987 0.26232836 0 0 0.023,0.1128 34.659987,34.659987 0 0 0 0.01,0.046 34.66001,34.659987 0.26232836 0 0 0.013,0.061 34.659987,34.659987 0 0 0 0.01,0.027 34.66001,34.659987 0.26232836 0 0 0.047,0.2174 34.659987,34.659987 0 0 0 0.01,0.026 34.66001,34.659987 0.26232836 0 0 0.075,0.3374 34.659987,34.659987 0 0 0 0.01,0.027 34.66001,34.659987 0.26232836 0 0 0.078,0.3342 34.659987,34.659987 0 0 0 0,0.018 34.66001,34.659987 0.26232836 0 0 0.084,0.3422 34.659987,34.659987 0 0 0 0.01,0.021 34.66001,34.659987 0.26232836 0 0 0.021,0.084 34.659987,34.659987 0 0 0 0.013,0.053 34.66001,34.659987 0.26232836 0 0 0.015,0.06 34.659987,34.659987 0 0 0 0.01,0.02 34.66001,34.659987 0.26232836 0 0 0.1886,0.6973 34.659987,34.659987 0 0 0 0.01,0.036 34.66001,34.659987 0.26232836 0 0 0.09,0.3119 34.659987,34.659987 0 0 0 0.01,0.02 34.66001,34.659987 0.26232836 0 0 0.1764,0.582 34.659987,34.659987 0 0 0 0.01,0.024 34.66001,34.659987 0.26232836 0 0 0.1762,0.5464 34.659987,34.659987 0 0 0 0.01,0.02 34.66001,34.659987 0.26232836 0 0 0.1115,0.3296 34.659987,34.659987 0 0 0 0.01,0.02 34.66001,34.659987 0.26232836 0 0 0.074,0.2126 34.659987,34.659987 0 0 0 0.01,0.02 34.66001,34.659987 0.26232836 0 0 0.3364,0.9139 34.659987,34.659987 0 0 0 0.01,0.021 34.66001,34.659987 0.26232836 0 0 0.2587,0.6527 34.659987,34.659987 0 0 0 0.01,0.019 34.66001,34.659987 0.26232836 0 0 0.1331,0.3213 34.659987,34.659987 0 0 0 0.01,0.019 34.66001,34.659987 0.26232836 0 0 0.047,0.1113 34.66001,34.659987 0.26232836 0 0 0.086,0.2016 34.659987,34.659987 0 0 0 0.01,0.019 34.66001,34.659987 0.26232836 0 0 0.1401,0.3185 34.659987,34.659987 0 0 0 0.01,0.019 34.66001,34.659987 0.26232836 0 0 0.1433,0.3169 34.659987,34.659987 0 0 0 0.01,0.018 34.66001,34.659987 0.26232836 0 0 0.05,0.1085 34.659987,34.659987 0 0 0 0,0.014 34.66001,34.659987 0.26232836 0 0 0.2027,0.4291 34.659987,34.659987 0 0 0 0.013,0.026 34.66001,34.659987 0.26232836 0 0 0.3086,0.6241 34.659987,34.659987 0 0 0 0.026,0.051 34.66001,34.659987 0.26232836 0 0 0.2608,0.5023 34.659987,34.659987 0 0 0 0.026,0.049 34.66001,34.659987 0.26232836 0 0 0.028,0.051 34.659987,34.659987 0 0 0 0.01,0.018 34.66001,34.659987 0.26232836 0 0 0.1693,0.3128 34.659987,34.659987 0 0 0 0.02,0.037 34.66001,34.659987 0.26232836 0 0 0.1005,0.1817 34.659987,34.659987 0 0 0 0.01,0.019 34.66001,34.659987 0.26232836 0 0 0.2264,0.3995 34.659987,34.659987 0 0 0 0.01,0.019 34.66001,34.659987 0.26232836 0 0 0.013,0.021 34.66001,34.659987 0.26232836 0 0 0.04,0.068 34.659987,34.659987 0 0 0 0.013,0.023 34.66001,34.659987 0.26232836 0 0 0.01,0.014 34.659987,34.659987 0 0 0 0.049,0.084 34.66001,34.659987 0.26232836 0 0 0.059,0.1013 34.66001,34.659987 0.26232836 0 0 0.011,0.02 34.659987,34.659987 0 0 0 0.05,0.084 34.66001,34.659987 0.26232836 0 0 0.3127,0.5151 34.659987,34.659987 0 0 0 0.01,0.014 34.66001,34.659987 0.26232836 0 0 0.011,0.019 34.659987,34.659987 0 0 0 0.051,0.083 34.66001,34.659987 0.26232836 0 0 0.1445,0.2294 34.659987,34.659987 0 0 0 0.052,0.081 34.66001,34.659987 0.26232836 0 0 0.1326,0.2059 34.66001,34.659987 0.26232836 0 0 0.014,0.022 34.659987,34.659987 0 0 0 0.053,0.081 34.66001,34.659987 0.26232836 0 0 0.4669,0.6947 34.659987,34.659987 0 0 0 0.019,0.027 34.66001,34.659987 0.26232836 0 0 0.01,0.014 34.659987,34.659987 0 0 0 0.055,0.08 34.66001,34.659987 0.26232836 0 0 0.7186,0.9947 34.66001,34.659987 0.26232836 0 0 0.015,0.02 34.659987,34.659987 0 0 0 0.058,0.077 34.66001,34.659987 0.26232836 0 0 0.015,0.02 34.659987,34.659987 0 0 0 0.059,0.077 34.66001,34.659987 0.26232836 0 0 0.016,0.02 34.659987,34.659987 0 0 0 0.059,0.077 34.66001,34.659987 0.26232836 0 0 0.1301,0.1686 34.659987,34.659987 0 0 0 0.03,0.039 34.66001,34.659987 0.26232836 0 0 0.01,0.014 34.659987,34.659987 0 0 0 0.06,0.077 34.66001,34.659987 0.26232836 0 0 0.5342,0.6648 34.659987,34.659987 0 0 0 0.01,0.014 34.66001,34.659987 0.26232836 0 0 0.014,0.017 34.659987,34.659987 0 0 0 0.062,0.074 34.66001,34.659987 0.26232836 0 0 0.2167,0.2588 34.659987,34.659987 0 0 0 0.035,0.041 34.659987,34.659987 0 0 0 0.063,0.074 34.66001,34.659987 0.26232836 0 0 0.3825,0.4401 34.659987,34.659987 0 0 0 0.029,0.033 34.66001,34.659987 0.26232836 0 0 0.3887,0.4311 34.659987,34.659987 0 0 0 0.019,0.02 34.66001,34.659987 0.26232836 0 0 0.013,0.014 34.659987,34.659987 0 0 0 0.066,0.071 34.66001,34.659987 0.26232836 0 0 0.3926,0.4179 34.659987,34.659987 0 0 0 0.042,0.044 34.659987,34.659987 0 0 0 0.067,0.07 34.66001,34.659987 0.26232836 0 0 0.249,0.2556 34.659987,34.659987 0 0 0 0.016,0.017 34.66001,34.659987 0.26232836 0 0 0.01,0.014 34.659987,34.659987 0 0 0 0.068,0.069 34.66001,34.659987 0.26232836 0 0 0.7817,0.7635 34.659987,34.659987 0 0 0 0.01,0.014 34.66001,34.659987 0.26232836 0 0 0.1751,0.1644 34.66001,34.659987 0.26232836 0 0 0.6205,0.5644 34.659987,34.659987 0 0 0 0.022,0.02 34.66001,34.659987 0.26232836 0 0 0.055,0.049 34.659987,34.659987 0 0 0 0.037,0.033 34.66001,34.659987 0.26232836 0 0 0.06,0.053 34.659987,34.659987 0 0 0 0.029,0.026 34.66001,34.659987 0.26232836 0 0 0.015,0.014 34.659987,34.659987 0 0 0 0.073,0.064 34.66001,34.659987 0.26232836 0 0 0.3352,0.2874 34.659987,34.659987 0 0 0 0.053,0.044 34.659987,34.659987 0 0 0 0.074,0.063 34.66001,34.659987 0.26232836 0 0 0.1635,0.1357 34.659987,34.659987 0 0 0 0.041,0.034 34.659987,34.659987 0 0 0 0.075,0.061 34.66001,34.659987 0.26232836 0 0 0.5624,0.4512 34.659987,34.659987 0 0 0 0.017,0.014 34.66001,34.659987 0.26232836 0 0 0.015,0.014 34.659987,34.659987 0 0 0 0.077,0.06 34.66001,34.659987 0.26232836 0 0 0.088,0.069 34.659987,34.659987 0 0 0 0.013,0.014 34.66001,34.659987 0.26232836 0 0 0.016,0.014 34.659987,34.659987 0 0 0 0.077,0.059 34.66001,34.659987 0.26232836 0 0 0.094,0.071 34.66001,34.659987 0.26232836 0 0 0.019,0.014 34.659987,34.659987 0 0 0 0.078,0.058 34.66001,34.659987 0.26232836 0 0 0.1184,0.089 34.659987,34.659987 0 0 0 0.078,0.058 34.66001,34.659987 0.26232836 0 0 0.1191,0.089 34.659987,34.659987 0 0 0 0.078,0.057 34.66001,34.659987 0.26232836 0 0 0.785,0.5598 34.659987,34.659987 0 0 0 0.022,0.016 34.66001,34.659987 0.26232836 0 0 0.059,0.041 34.659987,34.659987 0 0 0 0.044,0.03 34.66001,34.659987 0.26232836 0 0 0.075,0.051 34.659987,34.659987 0 0 0 0.02,0.014 34.66001,34.659987 0.26232836 0 0 0.017,0.014 34.659987,34.659987 0 0 0 0.081,0.054 34.66001,34.659987 0.26232836 0 0 0.1969,0.1313 34.659987,34.659987 0 0 0 0.01,0 34.66001,34.659987 0.26232836 0 0 0.083,0.056 34.659987,34.659987 0 0 0 0.022,0.014 34.66001,34.659987 0.26232836 0 0 0.016,0.014 34.659987,34.659987 0 0 0 0.081,0.053 34.66001,34.659987 0.26232836 0 0 0.021,0.014 34.659987,34.659987 0 0 0 0.081,0.053 34.66001,34.659987 0.26232836 0 0 0.5391,0.3439 34.659987,34.659987 0 0 0 0.083,0.051 34.66001,34.659987 0.26232836 0 0 0.022,0.014 34.659987,34.659987 0 0 0 0.083,0.051 34.66001,34.659987 0.26232836 0 0 0.2314,0.1413 34.659987,34.659987 0 0 0 0.083,0.05 34.66001,34.659987 0.26232836 0 0 0.1798,0.107 34.659987,34.659987 0 0 0 0.043,0.026 34.66001,34.659987 0.26232836 0 0 0.01,0 34.659987,34.659987 0 0 0 0.084,0.049 34.66001,34.659987 0.26232836 0 0 0.2344,0.1356 34.659987,34.659987 0 0 0 0.018,0.014 34.66001,34.659987 0.26232836 0 0 0.1954,0.1113 34.659987,34.659987 0 0 0 0.018,0.014 34.66001,34.659987 0.26232836 0 0 0.2069,0.1156 34.659987,34.659987 0 0 0 0.054,0.03 34.66001,34.659987 0.26232836 0 0 0.05,0.027 34.659987,34.659987 0 0 0 0.052,0.029 34.66001,34.659987 0.26232836 0 0 0.065,0.036 34.659987,34.659987 0 0 0 0.01,0 34.66001,34.659987 0.26232836 0 0 0.4196,0.226 34.659987,34.659987 0 0 0 0.044,0.023 34.66001,34.659987 0.26232836 0 0 0.055,0.028 34.659987,34.659987 0 0 0 0.018,0.014 34.66001,34.659987 0.26232836 0 0 0.1068,0.056 34.659987,34.659987 0 0 0 0.01,0 34.66001,34.659987 0.26232836 0 0 0.1951,0.1013 34.659987,34.659987 0 0 0 0.018,0.014 34.66001,34.659987 0.26232836 0 0 0.3265,0.1647 34.659987,34.659987 0 0 0 0.021,0.014 34.66001,34.659987 0.26232836 0 0 0.083,0.041 34.659987,34.659987 0 0 0 0.037,0.019 34.66001,34.659987 0.26232836 0 0 0.063,0.032 34.659987,34.659987 0 0 0 0.019,0.014 34.66001,34.659987 0.26232836 0 0 0.094,0.046 34.659987,34.659987 0 0 0 0.073,0.036 34.66001,34.659987 0.26232836 0 0 0.05,0.024 34.659987,34.659987 0 0 0 0.011,0 34.66001,34.659987 0.26232836 0 0 0.4252,0.2005 34.659987,34.659987 0 0 0 0.032,0.016 34.66001,34.659987 0.26232836 0 0 0.9894,0.4387 34.66001,34.659987 0.26232836 0 0 0.2067,0.087 34.659987,34.659987 0 0 0 0.019,0.014 34.66001,34.659987 0.26232836 0 0 0.5596,0.2274 34.659987,34.659987 0 0 0 0.044,0.017 34.66001,34.659987 0.26232836 0 0 0.061,0.024 34.659987,34.659987 0 0 0 0.019,0.014 34.66001,34.659987 0.26232836 0 0 0.9106,0.3424 34.659987,34.659987 0 0 0 0.039,0.014 34.66001,34.659987 0.26232836 0 0 0.066,0.024 34.659987,34.659987 0 0 0 0.019,0 34.66001,34.659987 0.26232836 0 0 0.4566,0.1587 34.659987,34.659987 0 0 0 0.031,0.014 34.66001,34.659987 0.26232836 0 0 0.207,0.07 34.659987,34.659987 0 0 0 0.01,0 34.66001,34.659987 0.26232836 0 0 0.2131,0.07 34.659987,34.659987 0 0 0 0.044,0.014 34.66001,34.659987 0.26232836 0 0 0.1908,0.061 34.659987,34.659987 0 0 0 0.074,0.023 34.66001,34.659987 0.26232836 0 0 0.045,0.014 34.659987,34.659987 0 0 0 0.037,0.014 34.66001,34.659987 0.26232836 0 0 0.087,0.027 34.66001,34.659987 0.26232836 0 0 0.098,0.03 34.659987,34.659987 0 0 0 0.052,0.016 34.66001,34.659987 0.26232836 0 0 0.5398,0.159 34.659987,34.659987 0 0 0 0.058,0.017 34.66001,34.659987 0.26232836 0 0 0.057,0.016 34.659987,34.659987 0 0 0 0.02,0 34.66001,34.659987 0.26232836 0 0 0.2168,0.06 34.659987,34.659987 0 0 0 0.02,0 34.66001,34.659987 0.26232836 0 0 0.5737,0.1517 34.659987,34.659987 0 0 0 0.02,0 34.66001,34.659987 0.26232836 0 0 0.1099,0.029 34.659987,34.659987 0 0 0 0.049,0.014 34.66001,34.659987 0.26232836 0 0 0.073,0.019 34.659987,34.659987 0 0 0 0.022,0 34.66001,34.659987 0.26232836 0 0 0.4453,0.1071 34.659987,34.659987 0 0 0 0.068,0.016 34.66001,34.659987 0.26232836 0 0 0.047,0.014 34.659987,34.659987 0 0 0 0.02,0 34.66001,34.659987 0.26232836 0 0 0.8352,0.1802 34.659987,34.659987 0 0 0 0.021,0 34.66001,34.659987 0.26232836 0 0 0.2115,0.041 34.659987,34.659987 0 0 0 0.054,0.014 34.66001,34.659987 0.26232836 0 0 0.078,0.014 34.659987,34.659987 0 0 0 0.01,0 34.66001,34.659987 0.26232836 0 0 0.2333,0.044 34.659987,34.659987 0 0 0 0.016,0 34.66001,34.659987 0.26232836 0 0 0.087,0.016 34.659987,34.659987 0 0 0 0.02,0 34.66001,34.659987 0.26232836 0 0 0.7115,0.1213 34.659987,34.659987 0 0 0 0.054,0.014 34.66001,34.659987 0.26232836 0 0 0.187,0.029 34.659987,34.659987 0 0 0 0.08,0.014 34.66001,34.659987 0.26232836 0 0 0.048,0.014 34.659987,34.659987 0 0 0 0.01,0 34.66001,34.659987 0.26232836 0 0 0.1013,0.014 34.659987,34.659987 0 0 0 0.1114,0.016 34.66001,34.659987 0.26232836 0 0 0.013,0 34.659987,34.659987 0 0 0 0.066,0.014 34.66001,34.659987 0.26232836 0 0 0.053,0.014 34.659987,34.659987 0 0 0 0.02,0 34.66001,34.659987 0.26232836 0 0 0.2412,0.033 34.659987,34.659987 0 0 0 0.01,0 34.66001,34.659987 0.26232836 0 0 0.2262,0.029 34.659987,34.659987 0 0 0 0.025,0 34.66001,34.659987 0.26232836 0 0 0.3465,0.04 34.659987,34.659987 0 0 0 0.034,0 34.66001,34.659987 0.26232836 0 0 0.5826,0.06 34.66001,34.659987 0.26232836 0 0 0.2276,0.02 34.659987,34.659987 0 0 0 0.028,0 34.66001,34.659987 0.26232836 0 0 0.3448,0.029 34.659987,34.659987 0 0 0 0.038,0 34.66001,34.659987 0.26232836 0 0 0.3344,0.023 34.659987,34.659987 0 0 0 0.013,0 34.66001,34.659987 0.26232836 0 0 0.226,0.014 34.659987,34.659987 0 0 0 0.042,0 34.66001,34.659987 0.26232836 0 0 0.33,0.017 34.659987,34.659987 0 0 0 0.02,0 34.66001,34.659987 0.26232836 0 0 0.5771,0.021 34.659987,34.659987 0 0 0 0.021,0 34.66001,34.659987 0.26232836 0 0 0.2334,0 34.659987,34.659987 0 0 0 0.049,0 34.66001,34.659987 0.26232836 0 0 0.5559,0.014 34.659987,34.659987 0 0 0 0.061,0 34.66001,34.659987 0.26232836 0 0 0.062,0 34.659987,34.659987 0 0 0 0.02,0 34.66001,34.659987 0.26232836 0 0 0.1845,0 34.659987,34.659987 0 0 0 0.061,0 34.66001,34.659987 0.26232836 0 0 0.2456,0 34.659987,34.659987 0 0 0 0.1228,0 34.66001,34.659987 0.26232836 0 0 0.1226,0 34.659987,34.659987 0 0 0 0.1152,0 34.66001,34.659987 0.26232836 0 0 0.3552,-0.014 34.659987,34.659987 0 0 0 0.018,0 34.659987,34.659987 0 0 0 0.2248,-0.014 34.66001,34.659987 0.26232836 0 0 0.02,0 34.659987,34.659987 0 0 0 0.025,0 34.66001,34.659987 0.26232836 0 0 0.4659,-0.023 34.659987,34.659987 0 0 0 0.1133,0 34.66001,34.659987 0.26232836 0 0 0.4994,-0.033 34.659987,34.659987 0 0 0 0.1121,-0.014 34.66001,34.659987 0.26232836 0 0 0.2552,-0.02 34.659987,34.659987 0 0 0 0.1175,-0.014 34.66001,34.659987 0.26232836 0 0 0.1272,-0.014 34.659987,34.659987 0 0 0 0.1101,-0.014 34.66001,34.659987 0.26232836 0 0 0.05,0 34.659987,34.659987 0 0 0 0.1867,-0.019 34.66001,34.659987 0.26232836 0 0 0.02,0 34.659987,34.659987 0 0 0 0.1017,-0.014 34.66001,34.659987 0.26232836 0 0 0.02,0 34.659987,34.659987 0 0 0 0.01,0 34.66001,34.659987 0.26232836 0 0 0.1135,-0.014 34.659987,34.659987 0 0 0 0.1119,-0.014 34.66001,34.659987 0.26232836 0 0 0.2541,-0.03 34.659987,34.659987 0 0 0 0.1168,-0.014 34.66001,34.659987 0.26232836 0 0 0.35,-0.044 34.659987,34.659987 0 0 0 0.1218,-0.016 34.66001,34.659987 0.26232836 0 0 0.083,-0.014 34.659987,34.659987 0 0 0 0.051,-0.014 34.66001,34.659987 0.26232836 0 0 0.1292,-0.019 34.659987,34.659987 0 0 0 0.1065,-0.016 34.66001,34.659987 0.26232836 0 0 0.056,-0.014 34.659987,34.659987 0 0 0 0.08,-0.014 34.66001,34.659987 0.26232836 0 0 0.101,-0.016 34.66001,34.659987 0.26232836 0 0 0.018,0 34.659987,34.659987 0 0 0 0.1101,-0.017 34.66001,34.659987 0.26232836 0 0 0.3545,-0.059 34.659987,34.659987 0 0 0 0.02,0 34.66001,34.659987 0.26232836 0 0 0.4633,-0.081 34.659987,34.659987 0 0 0 0.013,0 34.66001,34.659987 0.26232836 0 0 0.025,0 34.659987,34.659987 0 0 0 0.082,-0.016 34.66001,34.659987 0.26232836 0 0 0.02,0 34.659987,34.659987 0 0 0 0.2395,-0.046 34.66001,34.659987 0.26232836 0 0 0.1221,-0.024 34.659987,34.659987 0 0 0 0.1073,-0.021 34.66001,34.659987 0.26232836 0 0 0.041,-0.014 34.659987,34.659987 0 0 0 0.072,-0.014 34.66001,34.659987 0.26232836 0 0 0.1403,-0.03 34.659987,34.659987 0 0 0 0.1,-0.021 34.66001,34.659987 0.26232836 0 0 0.02,0 34.659987,34.659987 0 0 0 0.019,0 34.66001,34.659987 0.26232836 0 0 0.341,-0.076 34.659987,34.659987 0 0 0 0.1048,-0.024 34.66001,34.659987 0.26232836 0 0 0.067,-0.016 34.659987,34.659987 0 0 0 0.063,-0.014 34.66001,34.659987 0.26232836 0 0 0.3625,-0.087 34.659987,34.659987 0 0 0 0.082,-0.02 34.66001,34.659987 0.26232836 0 0 0.017,0 34.659987,34.659987 0 0 0 0.02,0 34.66001,34.659987 0.26232836 0 0 0.055,-0.014 34.659987,34.659987 0 0 0 0.062,-0.016 34.66001,34.659987 0.26232836 0 0 0.1766,-0.046 34.659987,34.659987 0 0 0 0.063,-0.016 34.66001,34.659987 0.26232836 0 0 0.2376,-0.063 34.659987,34.659987 0 0 0 0.1157,-0.031 34.659987,34.659987 0 0 0 0.1043,-0.029 34.66001,34.659987 0.26232836 0 0 0.3492,-0.097 34.659987,34.659987 0 0 0 0.01,0 34.66001,34.659987 0.26232836 0 0 0.059,-0.017 34.659987,34.659987 0 0 0 0.073,-0.021 34.66001,34.659987 0.26232836 0 0 0.1179,-0.034 34.659987,34.659987 0 0 0 0.098,-0.029 34.66001,34.659987 0.26232836 0 0 0.02,0 34.659987,34.659987 0 0 0 0.098,-0.03 34.66001,34.659987 0.26232836 0 0 0.02,0 34.659987,34.659987 0 0 0 0.1077,-0.033 34.66001,34.659987 0.26232836 0 0 0.032,-0.014 34.659987,34.659987 0 0 0 0.1957,-0.06 34.66001,34.659987 0.26232836 0 0 0.059,-0.019 34.659987,34.659987 0 0 0 0.075,-0.024 34.66001,34.659987 0.26232836 0 0 0.098,-0.031 34.66001,34.659987 0.26232836 0 0 0.015,0 34.659987,34.659987 0 0 0 0.11,-0.036 34.66001,34.659987 0.26232836 0 0 0.104,-0.034 34.659987,34.659987 0 0 0 0.1362,-0.046 34.66001,34.659987 0.26232836 0 0 0.1164,-0.038 34.659987,34.659987 0 0 0 0.1065,-0.036 34.66001,34.659987 0.26232836 0 0 0.043,-0.014 34.659987,34.659987 0 0 0 0.064,-0.021 34.66001,34.659987 0.26232836 0 0 0.019,0 34.66001,34.659987 0.26232836 0 0 0.3463,-0.1214 34.659987,34.659987 0 0 0 0.099,-0.036 34.66001,34.659987 0.26232836 0 0 0.059,-0.022 34.659987,34.659987 0 0 0 0.054,-0.02 34.66001,34.659987 0.26232836 0 0 0.3648,-0.1357 34.659987,34.659987 0 0 0 0.096,-0.036 34.66001,34.659987 0.26232836 0 0 0.019,-0.014 34.659987,34.659987 0 0 0 0.095,-0.036 34.66001,34.659987 0.26232836 0 0 0.019,-0.014 34.659987,34.659987 0 0 0 0.035,-0.014 34.66001,34.659987 0.26232836 0 0 0.079,-0.031 34.659987,34.659987 0 0 0 0.095,-0.037 34.66001,34.659987 0.26232836 0 0 0.046,-0.018 34.659987,34.659987 0 0 0 0.078,-0.031 34.66001,34.659987 0.26232836 0 0 0.04,-0.016 34.659987,34.659987 0 0 0 0.084,-0.033 34.66001,34.659987 0.26232836 0 0 0.1139,-0.046 34.659987,34.659987 0 0 0 0.1057,-0.043 34.66001,34.659987 0.26232836 0 0 0.01,0 34.659987,34.659987 0 0 0 0.099,-0.04 34.66001,34.659987 0.26232836 0 0 0.015,0 34.659987,34.659987 0 0 0 0.1059,-0.044 34.66001,34.659987 0.26232836 0 0 0.1016,-0.043 34.659987,34.659987 0 0 0 0.1304,-0.056 34.66001,34.659987 0.26232836 0 0 0.011,0 34.659987,34.659987 0 0 0 0.099,-0.043 34.659987,34.659987 0 0 0 0.1008,-0.043 34.66001,34.659987 0.26232836 0 0 0.011,0 34.659987,34.659987 0 0 0 0.112,-0.049 34.659987,34.659987 0 0 0 0.093,-0.041 34.66001,34.659987 0.26232836 0 0 0.019,-0.014 34.659987,34.659987 0 0 0 0.033,-0.014 34.66001,34.659987 0.26232836 0 0 0.3029,-0.1356 34.659987,34.659987 0 0 0 0.2061,-0.094 34.66001,34.659987 0.26232836 0 0 0.057,-0.027 34.659987,34.659987 0 0 0 0.071,-0.033 34.66001,34.659987 0.26232836 0 0 0.1112,-0.053 34.659987,34.659987 0 0 0 0.1065,-0.05 34.659987,34.659987 0 0 0 0.1108,-0.053 34.66001,34.659987 0.26232836 0 0 0.054,-0.026 34.659987,34.659987 0 0 0 0.057,-0.027 34.66001,34.659987 0.26232836 0 0 0.3304,-0.1626 34.659987,34.659987 0 0 0 0.1052,-0.053 34.659987,34.659987 0 0 0 0.091,-0.046 34.66001,34.659987 0.26232836 0 0 0.018,-0.014 34.659987,34.659987 0 0 0 0.093,-0.047 34.66001,34.659987 0.26232836 0 0 0.06,-0.031 34.659987,34.659987 0 0 0 0.1636,-0.084 34.66001,34.659987 0.26232836 0 0 0.05,-0.026 34.659987,34.659987 0 0 0 0.052,-0.027 34.66001,34.659987 0.26232836 0 0 0.1086,-0.057 34.659987,34.659987 0 0 0 0.018,-0.014 34.66001,34.659987 0.26232836 0 0 0.078,-0.041 34.659987,34.659987 0 0 0 0.013,0 34.66001,34.659987 0.26232836 0 0 0.018,-0.014 34.659987,34.659987 0 0 0 0.034,-0.019 34.66001,34.659987 0.26232836 0 0 0.1821,-0.099 34.659987,34.659987 0 0 0 0.092,-0.05 34.66001,34.659987 0.26232836 0 0 0.055,-0.03 34.659987,34.659987 0 0 0 0.061,-0.034 34.66001,34.659987 0.26232836 0 0 0.096,-0.053 34.659987,34.659987 0 0 0 0.018,-0.014 34.66001,34.659987 0.26232836 0 0 0.08,-0.044 34.659987,34.659987 0 0 0 0.01,0 34.66001,34.659987 0.26232836 0 0 0.018,-0.014 34.659987,34.659987 0 0 0 0.089,-0.05 34.66001,34.659987 0.26232836 0 0 0.2533,-0.1449 34.66001,34.659987 0.26232836 0 0 0.084,-0.049 34.659987,34.659987 0 0 0 0.079,-0.046 34.66001,34.659987 0.26232836 0 0 0.026,-0.016 34.659987,34.659987 0 0 0 0.022,-0.014 34.66001,34.659987 0.26232836 0 0 0.09,-0.053 34.659987,34.659987 0 0 0 0.046,-0.027 34.66001,34.659987 0.26232836 0 0 0.158,-0.094 34.659987,34.659987 0 0 0 0.087,-0.053 34.66001,34.659987 0.26232836 0 0 0.023,-0.014 34.659987,34.659987 0 0 0 0.1005,-0.061 34.66001,34.659987 0.26232836 0 0 0.072,-0.044 34.659987,34.659987 0 0 0 0.055,-0.034 34.66001,34.659987 0.26232836 0 0 0.087,-0.054 34.659987,34.659987 0 0 0 0.1,-0.063 34.66001,34.659987 0.26232836 0 0 0.1041,-0.066 34.659987,34.659987 0 0 0 0.1038,-0.066 34.66001,34.659987 0.26232836 0 0 0.2069,-0.1327 34.659987,34.659987 0 0 0 0.1031,-0.067 34.66001,34.659987 0.26232836 0 0 0.1135,-0.074 34.659987,34.659987 0 0 0 0.01,0 34.66001,34.659987 0.26232836 0 0 0.097,-0.064 34.659987,34.659987 0 0 0 0.022,-0.014 34.66001,34.659987 0.26232836 0 0 0.083,-0.056 34.659987,34.659987 0 0 0 0.1042,-0.07 34.66001,34.659987 0.26232836 0 0 0.05,-0.034 34.659987,34.659987 0 0 0 0.031,-0.02 34.66001,34.659987 0.26232836 0 0 0.1063,-0.073 34.659987,34.659987 0 0 0 0.016,-0.014 34.66001,34.659987 0.26232836 0 0 0.091,-0.063 34.659987,34.659987 0 0 0 0.2919,-0.2024 34.66001,34.659987 0.26232836 0 0 0.2007,-0.1414 34.659987,34.659987 0 0 0 0.1,-0.071 34.66001,34.659987 0.26232836 0 0 0.1,-0.071 34.659987,34.659987 0 0 0 0.078,-0.057 34.66001,34.659987 0.26232836 0 0 0.021,-0.016 34.659987,34.659987 0 0 0 0.021,-0.016 34.66001,34.659987 0.26232836 0 0 0.079,-0.057 34.659987,34.659987 0 0 0 0.02,-0.016 34.66001,34.659987 0.26232836 0 0 0.08,-0.06 34.659987,34.659987 0 0 0 0.1172,-0.087 34.66001,34.659987 0.26232836 0 0 0.3841,-0.2907 34.659987,34.659987 0 0 0 0.01,0 34.66001,34.659987 0.26232836 0 0 0.09,-0.07 34.659987,34.659987 0 0 0 0.084,-0.066 34.66001,34.659987 0.26232836 0 0 0.1051,-0.083 34.659987,34.659987 0 0 0 0.088,-0.07 34.66001,34.659987 0.26232836 0 0 0.1923,-0.1528 34.659987,34.659987 0 0 0 0.08,-0.064 34.66001,34.659987 0.26232836 0 0 0.015,-0.014 34.659987,34.659987 0 0 0 0.095,-0.077 34.66001,34.659987 0.26232836 0 0 0.095,-0.077 34.659987,34.659987 0 0 0 0.02,-0.016 34.66001,34.659987 0.26232836 0 0 0.081,-0.067 34.659987,34.659987 0 0 0 0.048,-0.04 34.66001,34.659987 0.26232836 0 0 0.041,-0.034 34.659987,34.659987 0 0 0 0.1139,-0.096 34.66001,34.659987 0.26232836 0 0 0.092,-0.077 34.659987,34.659987 0 0 0 0.076,-0.064 34.66001,34.659987 0.26232836 0 0 0.2796,-0.2399 34.659987,34.659987 0 0 0 0.064,-0.056 34.66001,34.659987 0.26232836 0 0 0.042,-0.037 34.659987,34.659987 0 0 0 0.079,-0.069 34.66001,34.659987 0.26232836 0 0 0.1014,-0.09 34.659987,34.659987 0 0 0 0.082,-0.073 34.66001,34.659987 0.26232836 0 0 0.091,-0.081 34.659987,34.659987 0 0 0 0.019,-0.017 34.66001,34.659987 0.26232836 0 0 0.1631,-0.1477 34.659987,34.659987 0 0 0 0.061,-0.056 34.66001,34.659987 0.26232836 0 0 0.03,-0.027 34.659987,34.659987 0 0 0 0.086,-0.079 34.659987,34.659987 0 0 0 0.068,-0.063 34.66001,34.659987 0.26232836 0 0 0.022,-0.02 34.659987,34.659987 0 0 0 0.09,-0.084 34.66001,34.659987 0.26232836 0 0 0.089,-0.084 34.659987,34.659987 0 0 0 0.089,-0.084 34.66001,34.659987 0.26232836 0 0 0.5285,-0.5133 34.659987,34.659987 0 0 0 0.051,-0.05 34.66001,34.659987 0.26232836 0 0 0.036,-0.036 34.659987,34.659987 0 0 0 0.018,-0.019 34.66001,34.659987 0.26232836 0 0 0.069,-0.068 34.659987,34.659987 0 0 0 0.018,-0.019 34.66001,34.659987 0.26232836 0 0 0.074,-0.076 34.659987,34.659987 0 0 0 0.08,-0.081 34.66001,34.659987 0.26232836 0 0 0.086,-0.089 34.659987,34.659987 0 0 0 0.085,-0.089 34.66001,34.659987 0.26232836 0 0 0.103,-0.1071 34.659987,34.659987 0 0 0 0.085,-0.089 34.66001,34.659987 0.26232836 0 0 0.067,-0.071 34.659987,34.659987 0 0 0 0.017,-0.019 34.66001,34.659987 0.26232836 0 0 0.067,-0.071 34.659987,34.659987 0 0 0 0.017,-0.019 34.66001,34.659987 0.26232836 0 0 0.2332,-0.2514 34.659987,34.659987 0 0 0 0.054,-0.058 34.66001,34.659987 0.26232836 0 0 0.029,-0.031 34.659987,34.659987 0 0 0 0.017,-0.019 34.66001,34.659987 0.26232836 0 0 0.065,-0.071 34.659987,34.659987 0 0 0 0.05,-0.056 34.66001,34.659987 0.26232836 0 0 0.032,-0.036 34.659987,34.659987 0 0 0 0.082,-0.091 34.66001,34.659987 0.26232836 0 0 0.085,-0.096 34.659987,34.659987 0 0 0 0.078,-0.088 34.66001,34.659987 0.26232836 0 0 0.081,-0.093 34.659987,34.659987 0 0 0 0.07,-0.08 34.66001,34.659987 0.26232836 0 0 0.011,-0.014 34.659987,34.659987 0 0 0 0.07,-0.081 34.66001,34.659987 0.26232836 0 0 0.01,-0.014 34.659987,34.659987 0 0 0 0.017,-0.02 34.66001,34.659987 0.26232836 0 0 0.063,-0.074 34.659987,34.659987 0 0 0 0.043,-0.05 34.66001,34.659987 0.26232836 0 0 0.053,-0.063 34.659987,34.659987 0 0 0 0.079,-0.094 34.66001,34.659987 0.26232836 0 0 0.063,-0.074 34.659987,34.659987 0 0 0 0.016,-0.02 34.66001,34.659987 0.26232836 0 0 0.1569,-0.189 34.659987,34.659987 0 0 0 0.035,-0.043 34.66001,34.659987 0.26232836 0 0 0.027,-0.033 34.659987,34.659987 0 0 0 0.016,-0.02 34.66001,34.659987 0.26232836 0 0 0.1388,-0.1707 34.659987,34.659987 0 0 0 0.041,-0.051 34.66001,34.659987 0.26232836 0 0 0.036,-0.044 34.659987,34.659987 0 0 0 0.05,-0.063 34.66001,34.659987 0.26232836 0 0 0.026,-0.033 34.659987,34.659987 0 0 0 0.039,-0.049 34.66001,34.659987 0.26232836 0 0 0.038,-0.047 34.659987,34.659987 0 0 0 0.058,-0.074 34.66001,34.659987 0.26232836 0 0 0.017,-0.023 34.659987,34.659987 0 0 0 0.016,-0.02 34.66001,34.659987 0.26232836 0 0 0.013,-0.017 34.659987,34.659987 0 0 0 0.1691,-0.2179 34.66001,34.659987 0.26232836 0 0 0.028,-0.037 34.659987,34.659987 0 0 0 0.016,-0.02 34.66001,34.659987 0.26232836 0 0 0.059,-0.077 34.659987,34.659987 0 0 0 0.067,-0.089 34.66001,34.659987 0.26232836 0 0 0.01,-0.014 34.659987,34.659987 0 0 0 0.042,-0.056 34.66001,34.659987 0.26232836 0 0 0.032,-0.043 34.659987,34.659987 0 0 0 0.089,-0.1185 34.66001,34.659987 0.26232836 0 0 0.058,-0.079 34.659987,34.659987 0 0 0 0.015,-0.02 34.66001,34.659987 0.26232836 0 0 0.058,-0.079 34.659987,34.659987 0 0 0 0.015,-0.02 34.66001,34.659987 0.26232836 0 0 0.2014,-0.2775 34.659987,34.659987 0 0 0 0.05,-0.07 34.66001,34.659987 0.26232836 0 0 0.021,-0.03 34.659987,34.659987 0 0 0 0.071,-0.1 34.66001,34.659987 0.26232836 0 0 0.071,-0.1 34.659987,34.659987 0 0 0 0.038,-0.054 34.66001,34.659987 0.26232836 0 0 0.033,-0.047 34.659987,34.659987 0 0 0 0.045,-0.064 34.66001,34.659987 0.26232836 0 0 0.032,-0.046 34.659987,34.659987 0 0 0 0.03,-0.043 34.66001,34.659987 0.26232836 0 0 0.034,-0.048 34.659987,34.659987 0 0 0 0.014,-0.021 34.66001,34.659987 0.26232836 0 0 0.1926,-0.2838 34.659987,34.659987 0 0 0 0.014,-0.021 34.66001,34.659987 0.26232836 0 0 0.054,-0.081 34.659987,34.659987 0 0 0 0.034,-0.051 34.66001,34.659987 0.26232836 0 0 0.034,-0.051 34.659987,34.659987 0 0 0 0.082,-0.1241 34.66001,34.659987 0.26232836 0 0 0.053,-0.081 34.659987,34.659987 0 0 0 0.035,-0.054 34.66001,34.659987 0.26232836 0 0 0.044,-0.069 34.659987,34.659987 0 0 0 0.1112,-0.1737 34.66001,34.659987 0.26232836 0 0 0.2163,-0.3445 34.659987,34.659987 0 0 0 0.014,-0.023 34.66001,34.659987 0.26232836 0 0 0.039,-0.063 34.659987,34.659987 0 0 0 0.013,-0.021 34.66001,34.659987 0.26232836 0 0 0.1146,-0.1879 34.659987,34.659987 0 0 0 0.013,-0.021 34.66001,34.659987 0.26232836 0 0 0.1133,-0.1886 34.659987,34.659987 0 0 0 0.033,-0.056 34.66001,34.659987 0.26232836 0 0 0.041,-0.069 34.659987,34.659987 0 0 0 0.01,-0.014 34.66001,34.659987 0.26232836 0 0 0.045,-0.076 34.659987,34.659987 0 0 0 0.013,-0.021 34.66001,34.659987 0.26232836 0 0 0.049,-0.084 34.659987,34.659987 0 0 0 0.014,-0.024 34.66001,34.659987 0.26232836 0 0 0.048,-0.083 34.659987,34.659987 0 0 0 0.082,-0.1428 34.659987,34.659987 0 0 0 0.1117,-0.1969 34.66001,34.659987 0.26232836 0 0 0.01,-0.017 34.659987,34.659987 0 0 0 0.05,-0.089 34.66001,34.659987 0.26232836 0 0 0.056,-0.1013 34.659987,34.659987 0 0 0 0,-0.014 34.66001,34.659987 0.26232836 0 0 0.01,-0.016 34.659987,34.659987 0 0 0 0.108,-0.1973 34.66001,34.659987 0.26232836 0 0 0.01,-0.019 34.659987,34.659987 0 0 0 0.049,-0.09 34.66001,34.659987 0.26232836 0 0 0.01,-0.018 34.659987,34.659987 0 0 0 0.048,-0.09 34.66001,34.659987 0.26232836 0 0 0.047,-0.089 34.659987,34.659987 0 0 0 0.015,-0.029 34.66001,34.659987 0.26232836 0 0 0.031,-0.059 34.659987,34.659987 0 0 0 0.022,-0.041 34.66001,34.659987 0.26232836 0 0 0.01,-0.018 34.659987,34.659987 0 0 0 0.055,-0.1057 34.659987,34.659987 0 0 0 0,-0.014 34.66001,34.659987 0.26232836 0 0 0.053,-0.1014 34.659987,34.659987 0 0 0 0.048,-0.094 34.66001,34.659987 0.26232836 0 0 0.01,-0.016 34.659987,34.659987 0 0 0 0.046,-0.091 34.66001,34.659987 0.26232836 0 0 0.046,-0.091 34.659987,34.659987 0 0 0 0.01,-0.019 34.66001,34.659987 0.26232836 0 0 0.01,-0.019 34.659987,34.659987 0 0 0 0.053,-0.1071 34.659987,34.659987 0 0 0 0.052,-0.1056 34.659987,34.659987 0 0 0 0.054,-0.1099 34.66001,34.659987 0.26232836 0 0 0.1601,-0.3318 34.659987,34.659987 0 0 0 0.044,-0.093 34.66001,34.659987 0.26232836 0 0 0.01,-0.018 34.659987,34.659987 0 0 0 0.095,-0.2039 34.66001,34.659987 0.26232836 0 0 0.1112,-0.242 34.659987,34.659987 0 0 0 0.01,-0.021 34.66001,34.659987 0.26232836 0 0 0.041,-0.09 34.659987,34.659987 0 0 0 0.042,-0.093 34.66001,34.659987 0.26232836 0 0 0.02,-0.046 34.659987,34.659987 0 0 0 0.029,-0.066 34.66001,34.659987 0.26232836 0 0 0.01,-0.019 34.659987,34.659987 0 0 0 0.041,-0.093 34.66001,34.659987 0.26232836 0 0 0.01,-0.018 34.659987,34.659987 0 0 0 0.07,-0.1609 34.66001,34.659987 0.26232836 0 0 0.028,-0.064 34.659987,34.659987 0 0 0 0.046,-0.1084 34.659987,34.659987 0 0 0 0.087,-0.2072 34.66001,34.659987 0.26232836 0 0 0.01,-0.018 34.659987,34.659987 0 0 0 0.086,-0.2082 34.66001,34.659987 0.26232836 0 0 0.024,-0.06 34.659987,34.659987 0 0 0 0.03,-0.073 34.66001,34.659987 0.26232836 0 0 0.046,-0.1142 34.659987,34.659987 0 0 0 0.042,-0.1057 34.66001,34.659987 0.26232836 0 0 0,-0.014 34.659987,34.659987 0 0 0 0.038,-0.096 34.66001,34.659987 0.26232836 0 0 0.01,-0.018 34.659987,34.659987 0 0 0 0.037,-0.096 34.66001,34.659987 0.26232836 0 0 0.01,-0.02 34.659987,34.659987 0 0 0 0.037,-0.096 34.66001,34.659987 0.26232836 0 0 0.01,-0.02 34.659987,34.659987 0 0 0 0.037,-0.097 34.66001,34.659987 0.26232836 0 0 0.01,-0.017 34.659987,34.659987 0 0 0 0.041,-0.1099 34.659987,34.659987 0 0 0 0.038,-0.1028 34.66001,34.659987 0.26232836 0 0 0,-0.014 34.659987,34.659987 0 0 0 0.035,-0.096 34.66001,34.659987 0.26232836 0 0 0.01,-0.02 34.659987,34.659987 0 0 0 0.079,-0.218 34.66001,34.659987 0.26232836 0 0 0,-0.014 34.659987,34.659987 0 0 0 0.079,-0.2236 34.66001,34.659987 0.26232836 0 0 0,-0.014 34.659987,34.659987 0 0 0 0.034,-0.097 34.66001,34.659987 0.26232836 0 0 0.01,-0.02 34.659987,34.659987 0 0 0 0.034,-0.097 34.66001,34.659987 0.26232836 0 0 0.028,-0.083 34.659987,34.659987 0 0 0 0.015,-0.043 34.66001,34.659987 0.26232836 0 0 0,-0.014 34.659987,34.659987 0 0 0 0.033,-0.097 34.66001,34.659987 0.26232836 0 0 0.01,-0.02 34.659987,34.659987 0 0 0 0.037,-0.1099 34.659987,34.659987 0 0 0 0.07,-0.2139 34.66001,34.659987 0.26232836 0 0 0.01,-0.02 34.659987,34.659987 0 0 0 0.031,-0.097 34.66001,34.659987 0.26232836 0 0 0.01,-0.02 34.659987,34.659987 0 0 0 0.071,-0.2237 34.66001,34.659987 0.26232836 0 0 0.04,-0.1285 34.659987,34.659987 0 0 0 0.03,-0.097 34.66001,34.659987 0.26232836 0 0 0.01,-0.02 34.659987,34.659987 0 0 0 0.03,-0.099 34.66001,34.659987 0.26232836 0 0 0.01,-0.02 34.659987,34.659987 0 0 0 0.029,-0.098 34.66001,34.659987 0.26232836 0 0 0.01,-0.02 34.659987,34.659987 0 0 0 0.01,-0.02 34.66001,34.659987 0.26232836 0 0 0.063,-0.2152 34.659987,34.659987 0 0 0 0.028,-0.099 34.66001,34.659987 0.26232836 0 0 0.01,-0.02 34.659987,34.659987 0 0 0 0.061,-0.2166 34.66001,34.659987 0.26232836 0 0 0.01,-0.02 34.659987,34.659987 0 0 0 0.01,-0.019 34.66001,34.659987 0.26232836 0 0 0.06,-0.2179 34.659987,34.659987 0 0 0 0.027,-0.099 34.66001,34.659987 0.26232836 0 0 0.01,-0.02 34.659987,34.659987 0 0 0 0.026,-0.099 34.66001,34.659987 0.26232836 0 0 0.01,-0.02 34.659987,34.659987 0 0 0 0.028,-0.1085 34.66001,34.659987 0.26232836 0 0 0,-0.014 34.659987,34.659987 0 0 0 0.085,-0.337 34.66001,34.659987 0.26232836 0 0 0,-0.02 34.659987,34.659987 0 0 0 0,-0.017 34.66001,34.659987 0.26232836 0 0 0.02,-0.083 34.659987,34.659987 0 0 0 0.032,-0.1328 34.66001,34.659987 0.26232836 0 0 0,-0.014 34.659987,34.659987 0 0 0 0.01,-0.021 34.66001,34.659987 0.26232836 0 0 0.023,-0.097 34.659987,34.659987 0 0 0 0.024,-0.1043 34.66001,34.659987 0.26232836 0 0 0,-0.016 34.659987,34.659987 0 0 0 0.077,-0.339 34.66001,34.659987 0.26232836 0 0 0,-0.02 34.659987,34.659987 0 0 0 0.048,-0.2198 34.66001,34.659987 0.26232836 0 0 0,-0.02 34.659987,34.659987 0 0 0 0.071,-0.3405 34.66001,34.659987 0.26232836 0 0 0.024,-0.1199 34.659987,34.659987 0 0 0 0.024,-0.1199 34.66001,34.659987 0.26232836 0 0 0,-0.02 34.659987,34.659987 0 0 0 0.023,-0.1199 34.659987,34.659987 0 0 0 0.019,-0.1 34.66001,34.659987 0.26232836 0 0 0.013,-0.067 34.659987,34.659987 0 0 0 0.013,-0.067 34.659987,34.659987 0 0 0 0.04,-0.2214 34.66001,34.659987 0.26232836 0 0 0.011,-0.063 34.659987,34.659987 0 0 0 0.013,-0.073 34.659987,34.659987 0 0 0 0.017,-0.1014 34.66001,34.659987 0.26232836 0 0 0,-0.02 34.659987,34.659987 0 0 0 0.017,-0.1014 34.66001,34.659987 0.26232836 0 0 0,-0.02 34.66001,34.659987 0.26232836 0 0 0.019,-0.117 34.659987,34.659987 0 0 0 0.017,-0.1071 34.66001,34.659987 0.26232836 0 0 0,-0.014 34.659987,34.659987 0 0 0 0.027,-0.1717 34.66001,34.659987 0.26232836 0 0 0.01,-0.071 34.659987,34.659987 0 0 0 0.01,-0.041 34.66001,34.659987 0.26232836 0 0 0.01,-0.06 34.659987,34.659987 0 0 0 0.035,-0.243 34.66001,34.659987 0.26232836 0 0 0,-0.02 34.659987,34.659987 0 0 0 0.024,-0.1727 34.66001,34.659987 0.26232836 0 0 0.041,-0.3142 34.659987,34.659987 0 0 0 0.014,-0.1099 34.66001,34.659987 0.26232836 0 0 0.01,-0.057 34.659987,34.659987 0 0 0 0.01,-0.056 34.66001,34.659987 0.26232836 0 0 0,-0.02 34.659987,34.659987 0 0 0 0.026,-0.2235 34.66001,34.659987 0.26232836 0 0 0,-0.02 34.659987,34.659987 0 0 0 0.024,-0.2237 34.66001,34.659987 0.26232836 0 0 0,-0.02 34.659987,34.659987 0 0 0 0.018,-0.1764 34.66001,34.659987 0.26232836 0 0 0.01,-0.067 34.659987,34.659987 0 0 0 0.011,-0.1142 34.66001,34.659987 0.26232836 0 0 0.011,-0.1314 34.659987,34.659987 0 0 0 0.01,-0.1113 34.66001,34.659987 0.26232836 0 0 0.01,-0.059 34.659987,34.659987 0 0 0 0,-0.054 34.66001,34.659987 0.26232836 0 0 0,-0.02 34.659987,34.659987 0 0 0 0.018,-0.2241 34.66001,34.659987 0.26232836 0 0 0,-0.02 34.659987,34.659987 0 0 0 0.016,-0.2278 34.66001,34.659987 0.26232836 0 0 0,-0.068 34.659987,34.659987 0 0 0 0,-0.05 34.66001,34.659987 0.26232836 0 0 0,-0.02 34.659987,34.659987 0 0 0 0.014,-0.2245 34.66001,34.659987 0.26232836 0 0 0,-0.02 34.659987,34.659987 0 0 0 0.013,-0.2268 34.66001,34.659987 0.26232836 0 0 0,-0.019 34.659987,34.659987 0 0 0 0.01,-0.117 34.659987,34.659987 0 0 0 0.01,-0.2247 34.66001,34.659987 0.26232836 0 0 0,-0.02 l 0.1311,0.076 a 150.1933,150.1933 0 0 1 19.8218,-65.6071 150.1933,150.1933 0 0 1 71.3885,-63.1582 l -0.2713,-0.1566 a 57.766651,57.766651 0 0 0 28.9642,-24.8986 57.766651,57.766651 0 0 0 -21.144,-78.9108 57.766651,57.766651 0 0 0 -28.978,-7.7392 z"
       style="opacity:0.998;fill:#ffffff;fill-opacity:1;stroke:none;stroke-width:1.11312;stroke-linecap:round;stroke-linejoin:round;stroke-miterlimit:4;stroke-dasharray:none;stroke-opacity:1"
       id="path865-7-1-0-8-0"
       inkscape:export-filename="C:\Users\Tiago\Desktop\Projetos\Vish\logo\logo_02.png"
       inkscape:export-xdpi="90"
       inkscape:export-ydpi="90" />
    <text
       xml:space="preserve"
       style="font-style:normal;font-variant:normal;font-weight:normal;font-stretch:normal;font-size:502.685px;line-height:1.25;font-family:Pacifico;-inkscape-font-specification:Pacifico;fill:url(#linearGradient1486-0);fill-opacity:1.0;stroke-width:9.42536"
       x="-946.21997"
       y="2747.0911"
       id="text1478-5"
       inkscape:export-filename="C:\Users\Tiago\Desktop\Projetos\Vish\logo\logo_02.png"
       inkscape:export-xdpi="90"
       inkscape:export-ydpi="90"><tspan
         sodipodi:role="line"
         id="tspan1476-6"
         x="-946.21997"
         y="2747.0911"
         style="font-style:normal;font-variant:normal;font-weight:normal;font-stretch:normal;font-family:Pacifico;-inkscape-font-specification:Pacifico;fill:url(#linearGradient1486-0);fill-opacity:1.0;stroke-width:9.42536">Vish Acabou!</tspan></text>
    <text
       xml:space="preserve"
       style="font-style:normal;font-variant:normal;font-weight:normal;font-stretch:normal;font-size:517.063px;line-height:1.25;font-family:Pacifico;-inkscape-font-specification:Pacifico;fill:url(#linearGradient1486-5);fill-opacity:1.0;stroke-width:9.69494"
       x="-1266.5188"
       y="1703.4462"
       id="text1478-2"><tspan
         sodipodi:role="line"
         id="tspan1476-63"
         x="-1266.5188"
         y="1703.4462"
         style="font-style:normal;font-variant:normal;font-weight:normal;font-stretch:normal;font-family:Pacifico;-inkscape-font-specification:Pacifico;fill:url(#linearGradient1486-5);fill-opacity:1.0;stroke-width:9.69494">Vish Acabou!</tspan></text>
  </g>
</svg>
