<?xml version="1.0" encoding="UTF-8" standalone="no"?>
<svg
   xmlns:dc="http://purl.org/dc/elements/1.1/"
   xmlns:cc="http://creativecommons.org/ns#"
   xmlns:rdf="http://www.w3.org/1999/02/22-rdf-syntax-ns#"
   xmlns:svg="http://www.w3.org/2000/svg"
   xmlns="http://www.w3.org/2000/svg"
   xmlns:xlink="http://www.w3.org/1999/xlink"
   xmlns:sodipodi="http://sodipodi.sourceforge.net/DTD/sodipodi-0.dtd"
   xmlns:inkscape="http://www.inkscape.org/namespaces/inkscape"
   sodipodi:docname="vish_logo.svg"
   inkscape:version="0.92.3 (2405546, 2018-03-11)"
   id="svg8"
   version="1.1"
   viewBox="0 0 210 297"
   height="297mm"
   width="210mm">
  <defs
     id="defs2">
    <linearGradient
       inkscape:collect="always"
       id="linearGradient861">
      <stop
         style="stop-color:#ffe247;stop-opacity:1"
         offset="0"
         id="stop857" />
      <stop
         style="stop-color:#ff5f5f;stop-opacity:1"
         offset="1"
         id="stop859" />
    </linearGradient>
    <linearGradient
       gradientTransform="matrix(0.02218454,0,0,0.02218454,-1361.8098,2650.5435)"
       gradientUnits="userSpaceOnUse"
       y2="1798.5022"
       x2="-3225.0901"
       y1="-291.70618"
       x1="-3195.1943"
       id="linearGradient1528"
       xlink:href="#linearGradient861"
       inkscape:collect="always" />
    <linearGradient
       inkscape:collect="always"
       xlink:href="#linearGradient861"
       id="linearGradient1528-2"
       x1="-3195.1943"
       y1="-291.70618"
       x2="-3225.0901"
       y2="1798.5022"
       gradientUnits="userSpaceOnUse"
       gradientTransform="matrix(0.00912127,0,0,0.00912127,-1461.2628,2744.154)" />
    <linearGradient
       gradientTransform="matrix(0.04960092,0,0,0.04960092,-1511.6899,2688.6702)"
       inkscape:collect="always"
       xlink:href="#linearGradient861"
       id="linearGradient1486-0"
       x1="1703.5947"
       y1="935.09949"
       x2="1689.5876"
       y2="1657.3147"
       gradientUnits="userSpaceOnUse" />
    <linearGradient
       gradientTransform="matrix(0.05101969,0,0,0.05101969,-1525.2699,2645.5013)"
       inkscape:collect="always"
       xlink:href="#linearGradient861"
       id="linearGradient1486-5"
       x1="1703.5947"
       y1="935.09949"
       x2="1689.5876"
       y2="1657.3147"
       gradientUnits="userSpaceOnUse" />
  </defs>
  <sodipodi:namedview
     inkscape:window-maximized="1"
     inkscape:window-y="-8"
     inkscape:window-x="-8"
     inkscape:window-height="1017"
     inkscape:window-width="1920"
     inkscape:pagecheckerboard="false"
     showborder="false"
     showgrid="false"
     inkscape:document-rotation="0"
     inkscape:current-layer="layer1"
     inkscape:document-units="mm"
     inkscape:cy="-9207.6816"
     inkscape:cx="-5493.5935"
     inkscape:zoom="0.90509668"
     inkscape:pageshadow="2"
     inkscape:pageopacity="0"
     borderopacity="1.0"
     bordercolor="#666666"
     pagecolor="#ffffff"
     id="base"
     showguides="true"
     inkscape:guide-bbox="true" />
  <metadata
     id="metadata5">
    <rdf:RDF>
      <cc:Work
         rdf:about="">
        <dc:format>image/svg+xml</dc:format>
        <dc:type
           rdf:resource="http://purl.org/dc/dcmitype/StillImage" />
        <dc:title />
      </cc:Work>
    </rdf:RDF>
  </metadata>
  <g
     id="layer1"
     inkscape:groupmode="layer"
     inkscape:label="Layer 1">
    <g
       style="opacity:0.998"
       transform="matrix(0.26513935,0,0,0.26513935,4.209339,0.01219326)"
       id="g1318" />
    <path
       transform="scale(0.26458333)"
       id="path1123"
       d=""
       style="opacity:0.998;fill:#0dff00;fill-opacity:1;stroke:#0dff00;stroke-width:30.5432;stroke-linecap:round;stroke-linejoin:round;stroke-miterlimit:4;stroke-dasharray:none;stroke-opacity:1" />
    <circle
       style="opacity:0.99800002;fill:url(#linearGradient1528-2);fill-opacity:1;stroke:none;stroke-width:0.0136167;stroke-linecap:round;stroke-linejoin:miter;stroke-miterlimit:4;stroke-dasharray:none;stroke-opacity:1"
       id="path1520-6"
       cx="-1490.4226"
       cy="2751.0862"
       r="9.5773315"
       inkscape:export-filename="C:\Users\Tiago\Desktop\Projetos\Vish\logo\logo_02.png"
       inkscape:export-xdpi="90"
       inkscape:export-ydpi="90" />
    <path
       d="m -1487.856,2745.6946 a 2.2763,2.2763 0 0 0 -1.9676,1.1382 2.2763,2.2763 0 0 0 -0.2793,1.4791 l -0.014,-0.01 a 5.9183803,5.9183803 0 0 1 -0.7488,3.6805 5.9183803,5.9183803 0 0 1 -1.2387,1.5041 3.5510301,3.5510281 0 0 1 -1.0545,-1.1444 3.5510301,3.5510281 0 0 1 -0.4686,-1.5512 v 0 a 0.81946798,0.8194685 89.851899 0 0 -0.1091,-0.3767 0.81946798,0.8194685 89.851899 0 0 -1.1194,-0.2999 0.81946798,0.8194685 89.851899 0 0 -0.2999,1.1194 0.81946798,0.8194685 89.851899 0 0 0.2716,0.2828 h -0.01 a 3.5510301,3.5510281 0 0 1 1.109,1.1815 3.5510301,3.5510281 0 0 1 0.4493,2.2083 h 0.01 a 1.3657808,1.3657799 0.26232836 0 0 -6e-4,0 1.3657799,1.3657799 0 0 0 -4e-4,0 1.3657808,1.3657799 0.26232836 0 0 -4e-4,0 1.3657799,1.3657799 0 0 0 0,8e-4 1.3657808,1.3657799 0.26232836 0 0 0,0.01 1.3657808,1.3657799 0.26232836 0 0 -5e-4,0 1.3657799,1.3657799 0 0 0 -5e-4,0 1.3657808,1.3657799 0.26232836 0 0 -10e-4,0.01 1.3657799,1.3657799 0 0 0 -4e-4,0 1.3657799,1.3657799 0 0 0 0,8e-4 1.3657808,1.3657799 0.26232836 0 0 0,0.024 1.3657808,1.3657799 0.26232836 0 0 -4e-4,0 1.3657799,1.3657799 0 0 0 -4e-4,0 1.3657808,1.3657799 0.26232836 0 0 -7e-4,0.01 1.3657799,1.3657799 0 0 0 -4e-4,0 1.3657799,1.3657799 0 0 0 0,8e-4 1.3657808,1.3657799 0.26232836 0 0 0,0.063 1.3657799,1.3657799 0 0 0 0,8e-4 1.3657799,1.3657799 0 0 0 0,8e-4 1.3657808,1.3657799 0.26232836 0 0 -4e-4,0.01 1.3657808,1.3657799 0.26232836 0 0 -4e-4,0.013 1.3657808,1.3657799 0.26232836 0 0 0,0.019 1.3657808,1.3657799 0.26232836 0 0 0,0.013 1.3657799,1.3657799 0 0 0 0,8e-4 1.3657808,1.3657799 0.26232836 0 0 0,0.01 1.3657808,1.3657799 0.26232836 0 0 4e-4,0.01 1.3657808,1.3657799 0.26232836 0 0 0,0.048 1.3657808,1.3657799 0.26232836 0 0 4e-4,0 1.3657808,1.3657799 0.26232836 0 0 0,0.018 1.3657799,1.3657799 0 0 0 0,8e-4 1.3657808,1.3657799 0.26232836 0 0 8e-4,0.01 1.3657808,1.3657799 0.26232836 0 0 0,0.037 1.3657799,1.3657799 0 0 0 0,6e-4 1.3657808,1.3657799 0.26232836 0 0 0,0.01 1.3657808,1.3657799 0.26232836 0 0 4e-4,0 1.3657799,1.3657799 0 0 0 0,8e-4 1.3657808,1.3657799 0.26232836 0 0 0,0.019 1.3657799,1.3657799 0 0 0 4e-4,0 1.3657808,1.3657799 0.26232836 0 0 0,0.023 1.3657808,1.3657799 0.26232836 0 0 0,0.013 1.3657799,1.3657799 0 0 0 0,8e-4 1.3657808,1.3657799 0.26232836 0 0 0,0.01 1.3657799,1.3657799 0 0 0 4e-4,0 1.3657808,1.3657799 0.26232836 0 0 5e-4,0 1.3657799,1.3657799 0 0 0 0,7e-4 1.3657808,1.3657799 0.26232836 0 0 0,0.014 1.3657799,1.3657799 0 0 0 7e-4,0 1.3657808,1.3657799 0.26232836 0 0 4e-4,0 1.3657799,1.3657799 0 0 0 0,5e-4 1.3657808,1.3657799 0.26232836 0 0 9e-4,0 1.3657799,1.3657799 0 0 0 4e-4,0 1.3657808,1.3657799 0.26232836 0 0 5e-4,0 1.3657799,1.3657799 0 0 0 4e-4,0 1.3657808,1.3657799 0.26232836 0 0 0,0.01 1.3657799,1.3657799 0 0 0 4e-4,0 1.3657808,1.3657799 0.26232836 0 0 0,0.013 1.3657799,1.3657799 0 0 0 4e-4,0 1.3657808,1.3657799 0.26232836 0 0 0,0.013 1.3657799,1.3657799 0 0 0 0,7e-4 1.3657808,1.3657799 0.26232836 0 0 0,0.014 1.3657799,1.3657799 0 0 0 4e-4,8e-4 1.3657808,1.3657799 0.26232836 0 0 8e-4,0 1.3657799,1.3657799 0 0 0 5e-4,0 1.3657808,1.3657799 0.26232836 0 0 6e-4,0 1.3657799,1.3657799 0 0 0 4e-4,7e-4 1.3657808,1.3657799 0.26232836 0 0 0.01,0.028 1.3657799,1.3657799 0 0 0 4e-4,0 1.3657808,1.3657799 0.26232836 0 0 0,0.012 1.3657799,1.3657799 0 0 0 4e-4,8e-4 1.3657808,1.3657799 0.26232836 0 0 0.01,0.023 1.3657799,1.3657799 0 0 0 4e-4,0 1.3657808,1.3657799 0.26232836 0 0 0.01,0.021 1.3657799,1.3657799 0 0 0 4e-4,8e-4 1.3657808,1.3657799 0.26232836 0 0 0,0.013 1.3657799,1.3657799 0 0 0 4e-4,8e-4 1.3657808,1.3657799 0.26232836 0 0 0,0.01 1.3657799,1.3657799 0 0 0 4e-4,8e-4 1.3657808,1.3657799 0.26232836 0 0 0.013,0.036 1.3657799,1.3657799 0 0 0 4e-4,8e-4 1.3657808,1.3657799 0.26232836 0 0 0.01,0.026 1.3657799,1.3657799 0 0 0 4e-4,8e-4 1.3657808,1.3657799 0.26232836 0 0 0.01,0.013 1.3657799,1.3657799 0 0 0 4e-4,8e-4 1.3657808,1.3657799 0.26232836 0 0 0,0.01 1.3657799,1.3657799 0 0 0 4e-4,8e-4 1.3657808,1.3657799 0.26232836 0 0 0.01,0.013 1.3657799,1.3657799 0 0 0 3e-4,7e-4 1.3657808,1.3657799 0.26232836 0 0 0.01,0.013 1.3657799,1.3657799 0 0 0 4e-4,7e-4 1.3657799,1.3657799 0 0 0 0,6e-4 1.3657808,1.3657799 0.26232836 0 0 0.01,0.017 1.3657799,1.3657799 0 0 0 6e-4,10e-4 1.3657808,1.3657799 0.26232836 0 0 0.012,0.025 1.3657799,1.3657799 0 0 0 10e-4,0 1.3657808,1.3657799 0.26232836 0 0 0.01,0.02 1.3657799,1.3657799 0 0 0 10e-4,0 1.3657799,1.3657799 0 0 0 4e-4,8e-4 1.3657808,1.3657799 0.26232836 0 0 0.01,0.012 1.3657799,1.3657799 0 0 0 8e-4,0 1.3657808,1.3657799 0.26232836 0 0 0,0.01 1.3657799,1.3657799 0 0 0 4e-4,7e-4 1.3657808,1.3657799 0.26232836 0 0 0.01,0.016 1.3657799,1.3657799 0 0 0 4e-4,7e-4 1.3657808,1.3657799 0.26232836 0 0 5e-4,9e-4 1.3657799,1.3657799 0 0 0 5e-4,9e-4 1.3657808,1.3657799 0.26232836 0 0 4e-4,6e-4 1.3657808,1.3657799 0.26232836 0 0 5e-4,8e-4 1.3657808,1.3657799 0.26232836 0 0 0.012,0.02 1.3657799,1.3657799 0 0 0 4e-4,5e-4 1.3657808,1.3657799 0.26232836 0 0 5e-4,8e-4 1.3657808,1.3657799 0.26232836 0 0 0.01,0.01 1.3657808,1.3657799 0.26232836 0 0 0.01,0.01 1.3657808,1.3657799 0.26232836 0 0 5e-4,9e-4 1.3657808,1.3657799 0.26232836 0 0 0.018,0.027 1.3657799,1.3657799 0 0 0 7e-4,0 1.3657808,1.3657799 0.26232836 0 0 4e-4,6e-4 1.3657808,1.3657799 0.26232836 0 0 0.028,0.039 1.3657808,1.3657799 0.26232836 0 0 6e-4,8e-4 1.3657808,1.3657799 0.26232836 0 0 6e-4,8e-4 1.3657808,1.3657799 0.26232836 0 0 6e-4,7e-4 1.3657808,1.3657799 0.26232836 0 0 0.01,0.01 1.3657808,1.3657799 0.26232836 0 0 4e-4,5e-4 1.3657808,1.3657799 0.26232836 0 0 0.021,0.026 1.3657799,1.3657799 0 0 0 4e-4,6e-4 1.3657808,1.3657799 0.26232836 0 0 5e-4,7e-4 1.3657808,1.3657799 0.26232836 0 0 0.01,0.01 1.3657808,1.3657799 0.26232836 0 0 0.015,0.017 1.3657808,1.3657799 0.26232836 0 0 0.015,0.017 1.3657799,1.3657799 0 0 0 8e-4,8e-4 1.3657808,1.3657799 0.26232836 0 0 5e-4,6e-4 1.3657808,1.3657799 0.26232836 0 0 0.015,0.016 1.3657808,1.3657799 0.26232836 0 0 0.01,0.01 1.3657799,1.3657799 0 0 0 7e-4,7e-4 1.3657808,1.3657799 0.26232836 0 0 4e-4,5e-4 1.3657808,1.3657799 0.26232836 0 0 0.031,0.03 1.3657799,1.3657799 0 0 0 3e-4,6e-4 1.3657808,1.3657799 0.26232836 0 0 0.01,0.01 1.3657808,1.3657799 0.26232836 0 0 0.024,0.022 1.3657799,1.3657799 0 0 0 9e-4,8e-4 1.3657799,1.3657799 0 0 0 0,10e-4 1.3657808,1.3657799 0.26232836 0 0 6e-4,6e-4 1.3657808,1.3657799 0.26232836 0 0 0.013,0.011 1.3657808,1.3657799 0.26232836 0 0 0.01,0.01 1.3657808,1.3657799 0.26232836 0 0 0.022,0.018 1.3657799,1.3657799 0 0 0 6e-4,6e-4 1.3657808,1.3657799 0.26232836 0 0 6e-4,5e-4 1.3657799,1.3657799 0 0 0 5e-4,6e-4 1.3657808,1.3657799 0.26232836 0 0 7e-4,5e-4 1.3657808,1.3657799 0.26232836 0 0 7e-4,6e-4 1.3657808,1.3657799 0.26232836 0 0 0.031,0.022 1.3657799,1.3657799 0 0 0 8e-4,6e-4 1.3657799,1.3657799 0 0 0 8e-4,6e-4 1.3657808,1.3657799 0.26232836 0 0 7e-4,5e-4 1.3657808,1.3657799 0.26232836 0 0 0.01,0.01 1.3657799,1.3657799 0 0 0 4e-4,0 1.3657799,1.3657799 0 0 0 9e-4,6e-4 1.3657808,1.3657799 0.26232836 0 0 6e-4,5e-4 1.3657808,1.3657799 0.26232836 0 0 8e-4,6e-4 1.3657808,1.3657799 0.26232836 0 0 0.021,0.014 1.3657808,1.3657799 0.26232836 0 0 9e-4,6e-4 1.3657808,1.3657799 0.26232836 0 0 0.01,0.01 1.3657808,1.3657799 0.26232836 0 0 0.01,0 1.3657808,1.3657799 0.26232836 0 0 4e-4,0 1.3657808,1.3657799 0.26232836 0 0 0.01,0.01 1.3657799,1.3657799 0 0 0 7e-4,6e-4 1.3657808,1.3657799 0.26232836 0 0 0.01,0 1.3657799,1.3657799 0 0 0 7e-4,5e-4 1.3657808,1.3657799 0.26232836 0 0 0.01,0 1.3657799,1.3657799 0 0 0 4e-4,0 1.3657808,1.3657799 0.26232836 0 0 0.017,0.01 1.3657799,1.3657799 0 0 0 0,9e-4 1.3657799,1.3657799 0 0 0 7e-4,6e-4 1.3657799,1.3657799 0 0 0 4e-4,0 1.3657808,1.3657799 0.26232836 0 0 0.01,0 1.3657799,1.3657799 0 0 0 7e-4,5e-4 1.3657808,1.3657799 0.26232836 0 0 0.013,0.01 1.3657799,1.3657799 0 0 0 8e-4,5e-4 1.3657799,1.3657799 0 0 0 0,7e-4 1.3657799,1.3657799 0 0 0 8e-4,5e-4 1.3657808,1.3657799 0.26232836 0 0 0,9e-4 1.3657799,1.3657799 0 0 0 4e-4,0 1.3657808,1.3657799 0.26232836 0 0 0.017,0.01 1.3657799,1.3657799 0 0 0 0,6e-4 1.3657808,1.3657799 0.26232836 0 0 0.039,0.017 1.3657808,1.3657799 0.26232836 0 0 0.01,0 1.3657799,1.3657799 0 0 0 7e-4,6e-4 1.3657808,1.3657799 0.26232836 0 0 0.022,0.01 1.3657799,1.3657799 0 0 0 0,6e-4 1.3657808,1.3657799 0.26232836 0 0 0,0 1.3657799,1.3657799 0 0 0 8e-4,5e-4 1.3657808,1.3657799 0.26232836 0 0 0.036,0.014 1.3657799,1.3657799 0 0 0 0,6e-4 1.3657808,1.3657799 0.26232836 0 0 0,9e-4 1.3657799,1.3657799 0 0 0 7e-4,0 1.3657808,1.3657799 0.26232836 0 0 0.018,0.01 1.3657799,1.3657799 0 0 0 0,5e-4 1.3657808,1.3657799 0.26232836 0 0 0.01,0 1.3657799,1.3657799 0 0 0 4e-4,0 1.3657808,1.3657799 0.26232836 0 0 0.01,0 1.3657799,1.3657799 0 0 0 0,6e-4 1.3657808,1.3657799 0.26232836 0 0 0.01,0 1.3657799,1.3657799 0 0 0 0,9e-4 1.3657808,1.3657799 0.26232836 0 0 0,5e-4 1.3657799,1.3657799 0 0 0 0,6e-4 1.3657799,1.3657799 0 0 0 0,7e-4 1.3657808,1.3657799 0.26232836 0 0 0.021,0.01 1.3657799,1.3657799 0 0 0 0,7e-4 1.3657808,1.3657799 0.26232836 0 0 0,6e-4 1.3657799,1.3657799 0 0 0 8e-4,0 1.3657808,1.3657799 0.26232836 0 0 0.01,0 1.3657799,1.3657799 0 0 0 8e-4,0 1.3657808,1.3657799 0.26232836 0 0 0.023,0.01 1.3657799,1.3657799 0 0 0 8e-4,0 1.3657799,1.3657799 0 0 0 0,6e-4 1.3657808,1.3657799 0.26232836 0 0 0,7e-4 1.3657799,1.3657799 0 0 0 9e-4,0 1.3657808,1.3657799 0.26232836 0 0 0.018,0 1.3657799,1.3657799 0 0 0 0,7e-4 1.3657808,1.3657799 0.26232836 0 0 0,5e-4 1.3657799,1.3657799 0 0 0 8e-4,0 1.3657808,1.3657799 0.26232836 0 0 0.033,0.01 1.3657799,1.3657799 0 0 0 9e-4,0 1.3657808,1.3657799 0.26232836 0 0 0.01,0 1.3657799,1.3657799 0 0 0 0,6e-4 1.3657808,1.3657799 0.26232836 0 0 0,6e-4 1.3657799,1.3657799 0 0 0 4e-4,0 1.3657808,1.3657799 0.26232836 0 0 0.01,0 1.3657799,1.3657799 0 0 0 6e-4,0 1.3657808,1.3657799 0.26232836 0 0 0,6e-4 1.3657799,1.3657799 0 0 0 8e-4,0 1.3657808,1.3657799 0.26232836 0 0 0.028,0 1.3657799,1.3657799 0 0 0 0,5e-4 1.3657808,1.3657799 0.26232836 0 0 0.01,0 1.3657799,1.3657799 0 0 0 0,5e-4 1.3657808,1.3657799 0.26232836 0 0 0,6e-4 1.3657799,1.3657799 0 0 0 4e-4,0 1.3657808,1.3657799 0.26232836 0 0 0,5e-4 1.3657799,1.3657799 0 0 0 0,7e-4 1.3657808,1.3657799 0.26232836 0 0 5e-4,0 1.3657799,1.3657799 0 0 0 0,5e-4 1.3657808,1.3657799 0.26232836 0 0 0,6e-4 1.3657799,1.3657799 0 0 0 8e-4,0 1.3657808,1.3657799 0.26232836 0 0 0.01,0 1.3657799,1.3657799 0 0 0 4e-4,0 1.3657808,1.3657799 0.26232836 0 0 0.01,0 1.3657799,1.3657799 0 0 0 10e-4,0 1.3657808,1.3657799 0.26232836 0 0 0.014,0 1.3657808,1.3657799 0.26232836 0 0 0.023,0 1.3657808,1.3657799 0.26232836 0 0 0.01,7e-4 1.3657808,1.3657799 0.26232836 0 0 0.014,0 1.3657808,1.3657799 0.26232836 0 0 0.013,9e-4 1.3657799,1.3657799 0 0 0 5e-4,0 1.3657808,1.3657799 0.26232836 0 0 0.01,6e-4 1.3657808,1.3657799 0.26232836 0 0 0.013,6e-4 1.3657799,1.3657799 0 0 0 8e-4,0 1.3657808,1.3657799 0.26232836 0 0 0.023,8e-4 1.3657799,1.3657799 0 0 0 8e-4,0 1.3657808,1.3657799 0.26232836 0 0 0.01,0 1.3657808,1.3657799 0.26232836 0 0 0.022,6e-4 1.3657799,1.3657799 0 0 0 8e-4,0 1.3657808,1.3657799 0.26232836 0 0 0.01,0 1.3657808,1.3657799 0.26232836 0 0 0.01,0 1.3657808,1.3657799 0.26232836 0 0 0.014,-6e-4 1.3657799,1.3657799 0 0 0 7e-4,0 1.3657799,1.3657799 0 0 0 0.01,-5e-4 1.3657808,1.3657799 0.26232836 0 0 8e-4,0 1.3657799,1.3657799 0 0 0 10e-4,0 1.3657808,1.3657799 0.26232836 0 0 0.018,-9e-4 1.3657808,1.3657799 0.26232836 0 0 0.02,0 1.3657799,1.3657799 0 0 0 0,-6e-4 1.3657808,1.3657799 0.26232836 0 0 0.01,-8e-4 1.3657799,1.3657799 0 0 0 0,-5e-4 1.3657808,1.3657799 0.26232836 0 0 0.01,-6e-4 1.3657799,1.3657799 0 0 0 0,-5e-4 1.3657799,1.3657799 0 0 0 0.01,-8e-4 1.3657808,1.3657799 0.26232836 0 0 8e-4,0 1.3657799,1.3657799 0 0 0 0,-5e-4 1.3657808,1.3657799 0.26232836 0 0 8e-4,0 1.3657799,1.3657799 0 0 0 4e-4,0 1.3657808,1.3657799 0.26232836 0 0 0,-6e-4 1.3657799,1.3657799 0 0 0 0,-5e-4 1.3657808,1.3657799 0.26232836 0 0 0.01,0 1.3657799,1.3657799 0 0 0 0,-5e-4 1.3657808,1.3657799 0.26232836 0 0 0.014,0 1.3657799,1.3657799 0 0 0 0,-6e-4 1.3657808,1.3657799 0.26232836 0 0 0,-6e-4 1.3657799,1.3657799 0 0 0 0,-5e-4 1.3657808,1.3657799 0.26232836 0 0 0.01,-8e-4 1.3657799,1.3657799 0 0 0 0,-6e-4 1.3657808,1.3657799 0.26232836 0 0 0,-5e-4 1.3657799,1.3657799 0 0 0 0,-6e-4 1.3657808,1.3657799 0.26232836 0 0 0,-6e-4 1.3657808,1.3657799 0.26232836 0 0 7e-4,0 1.3657799,1.3657799 0 0 0 0,-7e-4 1.3657808,1.3657799 0.26232836 0 0 0.014,0 1.3657799,1.3657799 0 0 0 8e-4,0 1.3657808,1.3657799 0.26232836 0 0 0.018,0 1.3657799,1.3657799 0 0 0 5e-4,0 1.3657808,1.3657799 0.26232836 0 0 10e-4,0 1.3657799,1.3657799 0 0 0 0,-6e-4 1.3657808,1.3657799 0.26232836 0 0 8e-4,0 1.3657799,1.3657799 0 0 0 0.01,0 1.3657808,1.3657799 0.26232836 0 0 0,-9e-4 1.3657799,1.3657799 0 0 0 0,-8e-4 1.3657808,1.3657799 0.26232836 0 0 0,-6e-4 1.3657799,1.3657799 0 0 0 0,-5e-4 1.3657808,1.3657799 0.26232836 0 0 0.01,0 1.3657799,1.3657799 0 0 0 0,-8e-4 1.3657808,1.3657799 0.26232836 0 0 8e-4,0 1.3657799,1.3657799 0 0 0 7e-4,0 1.3657808,1.3657799 0.26232836 0 0 0.014,0 1.3657799,1.3657799 0 0 0 0,-10e-4 1.3657808,1.3657799 0.26232836 0 0 0,-6e-4 1.3657799,1.3657799 0 0 0 0,-6e-4 1.3657808,1.3657799 0.26232836 0 0 0.014,0 1.3657799,1.3657799 0 0 0 0,-8e-4 1.3657808,1.3657799 0.26232836 0 0 7e-4,0 1.3657799,1.3657799 0 0 0 8e-4,0 1.3657808,1.3657799 0.26232836 0 0 0,-5e-4 1.3657799,1.3657799 0 0 0 0,-7e-4 1.3657808,1.3657799 0.26232836 0 0 0.01,0 1.3657799,1.3657799 0 0 0 0,-6e-4 1.3657808,1.3657799 0.26232836 0 0 0.01,0 1.3657808,1.3657799 0.26232836 0 0 0.014,0 1.3657799,1.3657799 0 0 0 4e-4,0 1.3657808,1.3657799 0.26232836 0 0 0,-6e-4 1.3657799,1.3657799 0 0 0 0,-9e-4 1.3657808,1.3657799 0.26232836 0 0 8e-4,0 1.3657808,1.3657799 0.26232836 0 0 8e-4,0 1.3657808,1.3657799 0.26232836 0 0 0,-6e-4 1.3657799,1.3657799 0 0 0 0.01,0 1.3657808,1.3657799 0.26232836 0 0 0,-7e-4 1.3657799,1.3657799 0 0 0 0,-9e-4 1.3657808,1.3657799 0.26232836 0 0 6e-4,0 1.3657799,1.3657799 0 0 0 0.01,0 1.3657808,1.3657799 0.26232836 0 0 0,-5e-4 1.3657799,1.3657799 0 0 0 0,-8e-4 1.3657808,1.3657799 0.26232836 0 0 8e-4,0 1.3657808,1.3657799 0.26232836 0 0 0.014,0 1.3657808,1.3657799 0.26232836 0 0 0,-9e-4 1.3657799,1.3657799 0 0 0 0,-8e-4 1.3657808,1.3657799 0.26232836 0 0 0.014,-0.01 1.3657808,1.3657799 0.26232836 0 0 8e-4,-5e-4 1.3657808,1.3657799 0.26232836 0 0 8e-4,-6e-4 1.3657799,1.3657799 0 0 0 0,-5e-4 1.3657808,1.3657799 0.26232836 0 0 0,-7e-4 1.3657808,1.3657799 0.26232836 0 0 0,-7e-4 1.3657808,1.3657799 0.26232836 0 0 4e-4,0 1.3657808,1.3657799 0.26232836 0 0 6e-4,0 1.3657799,1.3657799 0 0 0 0.01,0 1.3657808,1.3657799 0.26232836 0 0 5e-4,0 1.3657808,1.3657799 0.26232836 0 0 5e-4,0 1.3657808,1.3657799 0.26232836 0 0 7e-4,-6e-4 1.3657799,1.3657799 0 0 0 0,-5e-4 1.3657808,1.3657799 0.26232836 0 0 0.012,-0.01 1.3657799,1.3657799 0 0 0 0.01,0 1.3657808,1.3657799 0.26232836 0 0 0.013,-0.01 1.3657808,1.3657799 0.26232836 0 0 7e-4,-5e-4 1.3657799,1.3657799 0 0 0 0.01,0 1.3657799,1.3657799 0 0 0 7e-4,-5e-4 1.3657799,1.3657799 0 0 0 6e-4,0 1.3657808,1.3657799 0.26232836 0 0 7e-4,-6e-4 1.3657799,1.3657799 0 0 0 0,-7e-4 1.3657808,1.3657799 0.26232836 0 0 0.01,0 1.3657799,1.3657799 0 0 0 7e-4,-6e-4 1.3657799,1.3657799 0 0 0 4e-4,0 1.3657808,1.3657799 0.26232836 0 0 7e-4,-5e-4 1.3657808,1.3657799 0.26232836 0 0 0.01,-0.01 1.3657808,1.3657799 0.26232836 0 0 0,-6e-4 1.3657799,1.3657799 0 0 0 8e-4,-5e-4 1.3657808,1.3657799 0.26232836 0 0 0.01,0 1.3657808,1.3657799 0.26232836 0 0 9e-4,-5e-4 1.3657808,1.3657799 0.26232836 0 0 0.01,-0.01 1.3657799,1.3657799 0 0 0 4e-4,0 1.3657799,1.3657799 0 0 0 8e-4,-6e-4 1.3657799,1.3657799 0 0 0 0,-8e-4 1.3657799,1.3657799 0 0 0 6e-4,-5e-4 1.3657799,1.3657799 0 0 0 0.012,-0.01 1.3657808,1.3657799 0.26232836 0 0 0.01,-0.01 1.3657808,1.3657799 0.26232836 0 0 8e-4,-6e-4 1.3657799,1.3657799 0 0 0 8e-4,-6e-4 1.3657799,1.3657799 0 0 0 8e-4,-6e-4 1.3657808,1.3657799 0.26232836 0 0 0.015,-0.012 1.3657799,1.3657799 0 0 0 4e-4,0 1.3657808,1.3657799 0.26232836 0 0 0.01,-0.01 1.3657808,1.3657799 0.26232836 0 0 6e-4,-6e-4 1.3657799,1.3657799 0 0 0 8e-4,-7e-4 1.3657808,1.3657799 0.26232836 0 0 0.011,-0.01 1.3657799,1.3657799 0 0 0 8e-4,-7e-4 1.3657808,1.3657799 0.26232836 0 0 0.01,-0.01 1.3657808,1.3657799 0.26232836 0 0 8e-4,-7e-4 1.3657808,1.3657799 0.26232836 0 0 0.021,-0.02 1.3657799,1.3657799 0 0 0 7e-4,-7e-4 1.3657799,1.3657799 0 0 0 7e-4,-8e-4 1.3657799,1.3657799 0 0 0 7e-4,-7e-4 1.3657799,1.3657799 0 0 0 7e-4,-8e-4 1.3657808,1.3657799 0.26232836 0 0 0.01,-0.01 1.3657799,1.3657799 0 0 0 6e-4,-7e-4 1.3657808,1.3657799 0.26232836 0 0 5e-4,-6e-4 1.3657808,1.3657799 0.26232836 0 0 4e-4,-5e-4 1.3657799,1.3657799 0 0 0 7e-4,-8e-4 1.3657799,1.3657799 0 0 0 6e-4,-8e-4 1.3657808,1.3657799 0.26232836 0 0 0.01,-0.01 1.3657799,1.3657799 0 0 0 6e-4,-8e-4 1.3657808,1.3657799 0.26232836 0 0 0.01,-0.01 1.3657808,1.3657799 0.26232836 0 0 10e-4,0 1.3657808,1.3657799 0.26232836 0 0 6e-4,-9e-4 1.3657799,1.3657799 0 0 0 7e-4,-8e-4 1.3657808,1.3657799 0.26232836 0 0 5e-4,-6e-4 1.3657799,1.3657799 0 0 0 0.01,-0.01 1.3657799,1.3657799 0 0 0 7e-4,-8e-4 1.3657808,1.3657799 0.26232836 0 0 4e-4,-6e-4 1.3657799,1.3657799 0 0 0 6e-4,-8e-4 1.3657799,1.3657799 0 0 0 6e-4,-8e-4 1.3657808,1.3657799 0.26232836 0 0 0.01,-0.011 1.3657808,1.3657799 0.26232836 0 0 8e-4,0 1.3657799,1.3657799 0 0 0 5e-4,-8e-4 1.3657808,1.3657799 0.26232836 0 0 0.01,-0.011 1.3657799,1.3657799 0 0 0 6e-4,-8e-4 1.3657799,1.3657799 0 0 0 0,-0.01 1.3657808,1.3657799 0.26232836 0 0 0.01,-0.014 1.3657799,1.3657799 0 0 0 6e-4,-9e-4 1.3657799,1.3657799 0 0 0 5e-4,-8e-4 1.3657808,1.3657799 0.26232836 0 0 0,-0.01 1.3657799,1.3657799 0 0 0 6e-4,-8e-4 1.3657808,1.3657799 0.26232836 0 0 0,-0.01 1.3657799,1.3657799 0 0 0 4e-4,-5e-4 1.3657799,1.3657799 0 0 0 5e-4,-9e-4 1.3657799,1.3657799 0 0 0 6e-4,-9e-4 1.3657799,1.3657799 0 0 0 0,-0.01 1.3657799,1.3657799 0 0 0 0,-0.01 1.3657808,1.3657799 0.26232836 0 0 4e-4,-6e-4 1.3657799,1.3657799 0 0 0 0,-6e-4 1.3657808,1.3657799 0.26232836 0 0 4e-4,-6e-4 1.3657799,1.3657799 0 0 0 0,-0.01 1.3657808,1.3657799 0.26232836 0 0 4e-4,-7e-4 1.3657808,1.3657799 0.26232836 0 0 4e-4,-7e-4 1.3657799,1.3657799 0 0 0 6e-4,0 1.3657799,1.3657799 0 0 0 9e-4,0 1.3657808,1.3657799 0.26232836 0 0 4e-4,-8e-4 1.3657799,1.3657799 0 0 0 0,-6e-4 1.3657808,1.3657799 0.26232836 0 0 4e-4,-6e-4 1.3657799,1.3657799 0 0 0 4e-4,-7e-4 1.3657808,1.3657799 0.26232836 0 0 4e-4,-8e-4 1.3657808,1.3657799 0.26232836 0 0 0.01,-0.013 1.3657808,1.3657799 0.26232836 0 0 4e-4,-7e-4 1.3657799,1.3657799 0 0 0 0,-0.01 1.3657808,1.3657799 0.26232836 0 0 0,-0.01 1.3657799,1.3657799 0 0 0 4e-4,-8e-4 1.3657808,1.3657799 0.26232836 0 0 8e-4,0 1.3657808,1.3657799 0.26232836 0 0 3e-4,-7e-4 1.3657808,1.3657799 0.26232836 0 0 4e-4,-7e-4 1.3657799,1.3657799 0 0 0 0,-0.01 1.3657799,1.3657799 0 0 0 0,-0.01 1.3657808,1.3657799 0.26232836 0 0 4e-4,-7e-4 1.3657799,1.3657799 0 0 0 0,-0.01 1.3657808,1.3657799 0.26232836 0 0 10e-4,0 1.3657808,1.3657799 0.26232836 0 0 0,-5e-4 1.3657808,1.3657799 0.26232836 0 0 4e-4,-7e-4 1.3657808,1.3657799 0.26232836 0 0 4e-4,-8e-4 1.3657808,1.3657799 0.26232836 0 0 4e-4,-8e-4 1.3657808,1.3657799 0.26232836 0 0 4e-4,-7e-4 1.3657808,1.3657799 0.26232836 0 0 0,-5e-4 1.3657808,1.3657799 0.26232836 0 0 4e-4,-8e-4 1.3657799,1.3657799 0 0 0 0,-0.01 1.3657808,1.3657799 0.26232836 0 0 0,-5e-4 1.3657799,1.3657799 0 0 0 0,-0.01 1.3657808,1.3657799 0.26232836 0 0 0,-6e-4 1.3657808,1.3657799 0.26232836 0 0 4e-4,-8e-4 1.3657799,1.3657799 0 0 0 6e-4,0 1.3657808,1.3657799 0.26232836 0 0 0,-5e-4 1.3657808,1.3657799 0.26232836 0 0 4e-4,-8e-4 1.3657799,1.3657799 0 0 0 0,-0.01 1.3657808,1.3657799 0.26232836 0 0 4e-4,-8e-4 1.3657808,1.3657799 0.26232836 0 0 4e-4,-8e-4 1.3657799,1.3657799 0 0 0 0,-0.01 1.3657808,1.3657799 0.26232836 0 0 0,-0.01 1.3657808,1.3657799 0.26232836 0 0 4e-4,-8e-4 1.3657808,1.3657799 0.26232836 0 0 4e-4,-8e-4 1.3657808,1.3657799 0.26232836 0 0 4e-4,-8e-4 1.3657799,1.3657799 0 0 0 3e-4,-8e-4 1.3657808,1.3657799 0.26232836 0 0 0,-0.01 1.3657808,1.3657799 0.26232836 0 0 4e-4,-8e-4 1.3657799,1.3657799 0 0 0 0,-0.01 1.3657808,1.3657799 0.26232836 0 0 4e-4,-8e-4 1.3657799,1.3657799 0 0 0 4e-4,-8e-4 1.3657808,1.3657799 0.26232836 0 0 0,-0.01 1.3657799,1.3657799 0 0 0 10e-4,0 1.3657808,1.3657799 0.26232836 0 0 4e-4,-8e-4 1.3657808,1.3657799 0.26232836 0 0 4e-4,-8e-4 1.3657808,1.3657799 0.26232836 0 0 0,-5e-4 1.3657799,1.3657799 0 0 0 0,-0.013 1.3657808,1.3657799 0.26232836 0 0 0,-8e-4 1.3657799,1.3657799 0 0 0 0,-7e-4 1.3657808,1.3657799 0.26232836 0 0 8e-4,0 1.3657799,1.3657799 0 0 0 0,-0.01 1.3657808,1.3657799 0.26232836 0 0 0,-5e-4 1.3657799,1.3657799 0 0 0 4e-4,-9e-4 1.3657808,1.3657799 0.26232836 0 0 9e-4,0 1.3657799,1.3657799 0 0 0 9e-4,0 1.3657808,1.3657799 0.26232836 0 0 0,-6e-4 1.3657799,1.3657799 0 0 0 0,-0.013 1.3657808,1.3657799 0.26232836 0 0 0,-8e-4 1.3657799,1.3657799 0 0 0 0,-0.01 1.3657808,1.3657799 0.26232836 0 0 0,-8e-4 1.3657799,1.3657799 0 0 0 0,-0.013 1.3657808,1.3657799 0.26232836 0 0 10e-4,0 1.3657799,1.3657799 0 0 0 9e-4,0 1.3657808,1.3657799 0.26232836 0 0 0,-8e-4 1.3657799,1.3657799 0 0 0 9e-4,0 1.3657799,1.3657799 0 0 0 8e-4,0 1.3657808,1.3657799 0.26232836 0 0 5e-4,0 1.3657799,1.3657799 0 0 0 5e-4,0 1.3657799,1.3657799 0 0 0 0,-0.01 1.3657808,1.3657799 0.26232836 0 0 4e-4,0 1.3657799,1.3657799 0 0 0 5e-4,0 1.3657799,1.3657799 0 0 0 7e-4,0 1.3657808,1.3657799 0.26232836 0 0 0,-8e-4 1.3657799,1.3657799 0 0 0 7e-4,0 1.3657808,1.3657799 0.26232836 0 0 0,-8e-4 1.3657808,1.3657799 0.26232836 0 0 7e-4,0 1.3657799,1.3657799 0 0 0 7e-4,0 1.3657808,1.3657799 0.26232836 0 0 0,-6e-4 1.3657799,1.3657799 0 0 0 0,-0.01 1.3657808,1.3657799 0.26232836 0 0 4e-4,0 1.3657799,1.3657799 0 0 0 4e-4,0 1.3657808,1.3657799 0.26232836 0 0 4e-4,0 1.3657799,1.3657799 0 0 0 0,-0.01 1.3657808,1.3657799 0.26232836 0 0 0,-8e-4 1.3657799,1.3657799 0 0 0 0,-0.01 1.3657808,1.3657799 0.26232836 0 0 0,-0.012 1.3657799,1.3657799 0 0 0 5e-4,0 1.3657808,1.3657799 0.26232836 0 0 4e-4,0 1.3657799,1.3657799 0 0 0 4e-4,0 1.3657808,1.3657799 0.26232836 0 0 0,-8e-4 1.3657799,1.3657799 0 0 0 10e-4,-0.01 1.3657808,1.3657799 0.26232836 0 0 0,-8e-4 1.3657799,1.3657799 0 0 0 10e-4,-0.01 1.3657808,1.3657799 0.26232836 0 0 0,-8e-4 1.3657799,1.3657799 0 0 0 7e-4,-0.01 1.3657808,1.3657799 0.26232836 0 0 4e-4,0 1.3657799,1.3657799 0 0 0 4e-4,0 1.3657808,1.3657799 0.26232836 0 0 4e-4,-0.01 1.3657799,1.3657799 0 0 0 4e-4,0 1.3657808,1.3657799 0.26232836 0 0 4e-4,0 1.3657808,1.3657799 0.26232836 0 0 0,-8e-4 1.3657799,1.3657799 0 0 0 7e-4,-0.01 1.3657808,1.3657799 0.26232836 0 0 0,-8e-4 1.3657799,1.3657799 0 0 0 7e-4,-0.01 1.3657808,1.3657799 0.26232836 0 0 0,-7e-4 1.3657799,1.3657799 0 0 0 5e-4,-0.01 1.3657808,1.3657799 0.26232836 0 0 0,-8e-4 1.3657799,1.3657799 0 0 0 5e-4,-0.01 1.3657808,1.3657799 0.26232836 0 0 0,-8e-4 1.3657799,1.3657799 0 0 0 4e-4,0 1.3657799,1.3657799 0 0 0 4e-4,-0.01 1.3657808,1.3657799 0.26232836 0 0 0,-8e-4 h 0.01 a 5.9183803,5.9183803 0 0 1 0.7811,-2.5853 5.9183803,5.9183803 0 0 1 2.813,-2.4887 l -0.011,-0.01 a 2.2763,2.2763 0 0 0 1.1413,-0.9811 2.2763,2.2763 0 0 0 -0.8332,-3.1095 2.2763,2.2763 0 0 0 -1.1419,-0.305 z"
       style="opacity:0.99800002;fill:#ffffff;fill-opacity:1;stroke:none;stroke-width:0.04386259;stroke-linecap:round;stroke-linejoin:round;stroke-miterlimit:4;stroke-dasharray:none;stroke-opacity:1"
       id="path865-7-1-0-8-0"
       inkscape:export-filename="C:\Users\Tiago\Desktop\Projetos\Vish\logo\logo_02.png"
       inkscape:export-xdpi="90"
       inkscape:export-ydpi="90"
       inkscape:connector-curvature="0" />
    <text
       xml:space="preserve"
       style="font-style:normal;font-variant:normal;font-weight:normal;font-stretch:normal;font-size:19.8083477px;line-height:1.25;font-family:Pacifico;-inkscape-font-specification:Pacifico;fill:url(#linearGradient1486-0);fill-opacity:1;stroke-width:0.37140712"
       x="-1478.1782"
       y="2760.1287"
       id="text1478-5"
       inkscape:export-filename="C:\Users\Tiago\Desktop\Projetos\Vish\logo\logo_02.png"
       inkscape:export-xdpi="90"
       inkscape:export-ydpi="90"><tspan
         sodipodi:role="line"
         id="tspan1476-6"
         x="-1478.1782"
         y="2760.1287"
         style="font-style:normal;font-variant:normal;font-weight:normal;font-stretch:normal;font-family:Pacifico;-inkscape-font-specification:Pacifico;fill:url(#linearGradient1486-0);fill-opacity:1;stroke-width:0.37140712">Vish Acabou!</tspan></text>
    <g
       id="g835"
       transform="translate(-1.1274333,-0.32848424)"
       inkscape:export-xdpi="90"
       inkscape:export-ydpi="90">
      <circle
         inkscape:export-ydpi="90"
         inkscape:export-xdpi="90"
         style="opacity:0.99599998;fill:url(#linearGradient1528);fill-opacity:1;stroke:none;stroke-width:0.0331182;stroke-linecap:round;stroke-linejoin:miter;stroke-miterlimit:4;stroke-dasharray:none;stroke-opacity:1"
         id="path1520"
         cx="-1432.7318"
         cy="2667.4041"
         r="23.293766" />
      <path
         inkscape:connector-curvature="0"
         inkscape:export-ydpi="90"
         inkscape:export-xdpi="90"
         d="m -1426.491,2654.2902 a 5.5363649,5.5363649 0 0 0 -4.7856,2.7682 5.5363649,5.5363649 0 0 0 -0.6793,3.5975 l -0.034,-0.02 a 14.39455,14.39455 0 0 1 -1.8212,8.9518 14.39455,14.39455 0 0 1 -3.0128,3.6581 8.6367348,8.6367297 0 0 1 -2.5647,-2.7834 8.6367348,8.6367297 0 0 1 -1.1398,-3.7727 h -0.01 a 1.9930914,1.9930927 89.851899 0 0 -0.2654,-0.9162 1.9930914,1.9930927 89.851899 0 0 -2.7226,-0.7295 1.9930914,1.9930927 89.851899 0 0 -0.7295,2.7226 1.9930914,1.9930927 89.851899 0 0 0.6608,0.688 l -0.012,0.01 a 8.6367348,8.6367297 0 0 1 2.6973,2.8735 8.6367348,8.6367297 0 0 1 1.0927,5.371 l 0.021,-0.012 a 3.321821,3.3218187 0.26232836 0 0 0,0.011 3.3218187,3.3218187 0 0 0 -5e-4,0 3.321821,3.3218187 0.26232836 0 0 0,0.01 3.3218187,3.3218187 0 0 0 -4e-4,0 3.321821,3.3218187 0.26232836 0 0 0,0.023 3.3218187,3.3218187 0 0 0 0,3e-4 3.321821,3.3218187 0.26232836 0 0 0,0.01 3.3218187,3.3218187 0 0 0 0,0.01 3.321821,3.3218187 0.26232836 0 0 -5e-4,0 3.3218187,3.3218187 0 0 0 -4e-4,0 3.321821,3.3218187 0.26232836 0 0 0,0.02 3.3218187,3.3218187 0 0 0 0,0.01 3.321821,3.3218187 0.26232836 0 0 -4e-4,0 3.3218187,3.3218187 0 0 0 -4e-4,0 3.321821,3.3218187 0.26232836 0 0 -0.01,0.058 3.3218187,3.3218187 0 0 0 0,4e-4 3.321821,3.3218187 0.26232836 0 0 -10e-4,0.01 3.3218187,3.3218187 0 0 0 -9e-4,0.01 3.321821,3.3218187 0.26232836 0 0 -4e-4,0 3.3218187,3.3218187 0 0 0 -4e-4,0 3.321821,3.3218187 0.26232836 0 0 0,0.02 3.3218187,3.3218187 0 0 0 -7e-4,0.01 3.321821,3.3218187 0.26232836 0 0 -4e-4,0 3.3218187,3.3218187 0 0 0 -5e-4,0 3.321821,3.3218187 0.26232836 0 0 -0.01,0.1526 3.321821,3.3218187 0.26232836 0 0 -5e-4,0.01 3.3218187,3.3218187 0 0 0 -4e-4,0.01 3.321821,3.3218187 0.26232836 0 0 -6e-4,0.022 3.3218187,3.3218187 0 0 0 0,0.01 3.321821,3.3218187 0.26232836 0 0 -5e-4,0.032 3.321821,3.3218187 0.26232836 0 0 -4e-4,0.045 3.3218187,3.3218187 0 0 0 0,0.01 3.321821,3.3218187 0.26232836 0 0 0,0.01 3.321821,3.3218187 0.26232836 0 0 4e-4,0.031 3.321821,3.3218187 0.26232836 0 0 5e-4,0.023 3.321821,3.3218187 0.26232836 0 0 5e-4,0.02 3.3218187,3.3218187 0 0 0 0,0.01 3.321821,3.3218187 0.26232836 0 0 4e-4,0.01 3.3218187,3.3218187 0 0 0 0,3e-4 3.321821,3.3218187 0.26232836 0 0 0.01,0.117 3.3218187,3.3218187 0 0 0 0,3e-4 3.321821,3.3218187 0.26232836 0 0 7e-4,0.01 3.3218187,3.3218187 0 0 0 4e-4,0.01 3.321821,3.3218187 0.26232836 0 0 0,0.043 3.3218187,3.3218187 0 0 0 5e-4,0 3.321821,3.3218187 0.26232836 0 0 0,0.021 3.3218187,3.3218187 0 0 0 4e-4,0 3.321821,3.3218187 0.26232836 0 0 0.01,0.091 3.3218187,3.3218187 0 0 0 4e-4,0 3.321821,3.3218187 0.26232836 0 0 0,0.022 3.3218187,3.3218187 0 0 0 4e-4,0 3.321821,3.3218187 0.26232836 0 0 9e-4,0.01 3.3218187,3.3218187 0 0 0 4e-4,0 3.321821,3.3218187 0.26232836 0 0 0.01,0.046 3.3218187,3.3218187 0 0 0 5e-4,0 3.321821,3.3218187 0.26232836 0 0 0.01,0.055 3.3218187,3.3218187 0 0 0 4e-4,0 3.321821,3.3218187 0.26232836 0 0 0.01,0.031 3.3218187,3.3218187 0 0 0 5e-4,0 3.321821,3.3218187 0.26232836 0 0 0,0.022 3.3218187,3.3218187 0 0 0 9e-4,0 3.321821,3.3218187 0.26232836 0 0 0,0.01 3.3218187,3.3218187 0 0 0 4e-4,0 3.321821,3.3218187 0.26232836 0 0 0.01,0.033 3.3218187,3.3218187 0 0 0 0,0.01 3.321821,3.3218187 0.26232836 0 0 9e-4,0 3.3218187,3.3218187 0 0 0 4e-4,6e-4 3.321821,3.3218187 0.26232836 0 0 0,0.011 3.3218187,3.3218187 0 0 0 9e-4,0 3.321821,3.3218187 0.26232836 0 0 0,0.01 3.3218187,3.3218187 0 0 0 5e-4,0 3.321821,3.3218187 0.26232836 0 0 0,0.021 3.3218187,3.3218187 0 0 0 5e-4,0 3.321821,3.3218187 0.26232836 0 0 0.01,0.032 3.3218187,3.3218187 0 0 0 6e-4,0 3.321821,3.3218187 0.26232836 0 0 0.01,0.032 3.3218187,3.3218187 0 0 0 5e-4,0 3.321821,3.3218187 0.26232836 0 0 0.01,0.033 3.3218187,3.3218187 0 0 0 5e-4,0 3.321821,3.3218187 0.26232836 0 0 0,0.01 3.3218187,3.3218187 0 0 0 0,0.01 3.321821,3.3218187 0.26232836 0 0 0,0.01 3.3218187,3.3218187 0 0 0 5e-4,0 3.321821,3.3218187 0.26232836 0 0 0.018,0.067 3.3218187,3.3218187 0 0 0 9e-4,0 3.321821,3.3218187 0.26232836 0 0 0.01,0.03 3.3218187,3.3218187 0 0 0 6e-4,0 3.321821,3.3218187 0.26232836 0 0 0.017,0.056 3.3218187,3.3218187 0 0 0 7e-4,0 3.321821,3.3218187 0.26232836 0 0 0.017,0.052 3.3218187,3.3218187 0 0 0 6e-4,0 3.321821,3.3218187 0.26232836 0 0 0.011,0.032 3.3218187,3.3218187 0 0 0 6e-4,0 3.321821,3.3218187 0.26232836 0 0 0.01,0.02 3.3218187,3.3218187 0 0 0 7e-4,0 3.321821,3.3218187 0.26232836 0 0 0.032,0.088 3.3218187,3.3218187 0 0 0 8e-4,0 3.321821,3.3218187 0.26232836 0 0 0.025,0.063 3.3218187,3.3218187 0 0 0 8e-4,0 3.321821,3.3218187 0.26232836 0 0 0.013,0.031 3.3218187,3.3218187 0 0 0 8e-4,0 3.321821,3.3218187 0.26232836 0 0 0,0.011 3.3218187,3.3218187 0 0 0 4e-4,7e-4 3.321821,3.3218187 0.26232836 0 0 0.01,0.019 3.3218187,3.3218187 0 0 0 8e-4,0 3.321821,3.3218187 0.26232836 0 0 0.013,0.03 3.3218187,3.3218187 0 0 0 8e-4,0 3.321821,3.3218187 0.26232836 0 0 0.014,0.03 3.3218187,3.3218187 0 0 0 8e-4,0 3.321821,3.3218187 0.26232836 0 0 0,0.01 3.3218187,3.3218187 0 0 0 4e-4,9e-4 3.321821,3.3218187 0.26232836 0 0 0.019,0.041 3.321821,3.3218187 0.26232836 0 0 0.03,0.06 3.3218187,3.3218187 0 0 0 0,0.01 3.321821,3.3218187 0.26232836 0 0 0.025,0.048 3.321821,3.3218187 0.26232836 0 0 0,0.01 3.3218187,3.3218187 0 0 0 9e-4,0 3.321821,3.3218187 0.26232836 0 0 0.016,0.03 3.321821,3.3218187 0.26232836 0 0 0.01,0.017 3.3218187,3.3218187 0 0 0 9e-4,0 3.321821,3.3218187 0.26232836 0 0 0.022,0.038 3.3218187,3.3218187 0 0 0 10e-4,0 3.321821,3.3218187 0.26232836 0 0 0,0.01 3.321821,3.3218187 0.26232836 0 0 8e-4,0 3.3218187,3.3218187 0 0 0 0,0.01 3.321821,3.3218187 0.26232836 0 0 0.01,0.01 3.3218187,3.3218187 0 0 0 5e-4,6e-4 3.3218187,3.3218187 0 0 0 0,0.01 3.321821,3.3218187 0.26232836 0 0 0.03,0.049 3.3218187,3.3218187 0 0 0 8e-4,0 3.3218187,3.3218187 0 0 0 0,0.01 3.321821,3.3218187 0.26232836 0 0 0.014,0.022 3.3218187,3.3218187 0 0 0 0.01,0.01 3.321821,3.3218187 0.26232836 0 0 0.013,0.02 3.3218187,3.3218187 0 0 0 0.01,0.01 3.321821,3.3218187 0.26232836 0 0 0.045,0.067 3.321821,3.3218187 0.26232836 0 0 9e-4,0 3.3218187,3.3218187 0 0 0 0.01,0.01 3.321821,3.3218187 0.26232836 0 0 0.069,0.095 3.3218187,3.3218187 0 0 0 0.01,0.01 3.3218187,3.3218187 0 0 0 0.01,0.01 3.3218187,3.3218187 0 0 0 0.01,0.01 3.321821,3.3218187 0.26232836 0 0 0.012,0.016 3.321821,3.3218187 0.26232836 0 0 5e-4,7e-4 3.3218187,3.3218187 0 0 0 0.01,0.01 3.321821,3.3218187 0.26232836 0 0 0.051,0.064 3.3218187,3.3218187 0 0 0 5e-4,7e-4 3.3218187,3.3218187 0 0 0 0.01,0.01 3.321821,3.3218187 0.26232836 0 0 0.021,0.025 3.321821,3.3218187 0.26232836 0 0 0,2e-4 3.3218187,3.3218187 0 0 0 0.01,0.01 3.321821,3.3218187 0.26232836 0 0 0.037,0.042 3.321821,3.3218187 0.26232836 0 0 0.037,0.041 3.3218187,3.3218187 0 0 0 0.01,0.01 3.321821,3.3218187 0.26232836 0 0 0.038,0.04 3.321821,3.3218187 0.26232836 0 0 4e-4,4e-4 3.3218187,3.3218187 0 0 0 0.01,0.01 3.321821,3.3218187 0.26232836 0 0 0.024,0.024 3.321821,3.3218187 0.26232836 0 0 9e-4,9e-4 3.3218187,3.3218187 0 0 0 0.01,0.01 3.321821,3.3218187 0.26232836 0 0 0.075,0.073 3.321821,3.3218187 0.26232836 0 0 0.017,0.016 3.3218187,3.3218187 0 0 0 5e-4,3e-4 3.321821,3.3218187 0.26232836 0 0 0.059,0.054 3.321821,3.3218187 0.26232836 0 0 0.01,0 3.321821,3.3218187 0.26232836 0 0 0.01,0.01 3.3218187,3.3218187 0 0 0 0.01,0.01 3.321821,3.3218187 0.26232836 0 0 0.032,0.028 3.321821,3.3218187 0.26232836 0 0 5e-4,4e-4 3.3218187,3.3218187 0 0 0 0.01,0.01 3.321821,3.3218187 0.26232836 0 0 0.016,0.013 3.321821,3.3218187 0.26232836 0 0 4e-4,3e-4 3.3218187,3.3218187 0 0 0 0.01,0.01 3.321821,3.3218187 0.26232836 0 0 0.054,0.043 3.3218187,3.3218187 0 0 0 0.01,0.01 3.321821,3.3218187 0.26232836 0 0 0.01,0.01 3.3218187,3.3218187 0 0 0 0.01,0.01 3.321821,3.3218187 0.26232836 0 0 0.01,0.01 3.3218187,3.3218187 0 0 0 5e-4,4e-4 3.3218187,3.3218187 0 0 0 0.01,0.01 3.321821,3.3218187 0.26232836 0 0 0.011,0.01 3.3218187,3.3218187 0 0 0 0.01,0.01 3.321821,3.3218187 0.26232836 0 0 0.011,0.01 3.3218187,3.3218187 0 0 0 0.01,0.01 3.321821,3.3218187 0.26232836 0 0 0.075,0.054 3.321821,3.3218187 0.26232836 0 0 0.01,0 3.321821,3.3218187 0.26232836 0 0 0.01,0 3.3218187,3.3218187 0 0 0 0.01,0.01 3.321821,3.3218187 0.26232836 0 0 0.019,0.013 3.3218187,3.3218187 0 0 0 9e-4,6e-4 3.321821,3.3218187 0.26232836 0 0 0.01,0.01 3.3218187,3.3218187 0 0 0 0.01,0.01 3.3218187,3.3218187 0 0 0 0.01,0.01 3.321821,3.3218187 0.26232836 0 0 0.052,0.033 3.3218187,3.3218187 0 0 0 0.01,0 3.3218187,3.3218187 0 0 0 0.01,0 3.321821,3.3218187 0.26232836 0 0 0.022,0.014 3.3218187,3.3218187 0 0 0 0.01,0 3.321821,3.3218187 0.26232836 0 0 0.017,0.01 3.321821,3.3218187 0.26232836 0 0 9e-4,6e-4 3.3218187,3.3218187 0 0 0 0.01,0 3.321821,3.3218187 0.26232836 0 0 0.022,0.013 3.3218187,3.3218187 0 0 0 0,9e-4 3.321821,3.3218187 0.26232836 0 0 0.019,0.011 3.321821,3.3218187 0.26232836 0 0 0.02,0.011 3.3218187,3.3218187 0 0 0 0.01,0 3.321821,3.3218187 0.26232836 0 0 0.01,0 3.3218187,3.3218187 0 0 0 6e-4,4e-4 3.321821,3.3218187 0.26232836 0 0 0.04,0.022 3.321821,3.3218187 0.26232836 0 0 0.01,0 3.3218187,3.3218187 0 0 0 0,9e-4 3.321821,3.3218187 0.26232836 0 0 0.01,0.01 3.3218187,3.3218187 0 0 0 6e-4,4e-4 3.321821,3.3218187 0.26232836 0 0 0.019,0.01 3.3218187,3.3218187 0 0 0 0,9e-4 3.321821,3.3218187 0.26232836 0 0 0.031,0.016 3.321821,3.3218187 0.26232836 0 0 0.01,0 3.321821,3.3218187 0.26232836 0 0 0.01,0 3.3218187,3.3218187 0 0 0 0,8e-4 3.321821,3.3218187 0.26232836 0 0 0.01,0 3.3218187,3.3218187 0 0 0 0.01,0 3.3218187,3.3218187 0 0 0 0,5e-4 3.321821,3.3218187 0.26232836 0 0 0.041,0.019 3.321821,3.3218187 0.26232836 0 0 0.095,0.042 3.321821,3.3218187 0.26232836 0 0 0.02,0.01 3.3218187,3.3218187 0 0 0 0,7e-4 3.321821,3.3218187 0.26232836 0 0 0.054,0.022 3.321821,3.3218187 0.26232836 0 0 0.01,0 3.3218187,3.3218187 0 0 0 0,7e-4 3.321821,3.3218187 0.26232836 0 0 0.087,0.033 3.321821,3.3218187 0.26232836 0 0 0.01,0 3.3218187,3.3218187 0 0 0 0,7e-4 3.321821,3.3218187 0.26232836 0 0 0.044,0.015 3.321821,3.3218187 0.26232836 0 0 0.02,0.01 3.3218187,3.3218187 0 0 0 8e-4,4e-4 3.321821,3.3218187 0.26232836 0 0 0.02,0.01 3.321821,3.3218187 0.26232836 0 0 0.018,0.01 3.3218187,3.3218187 0 0 0 0.01,0 3.321821,3.3218187 0.26232836 0 0 0.01,0 3.3218187,3.3218187 0 0 0 4e-4,0 3.321821,3.3218187 0.26232836 0 0 0.01,0 3.3218187,3.3218187 0 0 0 0.01,0 3.321821,3.3218187 0.26232836 0 0 0.052,0.015 3.3218187,3.3218187 0 0 0 0.01,0 3.321821,3.3218187 0.26232836 0 0 0.01,0 3.3218187,3.3218187 0 0 0 0,6e-4 3.321821,3.3218187 0.26232836 0 0 0.021,0.01 3.3218187,3.3218187 0 0 0 0,5e-4 3.321821,3.3218187 0.26232836 0 0 0.055,0.015 3.3218187,3.3218187 0 0 0 0,5e-4 3.321821,3.3218187 0.26232836 0 0 0.01,0 3.321821,3.3218187 0.26232836 0 0 0.01,0 3.3218187,3.3218187 0 0 0 0,5e-4 3.321821,3.3218187 0.26232836 0 0 0.043,0.01 3.3218187,3.3218187 0 0 0 0.01,0 3.3218187,3.3218187 0 0 0 0,4e-4 3.321821,3.3218187 0.26232836 0 0 0.08,0.017 3.3218187,3.3218187 0 0 0 0,4e-4 3.321821,3.3218187 0.26232836 0 0 0.02,0 3.3218187,3.3218187 0 0 0 0.01,0 3.321821,3.3218187 0.26232836 0 0 0.01,0 3.3218187,3.3218187 0 0 0 6e-4,0 3.321821,3.3218187 0.26232836 0 0 0.022,0 3.3218187,3.3218187 0 0 0 0,3e-4 3.321821,3.3218187 0.26232836 0 0 0.01,0 3.3218187,3.3218187 0 0 0 0,4e-4 3.321821,3.3218187 0.26232836 0 0 0.068,0.012 3.3218187,3.3218187 0 0 0 0.01,8e-4 3.321821,3.3218187 0.26232836 0 0 0.018,0 3.3218187,3.3218187 0 0 0 0.01,0 3.321821,3.3218187 0.26232836 0 0 0,7e-4 3.3218187,3.3218187 0 0 0 9e-4,2e-4 3.321821,3.3218187 0.26232836 0 0 0.01,0 3.3218187,3.3218187 0 0 0 0.011,0 3.321821,3.3218187 0.26232836 0 0 0,2e-4 3.3218187,3.3218187 0 0 0 0.01,9e-4 3.321821,3.3218187 0.26232836 0 0 0,7e-4 3.3218187,3.3218187 0 0 0 0,3e-4 3.321821,3.3218187 0.26232836 0 0 0.023,0 3.3218187,3.3218187 0 0 0 6e-4,0 3.321821,3.3218187 0.26232836 0 0 0.022,0 3.3218187,3.3218187 0 0 0 0,3e-4 3.321821,3.3218187 0.26232836 0 0 0.033,0 3.3218187,3.3218187 0 0 0 0,4e-4 3.321821,3.3218187 0.26232836 0 0 0.056,0.01 3.3218187,3.3218187 0 0 0 4e-4,0 3.321821,3.3218187 0.26232836 0 0 0.022,0 3.3218187,3.3218187 0 0 0 0,2e-4 3.321821,3.3218187 0.26232836 0 0 0.033,0 3.3218187,3.3218187 0 0 0 0,3e-4 3.321821,3.3218187 0.26232836 0 0 0.032,0 3.321821,3.3218187 0.26232836 0 0 0.022,0 3.3218187,3.3218187 0 0 0 0,2e-4 3.321821,3.3218187 0.26232836 0 0 0.032,0 3.321821,3.3218187 0.26232836 0 0 0.055,0 3.321821,3.3218187 0.26232836 0 0 0.022,6e-4 3.321821,3.3218187 0.26232836 0 0 0.053,7e-4 3.3218187,3.3218187 0 0 0 0.01,0 3.321821,3.3218187 0.26232836 0 0 0.01,0 3.321821,3.3218187 0.26232836 0 0 0.018,0 3.3218187,3.3218187 0 0 0 0.01,0 3.321821,3.3218187 0.26232836 0 0 0.024,-2e-4 3.3218187,3.3218187 0 0 0 0.012,-2e-4 3.321821,3.3218187 0.26232836 0 0 0.012,-3e-4 3.3218187,3.3218187 0 0 0 0.011,-3e-4 3.321821,3.3218187 0.26232836 0 0 0.034,-9e-4 3.3218187,3.3218187 0 0 0 0.022,-8e-4 3.3218187,3.3218187 0 0 0 0,-2e-4 3.321821,3.3218187 0.26232836 0 0 0.045,0 3.3218187,3.3218187 0 0 0 0.011,-6e-4 3.321821,3.3218187 0.26232836 0 0 0.048,0 3.3218187,3.3218187 0 0 0 0.011,-8e-4 3.321821,3.3218187 0.26232836 0 0 0.024,0 3.3218187,3.3218187 0 0 0 0.011,0 3.321821,3.3218187 0.26232836 0 0 0.012,0 3.3218187,3.3218187 0 0 0 0.01,0 3.321821,3.3218187 0.26232836 0 0 0,-4e-4 3.3218187,3.3218187 0 0 0 0.018,0 3.321821,3.3218187 0.26232836 0 0 0,-2e-4 3.3218187,3.3218187 0 0 0 0.01,-10e-4 3.321821,3.3218187 0.26232836 0 0 0,-2e-4 3.3218187,3.3218187 0 0 0 8e-4,0 3.321821,3.3218187 0.26232836 0 0 0.011,0 3.3218187,3.3218187 0 0 0 0.011,0 3.321821,3.3218187 0.26232836 0 0 0.024,0 3.3218187,3.3218187 0 0 0 0.011,0 3.321821,3.3218187 0.26232836 0 0 0.034,0 3.3218187,3.3218187 0 0 0 0.012,0 3.321821,3.3218187 0.26232836 0 0 0.01,0 3.3218187,3.3218187 0 0 0 0,-7e-4 3.321821,3.3218187 0.26232836 0 0 0.012,0 3.3218187,3.3218187 0 0 0 0.01,0 3.321821,3.3218187 0.26232836 0 0 0.01,-8e-4 3.3218187,3.3218187 0 0 0 0.01,0 3.321821,3.3218187 0.26232836 0 0 0.01,0 3.3218187,3.3218187 0 0 0 4e-4,0 3.321821,3.3218187 0.26232836 0 0 0,-3e-4 3.3218187,3.3218187 0 0 0 0.011,0 3.321821,3.3218187 0.26232836 0 0 0.034,-0.01 3.3218187,3.3218187 0 0 0 0,-3e-4 3.321821,3.3218187 0.26232836 0 0 0.044,-0.01 3.3218187,3.3218187 0 0 0 0,-3e-4 3.321821,3.3218187 0.26232836 0 0 0,-4e-4 3.3218187,3.3218187 0 0 0 0.01,0 3.321821,3.3218187 0.26232836 0 0 0,-4e-4 3.3218187,3.3218187 0 0 0 0.023,0 3.321821,3.3218187 0.26232836 0 0 0.012,0 3.3218187,3.3218187 0 0 0 0.01,0 3.321821,3.3218187 0.26232836 0 0 0,-8e-4 3.3218187,3.3218187 0 0 0 0.01,0 3.321821,3.3218187 0.26232836 0 0 0.014,0 3.3218187,3.3218187 0 0 0 0.01,0 3.321821,3.3218187 0.26232836 0 0 0,-4e-4 3.3218187,3.3218187 0 0 0 0,-4e-4 3.321821,3.3218187 0.26232836 0 0 0.033,-0.01 3.3218187,3.3218187 0 0 0 0.01,0 3.321821,3.3218187 0.26232836 0 0 0.01,0 3.3218187,3.3218187 0 0 0 0.01,0 3.321821,3.3218187 0.26232836 0 0 0.035,-0.01 3.3218187,3.3218187 0 0 0 0.01,0 3.321821,3.3218187 0.26232836 0 0 0,-4e-4 3.3218187,3.3218187 0 0 0 0,-5e-4 3.321821,3.3218187 0.26232836 0 0 0.01,0 3.3218187,3.3218187 0 0 0 0.01,0 3.321821,3.3218187 0.26232836 0 0 0.017,0 3.3218187,3.3218187 0 0 0 0.01,0 3.321821,3.3218187 0.26232836 0 0 0.023,-0.01 3.3218187,3.3218187 0 0 0 0.011,0 3.321821,3.3218187 0.26232836 0 0 5e-4,0 3.3218187,3.3218187 0 0 0 0.01,0 3.321821,3.3218187 0.26232836 0 0 0.033,-0.01 3.3218187,3.3218187 0 0 0 6e-4,-2e-4 3.321821,3.3218187 0.26232836 0 0 0.01,0 3.3218187,3.3218187 0 0 0 0.01,0 3.321821,3.3218187 0.26232836 0 0 0.011,0 3.3218187,3.3218187 0 0 0 0.01,0 3.321821,3.3218187 0.26232836 0 0 0,-6e-4 3.3218187,3.3218187 0 0 0 0.01,0 3.321821,3.3218187 0.26232836 0 0 0,-5e-4 3.3218187,3.3218187 0 0 0 0.01,0 3.321821,3.3218187 0.26232836 0 0 0,-9e-4 3.3218187,3.3218187 0 0 0 0.019,-0.01 3.321821,3.3218187 0.26232836 0 0 0.01,0 3.3218187,3.3218187 0 0 0 0.01,0 3.321821,3.3218187 0.26232836 0 0 0.01,0 3.3218187,3.3218187 0 0 0 4e-4,-3e-4 3.321821,3.3218187 0.26232836 0 0 0,-4e-4 3.3218187,3.3218187 0 0 0 0.01,0 3.321821,3.3218187 0.26232836 0 0 0.01,0 3.3218187,3.3218187 0 0 0 0.013,0 3.321821,3.3218187 0.26232836 0 0 0.011,0 3.3218187,3.3218187 0 0 0 0.01,0 3.3218187,3.3218187 0 0 0 0.01,0 3.321821,3.3218187 0.26232836 0 0 0,-6e-4 3.321821,3.3218187 0.26232836 0 0 0.033,-0.012 3.3218187,3.3218187 0 0 0 0.01,0 3.321821,3.3218187 0.26232836 0 0 0.01,0 3.3218187,3.3218187 0 0 0 0.01,0 3.321821,3.3218187 0.26232836 0 0 0.035,-0.013 3.3218187,3.3218187 0 0 0 0.01,0 3.321821,3.3218187 0.26232836 0 0 0,-7e-4 3.3218187,3.3218187 0 0 0 0.01,0 3.321821,3.3218187 0.26232836 0 0 0,-7e-4 3.321821,3.3218187 0.26232836 0 0 0.01,0 3.3218187,3.3218187 0 0 0 0.01,0 3.3218187,3.3218187 0 0 0 0.01,0 3.3218187,3.3218187 0 0 0 0.01,0 3.321821,3.3218187 0.26232836 0 0 0.011,0 3.3218187,3.3218187 0 0 0 0.01,0 3.321821,3.3218187 0.26232836 0 0 8e-4,-3e-4 3.3218187,3.3218187 0 0 0 0.01,0 3.321821,3.3218187 0.26232836 0 0 0,-5e-4 3.3218187,3.3218187 0 0 0 0.01,0 3.321821,3.3218187 0.26232836 0 0 0.01,0 3.3218187,3.3218187 0 0 0 0.013,-0.01 3.321821,3.3218187 0.26232836 0 0 0,-5e-4 3.3218187,3.3218187 0 0 0 0.01,0 3.321821,3.3218187 0.26232836 0 0 4e-4,-3e-4 3.3218187,3.3218187 0 0 0 0.01,0 3.321821,3.3218187 0.26232836 0 0 0,-5e-4 3.3218187,3.3218187 0 0 0 0.011,0 3.3218187,3.3218187 0 0 0 0.01,0 3.321821,3.3218187 0.26232836 0 0 0,-7e-4 3.321821,3.3218187 0.26232836 0 0 0.029,-0.013 3.3218187,3.3218187 0 0 0 0.02,-0.01 3.321821,3.3218187 0.26232836 0 0 0.01,0 3.3218187,3.3218187 0 0 0 0.01,0 3.321821,3.3218187 0.26232836 0 0 0.011,-0.01 3.3218187,3.3218187 0 0 0 0.01,0 3.321821,3.3218187 0.26232836 0 0 4e-4,-2e-4 3.3218187,3.3218187 0 0 0 0.011,-0.01 3.321821,3.3218187 0.26232836 0 0 0.01,0 3.3218187,3.3218187 0 0 0 0.01,0 3.321821,3.3218187 0.26232836 0 0 0.032,-0.016 3.3218187,3.3218187 0 0 0 0.01,-0.01 3.321821,3.3218187 0.26232836 0 0 5e-4,-3e-4 3.3218187,3.3218187 0 0 0 0.01,0 3.321821,3.3218187 0.26232836 0 0 0,-9e-4 3.3218187,3.3218187 0 0 0 0.01,0 3.321821,3.3218187 0.26232836 0 0 0.01,0 3.3218187,3.3218187 0 0 0 0.016,-0.01 3.321821,3.3218187 0.26232836 0 0 0.01,-0.01 3.3218187,3.3218187 0 0 0 0,-9e-4 3.321821,3.3218187 0.26232836 0 0 0.01,0 3.3218187,3.3218187 0 0 0 0,-6e-4 3.321821,3.3218187 0.26232836 0 0 0,-9e-4 3.321821,3.3218187 0.26232836 0 0 0.018,-0.01 3.3218187,3.3218187 0 0 0 0.01,0 3.321821,3.3218187 0.26232836 0 0 0.01,0 3.3218187,3.3218187 0 0 0 0.01,0 3.321821,3.3218187 0.26232836 0 0 0.01,-0.01 3.3218187,3.3218187 0 0 0 0,-9e-4 3.321821,3.3218187 0.26232836 0 0 0.01,0 3.3218187,3.3218187 0 0 0 9e-4,-5e-4 3.321821,3.3218187 0.26232836 0 0 0,-0 3.3218187,3.3218187 0 0 0 0.01,0 3.321821,3.3218187 0.26232836 0 0 0.024,-0.014 3.321821,3.3218187 0.26232836 0 0 0.01,0 3.3218187,3.3218187 0 0 0 0.01,0 3.321821,3.3218187 0.26232836 0 0 0.01,-0.01 3.321821,3.3218187 0.26232836 0 0 0.015,-0.01 3.3218187,3.3218187 0 0 0 0.01,0 3.3218187,3.3218187 0 0 0 0.01,-0.01 3.321821,3.3218187 0.26232836 0 0 0.01,0 3.3218187,3.3218187 0 0 0 0.01,0 3.321821,3.3218187 0.26232836 0 0 0.01,-0.01 3.3218187,3.3218187 0 0 0 0.01,-0.01 3.321821,3.3218187 0.26232836 0 0 0.01,-0.01 3.3218187,3.3218187 0 0 0 0.01,-0.01 3.321821,3.3218187 0.26232836 0 0 0.02,-0.013 3.3218187,3.3218187 0 0 0 0.01,-0.01 3.321821,3.3218187 0.26232836 0 0 0.011,-0.01 3.3218187,3.3218187 0 0 0 10e-4,-6e-4 3.321821,3.3218187 0.26232836 0 0 0.01,-0.01 3.321821,3.3218187 0.26232836 0 0 0.01,-0.01 3.3218187,3.3218187 0 0 0 0.01,-0.01 3.321821,3.3218187 0.26232836 0 0 0.01,-0.01 3.321821,3.3218187 0.26232836 0 0 0.01,-0.01 3.3218187,3.3218187 0 0 0 0.028,-0.019 3.321821,3.3218187 0.26232836 0 0 0.019,-0.014 3.3218187,3.3218187 0 0 0 0.01,-0.01 3.321821,3.3218187 0.26232836 0 0 0.01,-0.01 3.3218187,3.3218187 0 0 0 0.01,-0.01 3.321821,3.3218187 0.26232836 0 0 0.01,-0.01 3.321821,3.3218187 0.26232836 0 0 0.01,-0.01 3.3218187,3.3218187 0 0 0 0.011,-0.01 3.321821,3.3218187 0.26232836 0 0 0.037,-0.028 3.3218187,3.3218187 0 0 0 7e-4,-5e-4 3.321821,3.3218187 0.26232836 0 0 0.01,-0.01 3.3218187,3.3218187 0 0 0 0.01,-0.01 3.321821,3.3218187 0.26232836 0 0 0.01,-0.01 3.3218187,3.3218187 0 0 0 0.01,-0.01 3.321821,3.3218187 0.26232836 0 0 0.018,-0.015 3.3218187,3.3218187 0 0 0 0.01,-0.01 3.3218187,3.3218187 0 0 0 0.01,-0.01 3.321821,3.3218187 0.26232836 0 0 0.01,-0.01 3.321821,3.3218187 0.26232836 0 0 0.01,-0.01 3.3218187,3.3218187 0 0 0 0.011,-0.01 3.321821,3.3218187 0.26232836 0 0 0.01,-0.01 3.3218187,3.3218187 0 0 0 0.01,-0.01 3.321821,3.3218187 0.26232836 0 0 0.027,-0.023 3.3218187,3.3218187 0 0 0 0.01,-0.01 3.3218187,3.3218187 0 0 0 0.01,-0.01 3.321821,3.3218187 0.26232836 0 0 0.01,-0.01 3.3218187,3.3218187 0 0 0 0.01,-0.01 3.321821,3.3218187 0.26232836 0 0 0.01,-0.01 3.321821,3.3218187 0.26232836 0 0 0.016,-0.014 3.3218187,3.3218187 0 0 0 0.01,-0.01 3.3218187,3.3218187 0 0 0 0.01,-0.01 3.321821,3.3218187 0.26232836 0 0 5e-4,-4e-4 3.3218187,3.3218187 0 0 0 0.01,-0.01 3.3218187,3.3218187 0 0 0 0.01,-0.01 3.321821,3.3218187 0.26232836 0 0 0.01,-0.01 3.3218187,3.3218187 0 0 0 0.01,-0.01 3.321821,3.3218187 0.26232836 0 0 0.051,-0.049 3.321821,3.3218187 0.26232836 0 0 0.01,-0.01 3.321821,3.3218187 0.26232836 0 0 0.01,-0.01 3.3218187,3.3218187 0 0 0 0.01,-0.01 3.321821,3.3218187 0.26232836 0 0 0.01,-0.01 3.3218187,3.3218187 0 0 0 0.01,-0.01 3.321821,3.3218187 0.26232836 0 0 0.01,-0.01 3.3218187,3.3218187 0 0 0 0.01,-0.01 3.321821,3.3218187 0.26232836 0 0 0.01,-0.01 3.321821,3.3218187 0.26232836 0 0 0.01,-0.01 3.321821,3.3218187 0.26232836 0 0 0.022,-0.024 3.3218187,3.3218187 0 0 0 0.01,-0.01 3.321821,3.3218187 0.26232836 0 0 0.01,-0.01 3.3218187,3.3218187 0 0 0 0,-0.01 3.3218187,3.3218187 0 0 0 0.01,-0.01 3.321821,3.3218187 0.26232836 0 0 0.01,-0.01 3.3218187,3.3218187 0 0 0 0.01,-0.01 3.321821,3.3218187 0.26232836 0 0 0.01,-0.01 3.3218187,3.3218187 0 0 0 0.01,-0.01 3.3218187,3.3218187 0 0 0 0.01,-0.01 3.321821,3.3218187 0.26232836 0 0 0.01,-0.01 3.321821,3.3218187 0.26232836 0 0 0.01,-0.01 3.3218187,3.3218187 0 0 0 0.01,-0.01 3.321821,3.3218187 0.26232836 0 0 0.01,-0.01 3.321821,3.3218187 0.26232836 0 0 0.015,-0.018 3.321821,3.3218187 0.26232836 0 0 0.013,-0.016 3.3218187,3.3218187 0 0 0 0,-0.01 3.3218187,3.3218187 0 0 0 0.01,-0.01 3.3218187,3.3218187 0 0 0 0.016,-0.021 3.321821,3.3218187 0.26232836 0 0 0.01,-0.01 3.3218187,3.3218187 0 0 0 0.01,-0.01 3.321821,3.3218187 0.26232836 0 0 7e-4,0 3.3218187,3.3218187 0 0 0 0,-0.01 3.3218187,3.3218187 0 0 0 0.01,-0.011 3.321821,3.3218187 0.26232836 0 0 0.01,-0.01 3.321821,3.3218187 0.26232836 0 0 0.01,-0.01 3.321821,3.3218187 0.26232836 0 0 0.019,-0.027 3.3218187,3.3218187 0 0 0 0,-0.01 3.3218187,3.3218187 0 0 0 0.01,-0.01 3.321821,3.3218187 0.26232836 0 0 0.01,-0.01 3.3218187,3.3218187 0 0 0 0,-0.01 3.3218187,3.3218187 0 0 0 0,-0.01 3.321821,3.3218187 0.26232836 0 0 0.018,-0.027 3.321821,3.3218187 0.26232836 0 0 0.01,-0.01 3.3218187,3.3218187 0 0 0 0.01,-0.012 3.321821,3.3218187 0.26232836 0 0 0.01,-0.01 3.3218187,3.3218187 0 0 0 0,-0.01 3.321821,3.3218187 0.26232836 0 0 0,-0.01 3.3218187,3.3218187 0 0 0 0.011,-0.017 3.321821,3.3218187 0.26232836 0 0 0.021,-0.033 3.321821,3.3218187 0.26232836 0 0 0,-0.01 3.321821,3.3218187 0.26232836 0 0 0.011,-0.018 3.321821,3.3218187 0.26232836 0 0 0.011,-0.018 3.3218187,3.3218187 0 0 0 0,-0.01 3.321821,3.3218187 0.26232836 0 0 0,-0.01 3.3218187,3.3218187 0 0 0 5e-4,0 3.321821,3.3218187 0.26232836 0 0 0,-0.01 3.321821,3.3218187 0.26232836 0 0 0,-0.01 3.321821,3.3218187 0.26232836 0 0 0,-0.01 3.3218187,3.3218187 0 0 0 0.01,-0.014 3.321821,3.3218187 0.26232836 0 0 4e-4,-4e-4 3.3218187,3.3218187 0 0 0 0.011,-0.019 3.321821,3.3218187 0.26232836 0 0 9e-4,0 3.3218187,3.3218187 0 0 0 0,-0.01 3.321821,3.3218187 0.26232836 0 0 0.01,-0.01 3.3218187,3.3218187 0 0 0 5e-4,-8e-4 3.321821,3.3218187 0.26232836 0 0 8e-4,0 3.3218187,3.3218187 0 0 0 0.01,-0.019 3.321821,3.3218187 0.26232836 0 0 9e-4,0 3.3218187,3.3218187 0 0 0 0,-0.01 3.321821,3.3218187 0.26232836 0 0 9e-4,0 3.3218187,3.3218187 0 0 0 0,-0.01 3.321821,3.3218187 0.26232836 0 0 0,-0.01 3.321821,3.3218187 0.26232836 0 0 0,-0.01 3.321821,3.3218187 0.26232836 0 0 9e-4,0 3.3218187,3.3218187 0 0 0 0.01,-0.01 3.321821,3.3218187 0.26232836 0 0 4e-4,-3e-4 3.3218187,3.3218187 0 0 0 5e-4,-7e-4 3.321821,3.3218187 0.26232836 0 0 0,-0.01 3.3218187,3.3218187 0 0 0 0,-0.01 3.321821,3.3218187 0.26232836 0 0 8e-4,0 3.3218187,3.3218187 0 0 0 0,-0.01 3.321821,3.3218187 0.26232836 0 0 0,-0.01 3.3218187,3.3218187 0 0 0 9e-4,0 3.321821,3.3218187 0.26232836 0 0 9e-4,0 3.3218187,3.3218187 0 0 0 0.01,-0.01 3.321821,3.3218187 0.26232836 0 0 5e-4,-3e-4 3.3218187,3.3218187 0 0 0 0.01,-0.01 3.321821,3.3218187 0.26232836 0 0 4e-4,-4e-4 3.3218187,3.3218187 0 0 0 0.01,-0.01 3.321821,3.3218187 0.26232836 0 0 0.015,-0.032 3.3218187,3.3218187 0 0 0 0,-0.01 3.321821,3.3218187 0.26232836 0 0 8e-4,0 3.3218187,3.3218187 0 0 0 0.01,-0.019 3.321821,3.3218187 0.26232836 0 0 0.011,-0.023 3.3218187,3.3218187 0 0 0 9e-4,0 3.321821,3.3218187 0.26232836 0 0 0,-0.01 3.3218187,3.3218187 0 0 0 0,-0.01 3.3218187,3.3218187 0 0 0 0,-0.01 3.321821,3.3218187 0.26232836 0 0 8e-4,0 3.3218187,3.3218187 0 0 0 0,-0.01 3.321821,3.3218187 0.26232836 0 0 8e-4,0 3.3218187,3.3218187 0 0 0 0.01,-0.015 3.321821,3.3218187 0.26232836 0 0 0,-0.01 3.3218187,3.3218187 0 0 0 0,-0.01 3.321821,3.3218187 0.26232836 0 0 4e-4,-4e-4 3.3218187,3.3218187 0 0 0 0.01,-0.02 3.321821,3.3218187 0.26232836 0 0 7e-4,0 3.3218187,3.3218187 0 0 0 0.01,-0.02 3.321821,3.3218187 0.26232836 0 0 0,-0.01 3.3218187,3.3218187 0 0 0 0,-0.01 3.321821,3.3218187 0.26232836 0 0 0,-0.011 3.3218187,3.3218187 0 0 0 0,-0.01 3.321821,3.3218187 0.26232836 0 0 5e-4,-7e-4 3.3218187,3.3218187 0 0 0 0,-0.01 3.321821,3.3218187 0.26232836 0 0 7e-4,0 3.3218187,3.3218187 0 0 0 0,-0.01 3.321821,3.3218187 0.26232836 0 0 7e-4,0 3.3218187,3.3218187 0 0 0 0,-0.01 3.321821,3.3218187 0.26232836 0 0 7e-4,0 3.3218187,3.3218187 0 0 0 0,-0.01 3.321821,3.3218187 0.26232836 0 0 7e-4,0 3.3218187,3.3218187 0 0 0 0,-0.01 3.321821,3.3218187 0.26232836 0 0 0,-5e-4 3.3218187,3.3218187 0 0 0 0,-0.01 3.321821,3.3218187 0.26232836 0 0 5e-4,0 3.3218187,3.3218187 0 0 0 0,-0.01 3.321821,3.3218187 0.26232836 0 0 7e-4,0 3.3218187,3.3218187 0 0 0 0.01,-0.021 3.321821,3.3218187 0.26232836 0 0 5e-4,0 3.3218187,3.3218187 0 0 0 0.01,-0.021 3.321821,3.3218187 0.26232836 0 0 4e-4,-8e-4 3.3218187,3.3218187 0 0 0 0,-0.01 3.321821,3.3218187 0.26232836 0 0 7e-4,0 3.3218187,3.3218187 0 0 0 0,-0.01 3.321821,3.3218187 0.26232836 0 0 0,-0.01 3.321821,3.3218187 0.26232836 0 0 5e-4,-9e-4 3.3218187,3.3218187 0 0 0 0,-0.01 3.321821,3.3218187 0.26232836 0 0 7e-4,0 3.3218187,3.3218187 0 0 0 0,-0.011 3.321821,3.3218187 0.26232836 0 0 4e-4,-7e-4 3.3218187,3.3218187 0 0 0 0.01,-0.02 3.321821,3.3218187 0.26232836 0 0 6e-4,0 3.3218187,3.3218187 0 0 0 0,-0.01 3.321821,3.3218187 0.26232836 0 0 6e-4,0 3.3218187,3.3218187 0 0 0 0.01,-0.021 3.321821,3.3218187 0.26232836 0 0 0,-0.012 3.3218187,3.3218187 0 0 0 0,-0.01 3.321821,3.3218187 0.26232836 0 0 5e-4,0 3.3218187,3.3218187 0 0 0 0,-0.01 3.321821,3.3218187 0.26232836 0 0 6e-4,0 3.3218187,3.3218187 0 0 0 0,-0.01 3.321821,3.3218187 0.26232836 0 0 5e-4,0 3.3218187,3.3218187 0 0 0 6e-4,0 3.321821,3.3218187 0.26232836 0 0 0.01,-0.021 3.3218187,3.3218187 0 0 0 0,-0.01 3.321821,3.3218187 0.26232836 0 0 6e-4,0 3.3218187,3.3218187 0 0 0 0.01,-0.021 3.321821,3.3218187 0.26232836 0 0 5e-4,0 3.3218187,3.3218187 0 0 0 5e-4,0 3.321821,3.3218187 0.26232836 0 0 0.01,-0.021 3.3218187,3.3218187 0 0 0 0,-0.01 3.321821,3.3218187 0.26232836 0 0 5e-4,0 3.3218187,3.3218187 0 0 0 0,-0.01 3.321821,3.3218187 0.26232836 0 0 6e-4,0 3.3218187,3.3218187 0 0 0 0,-0.01 3.321821,3.3218187 0.26232836 0 0 4e-4,0 3.3218187,3.3218187 0 0 0 0.01,-0.032 3.321821,3.3218187 0.26232836 0 0 5e-4,0 3.3218187,3.3218187 0 0 0 4e-4,0 3.321821,3.3218187 0.26232836 0 0 0,-0.01 3.3218187,3.3218187 0 0 0 0,-0.013 3.321821,3.3218187 0.26232836 0 0 4e-4,-7e-4 3.3218187,3.3218187 0 0 0 5e-4,0 3.321821,3.3218187 0.26232836 0 0 0,-0.01 3.3218187,3.3218187 0 0 0 0,-0.01 3.321821,3.3218187 0.26232836 0 0 4e-4,0 3.3218187,3.3218187 0 0 0 0.01,-0.033 3.321821,3.3218187 0.26232836 0 0 4e-4,0 3.3218187,3.3218187 0 0 0 0,-0.021 3.321821,3.3218187 0.26232836 0 0 4e-4,0 3.3218187,3.3218187 0 0 0 0.01,-0.033 3.321821,3.3218187 0.26232836 0 0 0,-0.012 3.3218187,3.3218187 0 0 0 0,-0.012 3.321821,3.3218187 0.26232836 0 0 4e-4,0 3.3218187,3.3218187 0 0 0 0,-0.012 3.3218187,3.3218187 0 0 0 0,-0.01 3.321821,3.3218187 0.26232836 0 0 0,-0.01 3.3218187,3.3218187 0 0 0 0,-0.01 3.321821,3.3218187 0.26232836 0 0 0,-6e-4 3.3218187,3.3218187 0 0 0 0,-0.021 3.321821,3.3218187 0.26232836 0 0 0,-0.01 3.3218187,3.3218187 0 0 0 0,-0.01 3.321821,3.3218187 0.26232836 0 0 0,-5e-4 3.3218187,3.3218187 0 0 0 0,-0.01 3.321821,3.3218187 0.26232836 0 0 4e-4,0 3.3218187,3.3218187 0 0 0 0,-0.01 3.321821,3.3218187 0.26232836 0 0 5e-4,0 3.3218187,3.3218187 0 0 0 0,-4e-4 3.321821,3.3218187 0.26232836 0 0 0,-0.011 3.3218187,3.3218187 0 0 0 0,-0.01 3.321821,3.3218187 0.26232836 0 0 5e-4,0 3.3218187,3.3218187 0 0 0 0,-0.017 3.321821,3.3218187 0.26232836 0 0 10e-4,-0.01 3.3218187,3.3218187 0 0 0 6e-4,0 3.321821,3.3218187 0.26232836 0 0 8e-4,-0.01 3.3218187,3.3218187 0 0 0 0,-0.023 3.321821,3.3218187 0.26232836 0 0 5e-4,0 3.3218187,3.3218187 0 0 0 0,-0.017 3.321821,3.3218187 0.26232836 0 0 0,-0.03 3.3218187,3.3218187 0 0 0 0,-0.011 3.321821,3.3218187 0.26232836 0 0 7e-4,-0.01 3.3218187,3.3218187 0 0 0 6e-4,-0.01 3.321821,3.3218187 0.26232836 0 0 5e-4,0 3.3218187,3.3218187 0 0 0 0,-0.021 3.321821,3.3218187 0.26232836 0 0 4e-4,0 3.3218187,3.3218187 0 0 0 0,-0.021 3.321821,3.3218187 0.26232836 0 0 4e-4,0 3.3218187,3.3218187 0 0 0 0,-0.017 3.321821,3.3218187 0.26232836 0 0 7e-4,-0.01 3.3218187,3.3218187 0 0 0 10e-4,-0.011 3.321821,3.3218187 0.26232836 0 0 0,-0.013 3.3218187,3.3218187 0 0 0 9e-4,-0.011 3.321821,3.3218187 0.26232836 0 0 5e-4,-0.01 3.3218187,3.3218187 0 0 0 4e-4,-0.01 3.321821,3.3218187 0.26232836 0 0 4e-4,0 3.3218187,3.3218187 0 0 0 0,-0.021 3.3218187,3.3218187 0 0 0 0,-0.022 3.321821,3.3218187 0.26232836 0 0 4e-4,-0.01 3.3218187,3.3218187 0 0 0 5e-4,0 3.321821,3.3218187 0.26232836 0 0 4e-4,0 3.3218187,3.3218187 0 0 0 0,-0.021 3.321821,3.3218187 0.26232836 0 0 4e-4,0 3.3218187,3.3218187 0 0 0 0,-0.022 3.3218187,3.3218187 0 0 0 6e-4,-0.011 3.321821,3.3218187 0.26232836 0 0 0,-5e-4 3.3218187,3.3218187 0 0 0 9e-4,-0.022 3.3218187,3.3218187 0 0 0 0,-4e-4 l 0.013,0.01 a 14.39455,14.39455 0 0 1 1.8997,-6.2878 14.39455,14.39455 0 0 1 6.8419,-6.0531 l -0.026,-0.015 a 5.5363649,5.5363649 0 0 0 2.7759,-2.3862 5.5363649,5.5363649 0 0 0 -2.0265,-7.5629 5.5363649,5.5363649 0 0 0 -2.7772,-0.7417 z"
         style="opacity:0.99599998;fill:#ffffff;fill-opacity:1;stroke:none;stroke-width:0.10668139;stroke-linecap:round;stroke-linejoin:round;stroke-miterlimit:4;stroke-dasharray:none;stroke-opacity:1"
         id="path865-7-1-0-8" />
      <text
         id="text1478-2"
         y="2719.0039"
         x="-1490.7997"
         style="font-style:normal;font-variant:normal;font-weight:normal;font-stretch:normal;font-size:20.37491226px;line-height:1.25;font-family:Pacifico;-inkscape-font-specification:Pacifico;fill:url(#linearGradient1486-5);fill-opacity:1;stroke-width:0.38202995"
         xml:space="preserve"><tspan
           style="font-style:normal;font-variant:normal;font-weight:normal;font-stretch:normal;font-family:Pacifico;-inkscape-font-specification:Pacifico;fill:url(#linearGradient1486-5);fill-opacity:1;stroke-width:0.38202995"
           y="2719.0039"
           x="-1490.7997"
           id="tspan1476-63"
           sodipodi:role="line">Vish Acabou!</tspan></text>
    </g>
  </g>
</svg>
